<svg width="34" height="34" viewBox="0 0 34 34" fill="none" xmlns="http://www.w3.org/2000/svg">
<path d="M31.2301 23.1186C27.8906 19.7792 27.8906 14.3667 31.2301 11.0272C33.4706 8.78671 33.4706 5.15479 31.2301 2.91668C28.9896 0.676211 25.3577 0.676211 23.1196 2.91668C19.7801 6.25616 14.3676 6.25616 11.0282 2.91668C8.78769 0.676211 5.15577 0.676211 2.91766 2.91668C0.677188 5.15715 0.677188 8.78906 2.91766 11.0272C6.25713 14.3667 6.25713 19.7792 2.91766 23.1186C0.677188 25.3591 0.677188 28.991 2.91766 31.2291C5.15812 33.4696 8.79004 33.4696 11.0282 31.2291C14.3676 27.8896 19.7801 27.8896 23.1196 31.2291C25.3601 33.4696 28.992 33.4696 31.2301 31.2291C33.4706 28.9887 33.4706 25.3567 31.2301 23.1186Z" stroke="#242424" stroke-width="2" stroke-miterlimit="10" stroke-linecap="round"/>
<path d="M27.1762 28.6654C26.9451 28.6654 26.5018 28.6088 26.1221 28.2291L26.0914 28.1984C21.1105 23.2175 13.0377 23.2175 8.05681 28.1984L8.02615 28.2291C7.64645 28.6088 7.20308 28.6654 6.97196 28.6654C6.74084 28.6654 6.29744 28.6088 5.91774 28.2291C5.53804 27.8494 5.48145 27.406 5.48145 27.1749C5.48145 26.9437 5.53804 26.5004 5.91774 26.1207L5.9484 26.09C10.9293 21.1091 10.9293 13.0363 5.9484 8.05542C5.3706 7.47762 5.32815 6.53426 5.8918 5.94467C6.27622 5.54138 6.73612 5.48242 6.97196 5.48242C7.2078 5.48242 7.64645 5.53902 8.02615 5.91872L8.05681 5.94938C13.0377 10.9303 21.1105 10.9303 26.0914 5.94938L26.1221 5.91872C26.5018 5.53902 26.9451 5.48242 27.1762 5.48242C27.4074 5.48242 27.8696 5.54138 28.2564 5.94467C28.8201 6.53426 28.7776 7.47998 28.1998 8.05542C23.2189 13.0363 23.2189 21.1091 28.1998 26.09C28.7776 26.6678 28.8177 27.6112 28.254 28.2031C27.8696 28.6064 27.4097 28.6654 27.1739 28.6654H27.1762Z" stroke="#242424" stroke-width="2" stroke-miterlimit="10" stroke-linecap="round"/>
<path d="M16.9983 32.9986C25.8345 32.9986 32.9977 25.8355 32.9977 16.9993C32.9977 8.16314 25.8345 1 16.9983 1C8.16217 1 0.999023 8.16314 0.999023 16.9993C0.999023 25.8355 8.16217 32.9986 16.9983 32.9986Z" stroke="#242424" stroke-width="2" stroke-miterlimit="10" stroke-linecap="round"/>
<path d="M16.9991 26.0823C22.0151 26.0823 26.0813 22.0161 26.0813 17.0001C26.0813 11.9842 22.0151 7.91797 16.9991 7.91797C11.9832 7.91797 7.91699 11.9842 7.91699 17.0001C7.91699 22.0161 11.9832 26.0823 16.9991 26.0823Z" stroke="#242424" stroke-width="2" stroke-miterlimit="10" stroke-linecap="round"/>
<path d="M1.01367 17H32.9557" stroke="#242424" stroke-width="2" stroke-miterlimit="10" stroke-linecap="round"/>
<path d="M16.9844 32.9693V1.02734" stroke="#242424" stroke-width="2" stroke-miterlimit="10" stroke-linecap="round"/>
</svg>
