<svg width="34" height="34" viewBox="0 0 34 34" fill="none" xmlns="http://www.w3.org/2000/svg">
<path d="M32.998 1H0.998047V33H32.998V1Z" stroke="#242424" stroke-width="2" stroke-miterlimit="10" stroke-linecap="round"/>
<path d="M16.998 33C25.8346 33 32.998 25.8366 32.998 17C32.998 8.16344 25.8346 1 16.998 1C8.16148 1 0.998047 8.16344 0.998047 17C0.998047 25.8366 8.16148 33 16.998 33Z" stroke="#242424" stroke-width="2" stroke-miterlimit="10" stroke-linecap="round"/>
<path d="M32.998 17H0.998047V33H32.998V17Z" stroke="#242424" stroke-width="2" stroke-miterlimit="10" stroke-linecap="round"/>
<path d="M31.2304 23.1196C27.8908 19.78 27.8908 14.3672 31.2304 11.0276C33.471 8.78704 33.471 5.15496 31.2304 2.91675C28.9899 0.676187 25.3578 0.676187 23.1196 2.91675C19.78 6.25638 14.3672 6.25638 11.0276 2.91675C8.78704 0.676187 5.15496 0.676187 2.91675 2.91675C0.676187 5.15732 0.676187 8.78939 2.91675 11.0276C6.25638 14.3672 6.25638 19.78 2.91675 23.1196C0.676187 25.3602 0.676187 28.9922 2.91675 31.2304C5.15732 33.471 8.7894 33.471 11.0276 31.2304C14.3672 27.8908 19.78 27.8908 23.1196 31.2304C25.3602 33.471 28.9922 33.471 31.2304 31.2304C33.471 28.9899 33.471 25.3578 31.2304 23.1196Z" stroke="#242424" stroke-width="2" stroke-miterlimit="10" stroke-linecap="round"/>
<path d="M27.1762 28.6664C26.9451 28.6664 26.5017 28.6098 26.122 28.2301L26.0913 28.1994C21.1102 23.2183 13.0371 23.2183 8.05595 28.1994L8.02529 28.2301C7.64557 28.6098 7.20218 28.6664 6.97105 28.6664C6.73992 28.6664 6.2965 28.6098 5.91678 28.2301C5.53707 27.8503 5.48047 27.407 5.48047 27.1758C5.48047 26.9447 5.53707 26.5013 5.91678 26.1216L5.94745 26.0909C10.9286 21.1098 10.9286 13.0367 5.94745 8.05554C5.36962 7.4777 5.32716 6.53431 5.89084 5.94469C6.27528 5.54138 6.7352 5.48242 6.97105 5.48242C7.2069 5.48242 7.64557 5.53903 8.02529 5.91874L8.05595 5.9494C13.0371 10.9305 21.1102 10.9305 26.0913 5.9494L26.122 5.91874C26.5017 5.53903 26.9451 5.48242 27.1762 5.48242C27.4074 5.48242 27.8696 5.54138 28.2564 5.94469C28.8201 6.53431 28.7776 7.48006 28.1998 8.05554C23.2187 13.0367 23.2187 21.1098 28.1998 26.0909C28.7776 26.6687 28.8177 27.6121 28.2541 28.2041C27.8696 28.6074 27.4097 28.6664 27.1739 28.6664H27.1762Z" stroke="#242424" stroke-width="2" stroke-miterlimit="10" stroke-linecap="round"/>
</svg>
