<svg width="34" height="34" viewBox="0 0 34 34" fill="none" xmlns="http://www.w3.org/2000/svg">
<path d="M32.9971 1H0.99707V33H32.9971V1Z" stroke="#242424" stroke-width="2" stroke-miterlimit="10" stroke-linecap="round"/>
<path d="M16.9977 28.3157C23.2473 28.3157 28.3138 23.2493 28.3138 16.9996C28.3138 10.75 23.2473 5.68359 16.9977 5.68359C10.748 5.68359 5.68164 10.75 5.68164 16.9996C5.68164 23.2493 10.748 28.3157 16.9977 28.3157Z" stroke="#242424" stroke-width="2" stroke-miterlimit="10" stroke-linecap="round"/>
<path d="M16.9973 24.0356C20.8828 24.0356 24.0326 20.8858 24.0326 17.0002C24.0326 13.1147 20.8828 9.96484 16.9973 9.96484C13.1117 9.96484 9.96191 13.1147 9.96191 17.0002C9.96191 20.8858 13.1117 24.0356 16.9973 24.0356Z" stroke="#242424" stroke-width="2" stroke-miterlimit="10" stroke-linecap="round"/>
<path d="M27.1743 28.6644C26.9431 28.6644 26.4997 28.6078 26.12 28.2281L26.0894 28.1975C21.1082 23.2163 13.0351 23.2163 8.054 28.1975L8.02334 28.2281C7.64362 28.6078 7.20023 28.6644 6.9691 28.6644C6.73797 28.6644 6.29458 28.6078 5.91486 28.2281C5.53514 27.8484 5.47852 27.405 5.47852 27.1739C5.47852 26.9427 5.53514 26.4993 5.91486 26.1196L5.94552 26.089C10.9267 21.1078 10.9267 13.0347 5.94552 8.05358C5.36769 7.47575 5.32521 6.53236 5.88889 5.94273C6.27332 5.53943 6.73325 5.48047 6.9691 5.48047C7.20495 5.48047 7.64362 5.53707 8.02334 5.91679L8.054 5.94745C13.0351 10.9286 21.1082 10.9286 26.0894 5.94745L26.12 5.91679C26.4997 5.53707 26.9431 5.48047 27.1743 5.48047C27.4054 5.48047 27.8677 5.53943 28.2545 5.94273C28.8182 6.53236 28.7757 7.47811 28.1979 8.05358C23.2167 13.0347 23.2167 21.1078 28.1979 26.089C28.7757 26.6668 28.8158 27.6102 28.2521 28.2022C27.8677 28.6055 27.4078 28.6644 27.1719 28.6644H27.1743Z" stroke="#242424" stroke-width="2" stroke-miterlimit="10" stroke-linecap="round"/>
</svg>
