<svg width="34" height="34" viewBox="0 0 34 34" fill="none" xmlns="http://www.w3.org/2000/svg">
<path d="M25.1842 17.0724L31.229 11.0276C33.4696 8.78704 33.4696 5.15496 31.229 2.91675C28.9885 0.676187 25.3564 0.676187 23.1182 2.91675L17.0734 8.96156L11.0286 2.91675C8.788 0.676187 5.15594 0.676187 2.91773 2.91675C0.677163 5.15732 0.677163 8.78939 2.91773 11.0276L8.96253 17.0724L2.91773 23.1172C0.677163 25.3578 0.677163 28.9899 2.91773 31.2281C5.1583 33.4686 8.79036 33.4686 11.0286 31.2281L17.0734 25.1833L23.1182 31.2281C25.3588 33.4686 28.9908 33.4686 31.229 31.2281C33.4696 28.9875 33.4696 25.3554 31.229 23.1172L25.1842 17.0724Z" stroke="#242424" stroke-width="2" stroke-miterlimit="10" stroke-linecap="round"/>
<path d="M27.1748 28.6644C26.9437 28.6644 26.5003 28.6078 26.1206 28.2281L17.0734 19.1809L8.02625 28.2281C7.64653 28.6078 7.20313 28.6644 6.972 28.6644C6.74087 28.6644 6.29748 28.6078 5.91776 28.2281C5.53804 27.8484 5.48145 27.405 5.48145 27.1739C5.48145 26.9427 5.53804 26.4993 5.91776 26.1196L14.9649 17.0724L5.91776 8.02528C5.33757 7.44509 5.33757 6.49934 5.91776 5.91679C6.29748 5.53707 6.74087 5.48047 6.972 5.48047C7.20313 5.48047 7.64653 5.53707 8.02625 5.91679L17.0734 14.964L26.1206 5.91679C26.5003 5.53707 26.9437 5.48047 27.1748 5.48047C27.406 5.48047 27.8494 5.53707 28.2291 5.91679C28.8093 6.49698 28.8093 7.44273 28.2291 8.02528L19.1819 17.0724L28.2291 26.1196C28.8093 26.6998 28.8093 27.6456 28.2291 28.2281C27.8494 28.6078 27.406 28.6644 27.1748 28.6644Z" stroke="#242424" stroke-width="2" stroke-miterlimit="10" stroke-linecap="round"/>
<path d="M31.2304 23.1196C27.8908 19.78 27.8908 14.3672 31.2304 11.0276C33.471 8.78704 33.471 5.15496 31.2304 2.91675C28.9898 0.676187 25.3578 0.676187 23.1196 2.91675C19.7799 6.25638 14.3672 6.25638 11.0276 2.91675C8.78701 0.676187 5.15496 0.676187 2.91675 2.91675C0.676187 5.15732 0.676187 8.78939 2.91675 11.0276C6.25638 14.3672 6.25638 19.78 2.91675 23.1196C0.676187 25.3602 0.676187 28.9922 2.91675 31.2304C5.15732 33.471 8.78937 33.471 11.0276 31.2304C14.3672 27.8908 19.7799 27.8908 23.1196 31.2304C25.3601 33.471 28.9922 33.471 31.2304 31.2304C33.471 28.9899 33.471 25.3578 31.2304 23.1196Z" stroke="#242424" stroke-width="2" stroke-miterlimit="10" stroke-linecap="round"/>
</svg>
