<svg width="34" height="35" viewBox="0 0 34 35" fill="none" xmlns="http://www.w3.org/2000/svg">
<path d="M17.0328 29.3489C23.2825 29.3489 28.3489 24.2825 28.3489 18.0328C28.3489 11.7832 23.2825 6.7168 17.0328 6.7168C10.7832 6.7168 5.7168 11.7832 5.7168 18.0328C5.7168 24.2825 10.7832 29.3489 17.0328 29.3489Z" stroke="#242424" stroke-width="2" stroke-miterlimit="10" stroke-linecap="round"/>
<path d="M17.0334 25.0688C20.919 25.0688 24.0688 21.919 24.0688 18.0334C24.0688 14.1479 20.919 10.998 17.0334 10.998C13.1479 10.998 9.99805 14.1479 9.99805 18.0334C9.99805 21.919 13.1479 25.0688 17.0334 25.0688Z" stroke="#242424" stroke-width="2" stroke-miterlimit="10" stroke-linecap="round"/>
<path d="M25 17.9512C20.5825 17.9512 17 21.5337 17 25.9512C17 30.3686 20.5825 33.9512 25 33.9512C29.4174 33.9512 33 30.3686 33 25.9512C33 21.5337 29.4174 17.9512 25 17.9512ZM25 29.345C23.125 29.345 21.6061 27.8262 21.6061 25.9512C21.6061 24.0762 23.125 22.5573 25 22.5573C26.875 22.5573 28.3939 24.0762 28.3939 25.9512C28.3939 27.8262 26.875 29.345 25 29.345Z" stroke="#242424" stroke-width="2" stroke-miterlimit="10"/>
<path d="M9 17.9512C4.58254 17.9512 1 21.5337 1 25.9512C1 30.3686 4.58254 33.9512 9 33.9512C13.4174 33.9512 17 30.3686 17 25.9512C17 21.5337 13.4174 17.9512 9 17.9512ZM9 29.345C7.125 29.345 5.60612 27.8262 5.60612 25.9512C5.60612 24.0762 7.125 22.5573 9 22.5573C10.875 22.5573 12.3939 24.0762 12.3939 25.9512C12.3939 27.8262 10.875 29.345 9 29.345Z" stroke="#242424" stroke-width="2" stroke-miterlimit="10"/>
<path d="M25.0003 22.5547C23.1253 22.5547 21.6064 24.0736 21.6064 25.9486C21.6064 27.8236 23.1253 29.3424 25.0003 29.3424C26.8753 29.3424 28.3942 27.8236 28.3942 25.9486C28.3942 24.0736 26.8753 22.5547 25.0003 22.5547Z" stroke="#242424" stroke-width="2" stroke-miterlimit="10"/>
<path d="M25 17.9512C29.4174 17.9512 33 14.3686 33 9.95117C33 5.53372 29.4174 1.95117 25 1.95117C20.5825 1.95117 17 5.53372 17 9.95117C17 14.3686 20.5825 17.9512 25 17.9512ZM25 6.55495C26.875 6.55495 28.3939 8.07381 28.3939 9.94881C28.3939 11.8238 26.875 13.3427 25 13.3427C23.125 13.3427 21.6061 11.8238 21.6061 9.94881C21.6061 8.07381 23.125 6.55495 25 6.55495Z" stroke="#242424" stroke-width="2" stroke-miterlimit="10"/>
<path d="M17 9.95117C17 5.53372 13.4174 1.95117 9 1.95117C4.58254 1.95117 1 5.53372 1 9.95117C1 14.3686 4.58254 17.9512 9 17.9512C13.4174 17.9512 17 14.3686 17 9.95117ZM9 13.345C7.125 13.345 5.60612 11.8262 5.60612 9.95117C5.60612 8.07617 7.125 6.5573 9 6.5573C10.875 6.5573 12.3939 8.07617 12.3939 9.95117C12.3939 11.8262 10.875 13.345 9 13.345Z" stroke="#242424" stroke-width="2" stroke-miterlimit="10"/>
<path d="M25.0003 13.3444C26.8753 13.3444 28.3942 11.8255 28.3942 9.95051C28.3942 8.07551 26.8753 6.55664 25.0003 6.55664C23.1253 6.55664 21.6064 8.07551 21.6064 9.95051C21.6064 11.8255 23.1253 13.3444 25.0003 13.3444Z" stroke="#242424" stroke-width="2" stroke-miterlimit="10"/>
</svg>
