<svg width="35" height="36" viewBox="0 0 35 36" fill="none" xmlns="http://www.w3.org/2000/svg">
<path d="M25.1961 9.96929C25.1748 9.96929 25.1536 9.96929 25.1324 9.96929C25.1324 9.94807 25.1324 9.92684 25.1324 9.90561C25.1442 5.48816 21.5711 1.89618 17.1512 1.88675C12.7338 1.87496 9.14181 5.44807 9.13238 9.86788C9.13238 9.88911 9.13238 9.91033 9.13238 9.93156C9.11115 9.93156 9.08993 9.93156 9.0687 9.93156C4.65125 9.91977 1.05927 13.4929 1.04983 17.9127C1.03804 22.3301 4.61115 25.9221 9.03096 25.9316C9.05219 25.9316 9.07342 25.9316 9.09464 25.9316C9.09464 25.9528 9.09464 25.974 9.09464 25.9952C9.08285 30.4127 12.656 34.0047 17.0758 34.0141C21.4932 34.0235 25.0852 30.4528 25.0946 26.033C25.0946 26.0117 25.0946 25.9905 25.0946 25.9693C25.1159 25.9693 25.1371 25.9693 25.1583 25.9693C29.5758 25.9811 33.1678 22.408 33.1772 17.9882C33.189 13.5707 29.6159 9.97873 25.1961 9.96929ZM17.1418 6.49288C19.0168 6.4976 20.5333 8.02118 20.5286 9.89618C20.5239 11.7712 19.0003 13.2877 17.1253 13.283C15.2503 13.2783 13.7338 11.7547 13.7385 9.87967C13.7432 8.00467 15.2668 6.48816 17.1418 6.49288ZM5.65832 17.9221C5.66304 16.0471 7.18662 14.5306 9.06162 14.5353C10.9366 14.54 12.4531 16.0636 12.4484 17.9386C12.4437 19.8136 10.9201 21.3301 9.04511 21.3254C7.17011 21.3207 5.65361 19.7971 5.65832 17.9221ZM17.0876 29.4056C15.2126 29.4009 13.6961 27.8773 13.7008 26.0023C13.7055 24.1273 15.2291 22.6108 17.1041 22.6155C18.9791 22.6202 20.4956 24.1438 20.4909 26.0188C20.4862 27.8938 18.9626 29.4103 17.0876 29.4056ZM25.1678 21.3632C23.2928 21.3584 21.7762 19.8349 21.781 17.9599C21.7857 16.0849 23.3093 14.5683 25.1843 14.5731C27.0593 14.5778 28.5758 16.1014 28.5711 17.9764C28.5663 19.8514 27.0428 21.3679 25.1678 21.3632Z" stroke="#242424" stroke-width="2"/>
<path d="M17 34C25.8365 34 33 26.8366 33 18C33 9.16344 25.8365 2 17 2C8.16344 2 1 9.16344 1 18C1 26.8366 8.16344 34 17 34Z" stroke="#242424" stroke-width="2" stroke-miterlimit="10" stroke-linecap="round"/>
</svg>
