<svg width="36" height="36" viewBox="0 0 36 36" fill="none" xmlns="http://www.w3.org/2000/svg">
<path d="M32.2314 24.1196C28.8918 20.78 28.8918 15.3672 32.2314 12.0276C34.472 9.78704 34.472 6.15496 32.2314 3.91675C29.9909 1.67619 26.3588 1.67619 24.1206 3.91675C20.7809 7.25638 15.3682 7.25638 12.0286 3.91675C9.78802 1.67619 6.15594 1.67619 3.91773 3.91675C1.67716 6.15732 1.67716 9.78939 3.91773 12.0276C7.25735 15.3672 7.25735 20.78 3.91773 24.1196C1.67716 26.3602 1.67716 29.9922 3.91773 32.2304C6.1583 34.471 9.79037 34.471 12.0286 32.2304C15.3682 28.8908 20.7809 28.8908 24.1206 32.2304C26.3611 34.471 29.9932 34.471 32.2314 32.2304C34.472 29.9899 34.472 26.3578 32.2314 24.1196Z" stroke="#242424" stroke-width="2.86825" stroke-miterlimit="10" stroke-linecap="round"/>
<path d="M28.1772 29.6664C27.9461 29.6664 27.5027 29.6098 27.123 29.2301L27.0923 29.1994C22.1112 24.2183 14.0381 24.2183 9.05693 29.1994L9.02627 29.2301C8.64655 29.6098 8.20316 29.6664 7.97203 29.6664C7.7409 29.6664 7.29748 29.6098 6.91776 29.2301C6.53804 28.8503 6.48145 28.407 6.48145 28.1758C6.48145 27.9447 6.53804 27.5013 6.91776 27.1216L6.94842 27.0909C11.9296 22.1098 11.9296 14.0367 6.94842 9.05554C6.37059 8.4777 6.32814 7.53431 6.89182 6.94469C7.27625 6.54138 7.73618 6.48242 7.97203 6.48242C8.20788 6.48242 8.64655 6.53903 9.02627 6.91874L9.05693 6.9494C14.0381 11.9305 22.1112 11.9305 27.0923 6.9494L27.123 6.91874C27.5027 6.53903 27.9461 6.48242 28.1772 6.48242C28.4083 6.48242 28.8706 6.54138 29.2574 6.94469C29.8211 7.53431 29.7786 8.48006 29.2008 9.05554C24.2196 14.0367 24.2196 22.1098 29.2008 27.0909C29.7786 27.6687 29.8187 28.6121 29.255 29.2041C28.8706 29.6074 28.4107 29.6664 28.1748 29.6664H28.1772Z" stroke="#242424" stroke-width="2.86825" stroke-miterlimit="10" stroke-linecap="round"/>
<path d="M26.1832 18.0724L32.2281 12.0276C34.4686 9.78704 34.4686 6.15496 32.2281 3.91675C29.9875 1.67619 26.3554 1.67619 24.1172 3.91675L18.0724 9.96156L12.0276 3.91675C9.78704 1.67619 6.15496 1.67619 3.91675 3.91675C1.67619 6.15732 1.67619 9.78939 3.91675 12.0276L9.96156 18.0724L3.91675 24.1172C1.67619 26.3578 1.67619 29.9899 3.91675 32.2281C6.15732 34.4686 9.7894 34.4686 12.0276 32.2281L18.0724 26.1833L24.1172 32.2281C26.3578 34.4686 29.9898 34.4686 32.2281 32.2281C34.4686 29.9875 34.4686 26.3554 32.2281 24.1172L26.1832 18.0724Z" stroke="#242424" stroke-width="2" stroke-miterlimit="10" stroke-linecap="round"/>
</svg>
