<svg width="34" height="34" viewBox="0 0 34 34" fill="none" xmlns="http://www.w3.org/2000/svg">
<path d="M26.3561 10.3585C24.6179 10.3585 23.0495 11.0401 21.8656 12.1321C22.9575 10.9481 23.6415 9.38208 23.6415 7.64151C23.6415 3.97406 20.6675 1 17 1C13.3325 1 10.3561 3.97406 10.3561 7.64151C10.3561 9.38208 11.0377 10.9481 12.1321 12.1321C10.9481 11.0401 9.37972 10.3585 7.64151 10.3585C3.97406 10.3585 1 13.3325 1 17C1 20.6675 3.97406 23.6415 7.64151 23.6415C9.37972 23.6415 10.9481 22.9599 12.1321 21.8679C11.0401 23.0519 10.3561 24.6203 10.3561 26.3585C10.3561 30.0259 13.3302 33 17 33C20.6698 33 23.6415 30.0259 23.6415 26.3585C23.6415 24.6203 22.9575 23.0519 21.8656 21.8679C23.0495 22.9599 24.6179 23.6415 26.3561 23.6415C30.0236 23.6415 33 20.6698 33 17C33 13.3302 30.0259 10.3585 26.3561 10.3585Z" stroke="#242424" stroke-width="2"/>
<path d="M31.2304 23.1196C27.8908 19.78 27.8908 14.3672 31.2304 11.0276C33.471 8.78704 33.471 5.15496 31.2304 2.91675C28.9899 0.676187 25.3578 0.676187 23.1196 2.91675C19.78 6.25638 14.3672 6.25638 11.0276 2.91675C8.78704 0.676187 5.15496 0.676187 2.91675 2.91675C0.676187 5.15732 0.676187 8.78939 2.91675 11.0276C6.25638 14.3672 6.25638 19.78 2.91675 23.1196C0.676187 25.3601 0.676187 28.9922 2.91675 31.2304C5.15732 33.471 8.7894 33.471 11.0276 31.2304C14.3672 27.8908 19.78 27.8908 23.1196 31.2304C25.3602 33.471 28.9922 33.471 31.2304 31.2304C33.471 28.9899 33.471 25.3578 31.2304 23.1196Z" stroke="#242424" stroke-width="2"/>
</svg>
