<svg width="34" height="34" viewBox="0 0 34 34" fill="none" xmlns="http://www.w3.org/2000/svg">
<path d="M32.998 1H0.998047V33H32.998V1Z" stroke="#242424" stroke-width="2" stroke-miterlimit="10" stroke-linecap="round"/>
<path d="M16.9987 28.3157C23.2483 28.3157 28.3147 23.2493 28.3147 16.9996C28.3147 10.75 23.2483 5.68359 16.9987 5.68359C10.749 5.68359 5.68262 10.75 5.68262 16.9996C5.68262 23.2493 10.749 28.3157 16.9987 28.3157Z" stroke="#242424" stroke-width="2" stroke-miterlimit="10" stroke-linecap="round"/>
<path d="M16.9982 24.0356C20.8838 24.0356 24.0336 20.8858 24.0336 17.0002C24.0336 13.1147 20.8838 9.96484 16.9982 9.96484C13.1127 9.96484 9.96289 13.1147 9.96289 17.0002C9.96289 20.8858 13.1127 24.0356 16.9982 24.0356Z" stroke="#242424" stroke-width="2" stroke-miterlimit="10" stroke-linecap="round"/>
<path d="M32.998 1H0.998047V33H32.998V1Z" stroke="#242424" stroke-width="2" stroke-miterlimit="10" stroke-linecap="round"/>
<path d="M16.9987 28.3157C23.2483 28.3157 28.3147 23.2493 28.3147 16.9996C28.3147 10.75 23.2483 5.68359 16.9987 5.68359C10.749 5.68359 5.68262 10.75 5.68262 16.9996C5.68262 23.2493 10.749 28.3157 16.9987 28.3157Z" stroke="#242424" stroke-width="2" stroke-miterlimit="10" stroke-linecap="round"/>
<path d="M16.9982 24.0356C20.8838 24.0356 24.0336 20.8858 24.0336 17.0002C24.0336 13.1147 20.8838 9.96484 16.9982 9.96484C13.1127 9.96484 9.96289 13.1147 9.96289 17.0002C9.96289 20.8858 13.1127 24.0356 16.9982 24.0356Z" stroke="#242424" stroke-width="2" stroke-miterlimit="10" stroke-linecap="round"/>
</svg>
