<svg width="35" height="35" viewBox="0 0 35 35" fill="none" xmlns="http://www.w3.org/2000/svg">
<path d="M1.99902 17.9727H33.9424" stroke="#242424" stroke-width="2" stroke-miterlimit="10" stroke-linecap="round"/>
<path d="M17.9707 33.9434V2" stroke="#242424" stroke-width="2" stroke-miterlimit="10" stroke-linecap="round"/>
<path d="M21.4297 17.9746H14.5477C14.5477 24.8968 8.9368 30.51 2.01227 30.51C2.00283 30.51 1.99576 30.51 1.98633 30.51V33.977H33.9863V30.5123C33.9863 30.5123 33.9722 30.5123 33.9651 30.5123C27.0429 30.5123 21.4297 24.9015 21.4297 17.977V17.9746Z" stroke="#242424" stroke-width="2" stroke-linejoin="round"/>
<path d="M21.4297 1.97461H14.5477C14.5477 8.89678 8.9368 14.51 2.01227 14.51C2.00283 14.51 1.99576 14.51 1.98633 14.51V17.977H33.9863V14.5123C33.9863 14.5123 33.9722 14.5123 33.9651 14.5123C27.0429 14.5123 21.4297 8.9015 21.4297 1.97697V1.97461Z" stroke="#242424" stroke-width="2" stroke-linejoin="round"/>
</svg>
