<svg width="34" height="34" viewBox="0 0 34 34" fill="none" xmlns="http://www.w3.org/2000/svg">
<path d="M16.999 33C25.8356 33 32.9991 25.8366 32.9991 17C32.9991 8.16345 25.8356 1 16.999 1C8.16249 1 0.999023 8.16345 0.999023 17C0.999023 25.8366 8.16249 33 16.999 33Z" stroke="#242424" stroke-width="2" stroke-miterlimit="10" stroke-linecap="round"/>
<path d="M16.9995 26.0831C22.0157 26.0831 26.0821 22.0167 26.0821 17.0005C26.0821 11.9844 22.0157 7.91797 16.9995 7.91797C11.9834 7.91797 7.91699 11.9844 7.91699 17.0005C7.91699 22.0167 11.9834 26.0831 16.9995 26.0831Z" stroke="#242424" stroke-width="2" stroke-miterlimit="10" stroke-linecap="round"/>
<path d="M1.01367 17H32.9571" stroke="#242424" stroke-width="2" stroke-miterlimit="10" stroke-linecap="round"/>
<path d="M16.9854 32.9707V1.02734" stroke="#242424" stroke-width="2" stroke-miterlimit="10" stroke-linecap="round"/>
<path d="M25.1832 17.0724L31.2281 11.0276C33.4686 8.78704 33.4686 5.15496 31.2281 2.91675C28.9875 0.676187 25.3554 0.676187 23.1172 2.91675L17.0724 8.96156L11.0276 2.91675C8.78704 0.676187 5.15496 0.676187 2.91675 2.91675C0.676187 5.15732 0.676187 8.78939 2.91675 11.0276L8.96156 17.0724L2.91675 23.1172C0.676187 25.3578 0.676187 28.9899 2.91675 31.2281C5.15732 33.4686 8.7894 33.4686 11.0276 31.2281L17.0724 25.1833L23.1172 31.2281C25.3578 33.4686 28.9898 33.4686 31.2281 31.2281C33.4686 28.9875 33.4686 25.3554 31.2281 23.1172L25.1832 17.0724Z" stroke="#242424" stroke-width="2" stroke-miterlimit="10" stroke-linecap="round"/>
</svg>
