<svg width="34" height="34" viewBox="0 0 34 34" fill="none" xmlns="http://www.w3.org/2000/svg">
<path d="M5.7168 5.7168L28.3041 28.3041" stroke="#242424" stroke-width="2" stroke-miterlimit="10" stroke-linecap="round"/>
<path d="M5.7168 28.3041L28.3041 5.7168" stroke="#242424" stroke-width="2" stroke-miterlimit="10" stroke-linecap="round"/>
<path d="M0.999023 16.9727H32.9424" stroke="#242424" stroke-width="2" stroke-miterlimit="10" stroke-linecap="round"/>
<path d="M16.9707 32.9434V1" stroke="#242424" stroke-width="2" stroke-miterlimit="10" stroke-linecap="round"/>
<path d="M31.2314 23.1196C27.8918 19.78 27.8918 14.3672 31.2314 11.0276C33.472 8.78704 33.472 5.15496 31.2314 2.91675C28.9909 0.676187 25.3588 0.676187 23.1206 2.91675C19.7809 6.25638 14.3682 6.25638 11.0286 2.91675C8.78802 0.676187 5.15594 0.676187 2.91773 2.91675C0.677163 5.15732 0.677163 8.78939 2.91773 11.0276C6.25735 14.3672 6.25735 19.78 2.91773 23.1196C0.677163 25.3602 0.677163 28.9922 2.91773 31.2304C5.1583 33.471 8.79037 33.471 11.0286 31.2304C14.3682 27.8908 19.7809 27.8908 23.1206 31.2304C25.3611 33.471 28.9932 33.471 31.2314 31.2304C33.472 28.9899 33.472 25.3578 31.2314 23.1196Z" stroke="#242424" stroke-width="2" stroke-miterlimit="10" stroke-linecap="round"/>
<path d="M27.1772 28.6664C26.9461 28.6664 26.5027 28.6098 26.123 28.2301L26.0923 28.1994C21.1112 23.2183 13.0381 23.2183 8.05693 28.1994L8.02627 28.2301C7.64655 28.6098 7.20316 28.6664 6.97203 28.6664C6.7409 28.6664 6.29748 28.6098 5.91776 28.2301C5.53804 27.8503 5.48145 27.407 5.48145 27.1758C5.48145 26.9447 5.53804 26.5013 5.91776 26.1216L5.94842 26.0909C10.9296 21.1098 10.9296 13.0367 5.94842 8.05554C5.37059 7.4777 5.32814 6.53431 5.89182 5.94469C6.27625 5.54138 6.73618 5.48242 6.97203 5.48242C7.20788 5.48242 7.64655 5.53903 8.02627 5.91874L8.05693 5.9494C13.0381 10.9305 21.1112 10.9305 26.0923 5.9494L26.123 5.91874C26.5027 5.53903 26.9461 5.48242 27.1772 5.48242C27.4083 5.48242 27.8706 5.54138 28.2574 5.94469C28.8211 6.53431 28.7786 7.48006 28.2008 8.05554C23.2196 13.0367 23.2196 21.1098 28.2008 26.0909C28.7786 26.6687 28.8187 27.6121 28.255 28.2041C27.8706 28.6074 27.4107 28.6664 27.1748 28.6664H27.1772Z" stroke="#242424" stroke-width="2" stroke-miterlimit="10" stroke-linecap="round"/>
</svg>
