<?xml version="1.0" encoding="UTF-8" standalone="no"?>
<!-- Created with Inkscape (http://www.inkscape.org/) -->

<svg
   xmlns:dc="http://purl.org/dc/elements/1.1/"
   xmlns:cc="http://creativecommons.org/ns#"
   xmlns:rdf="http://www.w3.org/1999/02/22-rdf-syntax-ns#"
   xmlns:svg="http://www.w3.org/2000/svg"
   xmlns="http://www.w3.org/2000/svg"
   xmlns:sodipodi="http://sodipodi.sourceforge.net/DTD/sodipodi-0.dtd"
   xmlns:inkscape="http://www.inkscape.org/namespaces/inkscape"
   width="210mm"
   height="297mm"
   viewBox="0 0 744.09448819 1052.3622047"
   id="svg2"
   version="1.1"
   inkscape:version="0.91 r13725"
   sodipodi:docname="polyphemus.svg">
  <defs
     id="defs4" />
  <sodipodi:namedview
     id="base"
     pagecolor="#ffffff"
     bordercolor="#666666"
     borderopacity="1.0"
     inkscape:pageopacity="0.0"
     inkscape:pageshadow="2"
     inkscape:zoom="1.9420805"
     inkscape:cx="414.44903"
     inkscape:cy="583.42534"
     inkscape:document-units="px"
     inkscape:current-layer="layer1"
     showgrid="false"
     inkscape:window-width="1920"
     inkscape:window-height="1013"
     inkscape:window-x="0"
     inkscape:window-y="0"
     inkscape:window-maximized="1" />
  <metadata
     id="metadata7">
    <rdf:RDF>
      <cc:Work
         rdf:about="">
        <dc:format>image/svg+xml</dc:format>
        <dc:type
           rdf:resource="http://purl.org/dc/dcmitype/StillImage" />
      </cc:Work>
    </rdf:RDF>
  </metadata>
  <g
     inkscape:label="Layer 1"
     inkscape:groupmode="layer"
     id="layer1">
    <g
       id="g4153">
      <circle
         r="119.56118"
         cy="427.30823"
         cx="408.1622"
         id="path3640"
         style="opacity:1;fill:#ccffaa;fill-opacity:0.70588235;stroke:none;stroke-width:10;stroke-linecap:butt;stroke-linejoin:round;stroke-miterlimit:4;stroke-dasharray:none;stroke-dashoffset:0;stroke-opacity:1" />
      <path
         sodipodi:nodetypes="cssssssssssscscscsscsssscc"
         inkscape:connector-curvature="0"
         d="m 311.09243,498.40036 c 0,0 2.20563,-2.2768 11.22645,-5.42147 3.53029,-1.23067 3.94958,-2.42179 9.35547,-1.66992 5.40588,0.75186 6.01518,-0.67969 10.375,-0.67969 0.89375,0 1.625,-1.00063 1.625,-2.22266 0,-1.22203 0.84389,-3.42632 1.875,-4.89843 1.03111,-1.47211 1.54073,-3.54636 1.13281,-4.60938 -0.40792,-1.06302 0.12961,-6.0306 1.19336,-11.03906 1.06374,-5.00846 2.54713,-13.7207 3.29687,-19.35937 0.74975,-5.63874 2.11015,-12.66998 3.02344,-15.625 0.91329,-2.95507 2.64525,-8.7461 3.84961,-12.8711 6.3452,-21.7326 19.04262,-38.73861 27.03125,-36.20312 1.5779,0.5008 3.42233,-0.009 4.91211,-1.35743 3.52596,-3.19095 24.11862,-2.03182 30.46875,1.71485 2.45977,1.4513 5.26168,2.33628 6.22461,1.9668 4.76385,-1.82808 21.28547,12.42134 26.23828,22.6289 4.94989,10.20155 8.80796,23.00314 8.02344,26.62305 -0.10438,0.4816 0.15972,2.8457 0.58789,5.25195 0.42816,2.40625 1.00673,8.39774 1.28515,13.31445 0.48984,8.65034 0.37626,8.90883 -0.1473,11.95873 -0.52357,3.0499 2.32899,5.21378 2.97934,7.80495 0.53606,2.13587 2.73746,3.43974 9.59375,5.6875 4.89339,1.60424 12.46605,5.00175 16.82812,7.55078 7.93104,4.63464 7.93154,4.63528 9.33203,6.71679 1.4005,2.08152 1.39996,2.08204 4.14207,0.84744 -16.94859,45.54274 -136.494,86.24103 -194.4525,3.89044 z"
         style="fill:#6f9c00;fill-opacity:1"
         id="path4149" />
      <path
         id="path3697"
         style="fill:#fff6d5"
         d="m 406.98294,401.91639 c 3.77285,0.13956 8.05957,0.68469 9.98633,1.52539 5.50709,2.4029 16.70617,13.42407 16.70117,16.43555 -0.003,1.44447 -1.12009,4.45508 -2.48242,6.68945 -2.65119,4.34828 -2.99632,4.43281 -10.63867,2.63281 -6.2738,-1.47766 -9.85129,-1.94261 -23.125,-3.0039 -12.60599,-1.0079 -16.25,-2.83496 -16.25,-8.14844 0,-4.04303 1.90997,-6.51846 8.59179,-11.14063 3.81588,-2.63963 4.32676,-2.72073 7.2556,-3.79226 2.92884,-1.07153 6.18835,-1.33753 9.9612,-1.19797 z"
         inkscape:connector-curvature="0"
         sodipodi:nodetypes="sscssssscs" />
      <path
         sodipodi:nodetypes="sscssssscssssssssssssss"
         inkscape:connector-curvature="0"
         d="m 406.98294,401.91639 c 3.77285,0.13956 8.05957,0.68469 9.98633,1.52539 5.50709,2.4029 16.70617,13.42407 16.70117,16.43555 -0.003,1.44447 -1.12009,4.45508 -2.48242,6.68945 -2.65119,4.34828 -2.99632,4.43281 -10.63867,2.63281 -6.2738,-1.47766 -9.85129,-1.94261 -23.125,-3.0039 -12.60599,-1.0079 -16.25,-2.83496 -16.25,-8.14844 0,-4.04303 1.90997,-6.51846 8.59179,-11.14063 3.81588,-2.63963 4.32676,-2.72073 7.2556,-3.79226 2.92884,-1.07153 6.18835,-1.33753 9.9612,-1.19797 z m 1.08594,8.71289 c -4.79306,0 -7.8111,5.72431 -5.4375,10.3125 1.73538,3.3545 4.32309,2.61946 7.20703,-2.04687 3.02506,-4.89463 2.30279,-8.26563 -1.76953,-8.26563 z m -1.93164,-13.78906 c -11.87518,0.54233 -24.51128,6.46153 -28.0293,15.2539 -5.3162,13.28652 -1.04462,17.13103 20.70898,18.64258 8.21105,0.57055 15.53195,1.41134 16.26954,1.86719 0.73758,0.45585 4.23752,1.22141 7.77734,1.70117 6.8895,0.93375 8.50182,0.0606 13.66797,-7.39258 5.0935,-7.34837 0.32098,-16.40248 -13.7793,-26.13867 -3.18796,-2.20127 -7.23727,-3.4319 -11.60156,-3.83008 -1.63661,-0.14931 -3.31722,-0.18099 -5.01367,-0.10351 z"
         style="fill:#000000"
         id="path3633" />
      <path
         sodipodi:nodetypes="cscssssssssssscsssssssssssssssssc"
         inkscape:connector-curvature="0"
         id="path3631"
         d="m 450.06847,464.58168 c -0.085,-2.39423 -0.14412,-3.00869 -0.14412,-4.04029 0,-1.21445 -0.29877,-2.98751 -0.66407,-3.93945 -0.50664,-1.32035 0.35356,-1.61262 3.62696,-1.23047 6.3838,0.74528 7.73783,-6.38362 2.37304,-12.49805 -1.46114,-1.6653 -1.58737,-2.94105 -0.57617,-5.8418 1.01487,-2.9112 0.91758,-3.85635 -0.44922,-4.38085 -1.80488,-0.69259 -5.56054,3.5976 -5.56054,6.35156 0,0.86244 -1.40625,2.48906 -3.125,3.61523 -1.71875,1.12616 -3.125,2.87994 -3.125,3.89649 0,1.01654 -1.10676,2.13856 -2.45899,2.49218 -1.35224,0.35361 -2.79206,1.69178 -3.19922,2.97461 -1.25704,3.96058 -6.29619,5.77645 -12.59961,8.95508 -6.30342,3.17864 -41.84227,2.16516 -43.24023,-1.01172 -1.39796,-3.17682 -9.66996,-10.16787 -10.03458,-13.43276 -0.36462,-3.26488 -2.05352,-5.39341 -3.37948,-7.11216 -3.61681,-4.68822 -6.23692,-1.72793 -3.49024,3.94336 1.73499,3.58235 1.75811,4.58084 0.1875,8.33984 -0.98145,2.34894 -1.78515,5.59706 -1.78515,7.21875 0,3.25212 -0.19285,4.01498 0.48828,5.84961 0.54638,1.4717 -0.0729,1.18046 2.76562,3.8125 4.68601,4.34511 5.72499,4.22969 12.05469,-1.35156 2.92385,-2.57812 4.50398,-3.65518 5.21289,-2.26758 0.70891,1.38761 1.07867,2.35137 1.38672,8.60157 0.7516,15.24956 12.73627,16.01302 18.31641,1.16601 0.83978,-2.23437 1.93066,-4.0625 2.42382,-4.0625 0.49317,0 1.76359,-0.33397 2.82227,-0.74023 1.36325,-0.52312 2.18103,0.29749 2.80078,2.8125 3.25378,13.20419 11.08625,14.39909 17.83008,2.71875 3.36795,-5.8333 3.36852,-5.8333 6.29492,-1.5625 1.60953,2.34894 3.90111,4.27148 5.09375,4.27148 2.72127,0 8.59013,-5.76509 9.48047,-9.3125 0.31352,-1.24914 0.75846,-1.84087 0.67342,-4.2351 z"
         style="fill:#000000" />
      <path
         style="fill:#ffffff"
         d="m 450.29153,444.81678 c 0.22657,-0.0814 0.53907,-0.0249 0.88282,0.1875 0.6875,0.4249 1.25,1.86284 1.25,3.19727 0,1.3951 -0.85277,2.42773 -2.00782,2.42773 -1.3181,0 -1.74788,-0.68102 -1.25,-1.97851 0.41731,-1.08747 0.75782,-2.52738 0.75782,-3.19922 0,-0.33593 0.14062,-0.55339 0.36718,-0.63477 z m -80.99218,9.63867 c 2.38699,0.43081 7.4051,5.59 7.06445,6.92578 -1.30052,5.09967 -8.41701,5.627 -9.75363,2.84479 -1.03188,-2.1479 0.90295,-10.09295 2.68918,-9.77057 z m 74.05468,0.74219 c 1.01784,0.43931 1.5302,2.09973 1.55078,4.98633 0.0158,2.21939 1.18048,11.12817 -4.36718,11.75781 -6.17835,-1.76942 -6.8779,-9.37815 -1.75977,-14.40234 2.03622,-1.99885 3.55834,-2.78111 4.57617,-2.3418 z m -22.2832,12.03516 c 6.04556,-0.81087 6.95918,1.95003 2.51367,7.60156 -3.52161,4.477 -5.68737,4.13889 -7.4375,-1.16406 -1.76191,-5.33864 -1.59155,-5.5636 4.92383,-6.4375 z m -31.50976,0.70312 c 0.29581,-0.0891 0.69079,-0.0457 1.21679,0.10547 0.70134,0.20161 1.54495,0.93364 2.88477,1.11719 6.47849,0.88751 8.2842,0.99652 3.44617,7.89807 -4.39581,6.27072 -8.88957,4.7025 -8.43445,-4.04456 0.17387,-3.3417 -7.8e-4,-4.80891 0.88672,-5.07617 z"
         id="path3693"
         inkscape:connector-curvature="0"
         sodipodi:nodetypes="ccsscscsssssscssssssccsssc" />
      <path
         id="path3695"
         style="fill:#000000"
         d="m 409.48489,332.03748 c -1.2067,0.003 -2.18209,0.99164 -3.08203,2.9668 -0.78312,1.71875 -1.99893,3.125 -2.70117,3.125 -0.70224,0 -1.27734,0.65765 -1.27734,1.46289 0,0.80525 -0.80099,2.35212 -1.7793,3.4375 -2.61845,2.90501 -14.44639,26.63498 -14.45898,29.00781 -0.0172,3.24997 -2.70195,4.23456 -6.42969,6.59766 -3.72774,2.3631 -4.84951,3.74582 -8.01172,6.8457 -3.23855,3.17472 -6.97648,8.30469 -8.30664,11.39844 -1.33016,3.09375 -3.2619,7.3125 -4.29297,9.375 -1.84701,3.69466 -6.59034,16.9679 -7.37109,20.625 -0.22016,1.03125 -1.32008,5.25 -2.44336,9.375 -1.12329,4.125 -2.37378,11.57813 -2.7793,16.5625 -0.70721,8.69261 -0.87091,9.06707 -1.83399,11.45117 -0.96307,2.3841 -4.67454,17.55344 -5.93164,19.90235 -1.08096,2.01979 -2.45704,2.6649 -5.23632,2.45312 -3.067,-0.25377 -5.51425,-1.65377 -7.92383,-0.30078 -2.40958,1.353 -4.82617,2.65952 -7.57617,4.07813 -10.28274,5.30446 -10.2733,3.63074 -6.95692,7.99959 0,0 2.20563,-2.2768 11.22645,-5.42147 3.53029,-1.23067 3.94958,-2.42179 9.35547,-1.66992 5.40588,0.75186 6.01518,-0.67969 10.375,-0.67969 0.89375,0 1.625,-1.00063 1.625,-2.22266 0,-1.22203 0.84389,-3.42632 1.875,-4.89843 1.03111,-1.47211 1.54073,-3.54636 1.13281,-4.60938 -0.40792,-1.06302 0.12961,-6.0306 1.19336,-11.03906 1.06374,-5.00846 2.54713,-13.7207 3.29687,-19.35937 0.74975,-5.63874 2.11015,-12.66998 3.02344,-15.625 0.91329,-2.95507 2.64525,-8.7461 3.84961,-12.8711 6.3452,-21.7326 19.04262,-38.73861 27.03125,-36.20312 1.5779,0.5008 3.42233,-0.009 4.91211,-1.35743 3.52596,-3.19095 24.11862,-2.03182 30.46875,1.71485 2.45977,1.4513 5.26168,2.33628 6.22461,1.9668 4.76385,-1.82808 21.28547,12.42134 26.23828,22.6289 4.94989,10.20155 8.80796,23.00314 8.02344,26.62305 -0.10438,0.4816 0.15972,2.8457 0.58789,5.25195 0.42816,2.40625 1.00673,8.39774 1.28515,13.31445 0.48984,8.65034 0.37626,8.90883 -0.1473,11.95873 -0.52357,3.0499 2.32899,5.21378 2.97934,7.80495 0.53606,2.13587 2.73746,3.43974 9.59375,5.6875 4.89339,1.60424 12.46605,5.00175 16.82812,7.55078 7.93104,4.63464 7.93154,4.63528 9.33203,6.71679 1.4005,2.08152 1.39996,2.08204 4.14207,0.84744 2.7421,-1.2346 2.40623,-2.12376 -0.16941,-4.17947 -2.57563,-2.0557 -3.87105,-2.17223 -5.45117,-4.07617 -0.85586,-1.03125 -2.18966,-1.89104 -2.96485,-1.91016 -0.7752,-0.0191 -3.61971,-1.70663 -6.32031,-3.75 -2.7006,-2.04336 -6.18258,-3.71484 -7.73828,-3.71484 -1.55571,0 -3.17666,-0.5625 -3.60156,-1.25 -0.4249,-0.6875 -1.82405,-1.25 -3.10938,-1.25 -2.81032,0 -6.26562,-3.20514 -6.26562,-5.81055 0,-0.8134 0.76126,-1.2629 -0.98633,-3.67968 -1.74759,-2.41677 -1.06427,-6.01815 -2.04883,-19.25977 -1.25196,-16.8382 -4.71788,-32.01302 -6.99219,-30.60742 -0.54359,0.33596 -0.73103,-0.37543 -0.41601,-1.58008 1.40634,-5.37786 -17.1619,-26.70298 -27.05664,-31.07422 -1.48915,-0.65788 -0.39613,-0.97364 -2.04297,-3.18554 -1.64683,-2.21189 -2.46881,-3.10104 -2.49024,-5.32227 -0.11569,-11.97326 -7.12681,-31.53013 -13.93554,-38.87305 -1.826,-1.96925 -3.26401,-2.95214 -4.47071,-2.94922 z m 0.94532,7.70899 c 1.46719,0.48071 6.99414,8.13345 6.99414,9.68359 0,1.31258 -3.33784,2.44341 -4.31836,1.46289 -0.44761,-0.44761 -1.76906,-0.87627 -2.93555,-0.95117 -8.56832,-0.55038 -8.14336,-0.0154 -4.44531,-5.60351 1.83442,-2.77199 3.95162,-4.83867 4.70508,-4.5918 z m -0.76368,15.01367 c 4.39424,0.21171 9.0071,1.56877 9.26563,3.09375 0.25854,1.52498 1.36715,3.30257 2.125,5.47656 1.65353,4.7433 1.44863,5.11317 -1.60156,2.88282 -1.38578,-1.01327 -3.79095,-1.41994 -5.90039,-0.99805 -1.95875,0.39174 -7.19135,0.32267 -11.62696,-0.15234 -8.06475,-0.86366 -8.06376,-0.86278 -5.53515,-5.14844 1.39072,-2.35712 3.45657,-4.32826 4.59179,-4.38086 1.13522,-0.0526 3.18748,-0.30558 4.5586,-0.56055 1.21789,-0.22648 2.6583,-0.28346 4.12304,-0.21289 z m -4.74218,15.2793 c 14.37885,0.29051 15.26394,0.40199 16.10937,1.09179 0.84544,0.6898 1.39063,1.25971 1.39063,3.25391 0,2.6803 -0.30861,2.74892 -9.0625,2.02344 -4.98438,-0.41308 -11.3125,-0.91136 -14.0625,-1.10938 -2.75,-0.19801 -5.98438,0.0947 -7.1875,0.65235 -1.69218,0.7844 -2.1875,0.44953 -2.1875,-1.48438 0,-3.71478 3.22059,-4.66572 15,-4.42773 z"
         inkscape:connector-curvature="0"
         sodipodi:nodetypes="csssscssssssssscsssssssssssssscscscsscsssscsscssssssssssscscssscssssscssssssssssscss" />
      <path
         sodipodi:nodetypes="ssscssssscssssssssssscss"
         inkscape:connector-curvature="0"
         d="m 410.43021,339.74647 c 1.46719,0.48071 6.99414,8.13345 6.99414,9.68359 0,1.31258 -3.33784,2.44341 -4.31836,1.46289 -0.44761,-0.44761 -1.76906,-0.87627 -2.93555,-0.95117 -8.56832,-0.55038 -8.14336,-0.0154 -4.44531,-5.60351 1.83442,-2.77199 3.95162,-4.83867 4.70508,-4.5918 z m -0.76368,15.01367 c 4.39424,0.21171 9.0071,1.56877 9.26563,3.09375 0.25854,1.52498 1.36715,3.30257 2.125,5.47656 1.65353,4.7433 1.44863,5.11317 -1.60156,2.88282 -1.38578,-1.01327 -3.79095,-1.41994 -5.90039,-0.99805 -1.95875,0.39174 -7.19135,0.32267 -11.62696,-0.15234 -8.06475,-0.86366 -8.06376,-0.86278 -5.53515,-5.14844 1.39072,-2.35712 3.45657,-4.32826 4.59179,-4.38086 1.13522,-0.0526 3.18748,-0.30558 4.5586,-0.56055 1.21789,-0.22648 2.6583,-0.28346 4.12304,-0.21289 z m -4.74218,15.2793 c 14.37885,0.29051 15.26394,0.40199 16.10937,1.09179 0.84544,0.6898 1.39063,1.25971 1.39063,3.25391 0,2.6803 -0.30861,2.74892 -9.0625,2.02344 -4.98438,-0.41308 -11.3125,-0.91136 -14.0625,-1.10938 -2.75,-0.19801 -5.98438,0.0947 -7.1875,0.65235 -1.69218,0.7844 -2.1875,0.44953 -2.1875,-1.48438 0,-3.71478 3.22059,-4.66572 15,-4.42773 z"
         style="fill:#deaa87"
         id="path4499" />
      <circle
         style="opacity:1;fill:none;fill-opacity:0.70588235;stroke:#000000;stroke-width:10;stroke-linecap:butt;stroke-linejoin:round;stroke-miterlimit:4;stroke-dasharray:none;stroke-dashoffset:0;stroke-opacity:1"
         id="circle4151"
         cx="408.1622"
         cy="427.30823"
         r="119.56118" />
    </g>
  </g>
</svg>
