<svg width="90" height="90" viewBox="0 0 90 90" fill="none" xmlns="http://www.w3.org/2000/svg">
<path d="M87.998 2H1.99805V88H87.998V2Z" stroke="#242424" stroke-width="3.82" stroke-miterlimit="10" stroke-linecap="round"/>
<path d="M44.9968 75.4116C61.7928 75.4116 75.4088 61.7958 75.4088 44.9998C75.4088 28.2037 61.7928 14.5879 44.9968 14.5879C28.2008 14.5879 14.585 28.2037 14.585 44.9998C14.585 61.7958 28.2008 75.4116 44.9968 75.4116Z" stroke="#242424" stroke-width="3.82" stroke-miterlimit="10" stroke-linecap="round"/>
<path d="M44.9973 63.907C55.4397 63.907 63.9049 55.4418 63.9049 44.9994C63.9049 34.557 55.4397 26.0918 44.9973 26.0918C34.555 26.0918 26.0898 34.557 26.0898 44.9994C26.0898 55.4418 34.555 63.907 44.9973 63.907Z" stroke="#242424" stroke-width="3.82" stroke-miterlimit="10" stroke-linecap="round"/>
<path d="M72.3493 76.3499C71.7282 76.3499 70.5366 76.1978 69.5161 75.1773L69.4337 75.0949C56.0469 61.7081 34.3504 61.7081 20.9636 75.0949L20.8812 75.1773C19.8607 76.1978 18.6691 76.3499 18.0479 76.3499C17.4268 76.3499 16.2352 76.1978 15.2147 75.1773C14.1942 74.1568 14.042 72.9652 14.042 72.344C14.042 71.7228 14.1942 70.5312 15.2147 69.5107L15.2971 69.4283C28.6839 56.0415 28.6839 34.345 15.2971 20.9582C13.7442 19.4053 13.63 16.8699 15.1449 15.2853C16.178 14.2014 17.4141 14.043 18.0479 14.043C18.6818 14.043 19.8607 14.1951 20.8812 15.2156L20.9636 15.298C34.3504 28.6848 56.0469 28.6848 69.4337 15.298L69.5161 15.2156C70.5366 14.1951 71.7282 14.043 72.3493 14.043C72.9705 14.043 74.2129 14.2014 75.2524 15.2853C76.7673 16.8699 76.6532 19.4116 75.1003 20.9582C61.7135 34.345 61.7135 56.0415 75.1003 69.4283C76.6532 70.9812 76.7609 73.5166 75.246 75.1075C74.2129 76.1914 72.9769 76.3499 72.3431 76.3499H72.3493Z" stroke="#242424" stroke-width="3.82" stroke-miterlimit="10" stroke-linecap="round"/>
</svg>
