<svg width="91" height="91" viewBox="0 0 91 91" fill="none" xmlns="http://www.w3.org/2000/svg">
<path d="M2 45.9238H87.8478" stroke="#242424" stroke-width="3.82" stroke-miterlimit="10" stroke-linecap="round"/>
<path d="M44.9229 88.8479V3" stroke="#242424" stroke-width="3.82" stroke-miterlimit="10" stroke-linecap="round"/>
<path d="M67.0259 24.4172C66.9688 24.4172 66.9118 24.4172 66.8547 24.4172C66.8547 24.3602 66.8547 24.3031 66.8547 24.2461C66.8864 12.3742 57.2837 2.72074 45.4054 2.69539C33.5335 2.6637 23.8801 12.2664 23.8547 24.1447C23.8547 24.2017 23.8547 24.2588 23.8547 24.3158C23.7977 24.3158 23.7406 24.3158 23.6836 24.3158C11.8117 24.2841 2.15824 33.8869 2.13289 45.7651C2.1012 57.637 11.7039 67.2905 23.5822 67.3158C23.6392 67.3158 23.6963 67.3158 23.7533 67.3158C23.7533 67.3729 23.7533 67.4299 23.7533 67.487C23.7216 79.3589 33.3244 89.0123 45.2026 89.0377C57.0745 89.063 66.728 79.4666 66.7533 67.5884C66.7533 67.5313 66.7533 67.4743 66.7533 67.4172C66.8104 67.4172 66.8674 67.4172 66.9245 67.4172C78.7964 67.4489 88.4498 57.8462 88.4752 45.9679C88.5069 34.096 78.9041 24.4426 67.0259 24.4172ZM45.3801 15.0744C50.4192 15.087 54.4948 19.1817 54.4821 24.2207C54.4694 29.2598 50.3748 33.3354 45.3357 33.3227C40.2967 33.3101 36.221 29.2154 36.2337 24.1764C36.2464 19.1373 40.341 15.0617 45.3801 15.0744ZM14.5182 45.7905C14.5309 40.7514 18.6255 36.6758 23.6646 36.6885C28.7036 36.7011 32.7793 40.7958 32.7666 45.8348C32.7539 50.8739 28.6593 54.9495 23.6202 54.9368C18.5811 54.9242 14.5055 50.8295 14.5182 45.7905ZM45.2343 76.6524C40.1952 76.6397 36.1196 72.545 36.1323 67.506C36.145 62.4669 40.2396 58.3913 45.2787 58.404C50.3177 58.4167 54.3934 62.5113 54.3807 67.5503C54.368 72.5894 50.2734 76.665 45.2343 76.6524ZM66.9498 55.0383C61.9107 55.0256 57.8351 50.9309 57.8478 45.8919C57.8605 40.8528 61.9551 36.7772 66.9942 36.7899C72.0332 36.8026 76.1089 40.8972 76.0962 45.9363C76.0835 50.9753 71.9889 55.0509 66.9498 55.0383Z" stroke="#242424" stroke-width="3.82"/>
</svg>
