<svg width="90" height="91" viewBox="0 0 90 91" fill="none" xmlns="http://www.w3.org/2000/svg">
<path d="M66.9911 46.1923L83.2366 29.9469C89.2581 23.9253 89.2581 14.1641 83.2366 8.14895C77.215 2.12743 67.4538 2.12743 61.4386 8.14895L45.1932 24.3944L28.9478 8.14895C22.9263 2.12743 13.1651 2.12743 7.14993 8.14895C1.12841 14.1705 1.12841 23.9317 7.14993 29.9469L23.3954 46.1923L7.14993 62.4377C1.12841 68.4592 1.12841 78.2205 7.14993 84.2356C13.1715 90.2572 22.9327 90.2572 28.9478 84.2356L45.1932 67.9902L61.4386 84.2356C67.4602 90.2572 77.2214 90.2572 83.2366 84.2356C89.2581 78.2141 89.2581 68.4529 83.2366 62.4377L66.9911 46.1923Z" stroke="#242424" stroke-width="3.82"/>
<path d="M66.5 45.8672C54.6281 45.8672 45 55.4953 45 67.3672C45 79.2391 54.6281 88.8672 66.5 88.8672C78.3719 88.8672 88 79.2391 88 67.3672C88 55.4953 78.3719 45.8672 66.5 45.8672ZM66.5 76.4882C61.4609 76.4882 57.379 72.4063 57.379 67.3672C57.379 62.3281 61.4609 58.2462 66.5 58.2462C71.5391 58.2462 75.621 62.3281 75.621 67.3672C75.621 72.4063 71.5391 76.4882 66.5 76.4882Z" stroke="#242424" stroke-width="3.82" stroke-miterlimit="10"/>
<path d="M23.5 45.8672C11.6281 45.8672 2 55.4953 2 67.3672C2 79.2391 11.6281 88.8672 23.5 88.8672C35.3719 88.8672 45 79.2391 45 67.3672C45 55.4953 35.3719 45.8672 23.5 45.8672ZM23.5 76.4882C18.4609 76.4882 14.379 72.4063 14.379 67.3672C14.379 62.3281 18.4609 58.2462 23.5 58.2462C28.5391 58.2462 32.621 62.3281 32.621 67.3672C32.621 72.4063 28.5391 76.4882 23.5 76.4882Z" stroke="#242424" stroke-width="3.82" stroke-miterlimit="10"/>
<path d="M66.4989 58.2402C61.4599 58.2402 57.3779 62.3222 57.3779 67.3612C57.3779 72.4003 61.4599 76.4823 66.4989 76.4823C71.538 76.4823 75.62 72.4003 75.62 67.3612C75.62 62.3222 71.538 58.2402 66.4989 58.2402Z" stroke="#242424" stroke-width="3.82" stroke-miterlimit="10"/>
<path d="M66.5 45.8672C78.3719 45.8672 88 36.2391 88 24.3672C88 12.4953 78.3719 2.86719 66.5 2.86719C54.6281 2.86719 45 12.4953 45 24.3672C45 36.2391 54.6281 45.8672 66.5 45.8672ZM66.5 15.2398C71.5391 15.2398 75.621 19.3218 75.621 24.3608C75.621 29.3999 71.5391 33.4819 66.5 33.4819C61.4609 33.4819 57.379 29.3999 57.379 24.3608C57.379 19.3218 61.4609 15.2398 66.5 15.2398Z" stroke="#242424" stroke-width="3.82" stroke-miterlimit="10"/>
<path d="M45 24.3672C45 12.4953 35.3719 2.86719 23.5 2.86719C11.6281 2.86719 2 12.4953 2 24.3672C2 36.2391 11.6281 45.8672 23.5 45.8672C35.3719 45.8672 45 36.2391 45 24.3672ZM23.5 33.4882C18.4609 33.4882 14.379 29.4063 14.379 24.3672C14.379 19.3281 18.4609 15.2462 23.5 15.2462C28.5391 15.2462 32.621 19.3281 32.621 24.3672C32.621 29.4063 28.5391 33.4882 23.5 33.4882Z" stroke="#242424" stroke-width="3.82" stroke-miterlimit="10"/>
<path d="M66.4989 33.4881C71.538 33.4881 75.62 29.4062 75.62 24.3671C75.62 19.3281 71.538 15.2461 66.4989 15.2461C61.4599 15.2461 57.3779 19.3281 57.3779 24.3671C57.3779 29.4062 61.4599 33.4881 66.4989 33.4881Z" stroke="#242424" stroke-width="3.82" stroke-miterlimit="10"/>
</svg>
