<svg width="90" height="90" viewBox="0 0 90 90" fill="none" xmlns="http://www.w3.org/2000/svg">
<path d="M2 44.9238H87.8478" stroke="#242424" stroke-width="3.82" stroke-miterlimit="10" stroke-linecap="round"/>
<path d="M44.9229 87.8479V2" stroke="#242424" stroke-width="3.82" stroke-miterlimit="10" stroke-linecap="round"/>
<path d="M54.216 44.9297H35.7205C35.7205 63.533 20.6413 78.6185 2.03163 78.6185C2.00627 78.6185 1.98727 78.6185 1.96191 78.6185V87.936H87.9619V78.6249C87.9619 78.6249 87.9239 78.6249 87.9049 78.6249C69.3016 78.6249 54.216 63.5457 54.216 44.936V44.9297Z" stroke="#242424" stroke-width="3.82" stroke-linejoin="round"/>
<path d="M54.216 1.92969H35.7205C35.7205 20.533 20.6413 35.6185 2.03163 35.6185C2.00627 35.6185 1.98727 35.6185 1.96191 35.6185V44.936H87.9619V35.6249C87.9619 35.6249 87.9239 35.6249 87.9049 35.6249C69.3016 35.6249 54.216 20.5457 54.216 1.93602V1.92969Z" stroke="#242424" stroke-width="3.82" stroke-linejoin="round"/>
</svg>
