<svg width="90" height="90" viewBox="0 0 90 90" fill="none" xmlns="http://www.w3.org/2000/svg">
<path d="M45.0001 88C68.7483 88 88.0001 68.7483 88.0001 45C88.0001 21.2518 68.7483 2 45.0001 2C21.2518 2 2 21.2518 2 45C2 68.7483 21.2518 88 45.0001 88Z" stroke="#242424" stroke-width="3.82" stroke-miterlimit="10" stroke-linecap="round"/>
<path d="M45.0002 69.4085C58.4811 69.4085 69.4095 58.4801 69.4095 44.9992C69.4095 31.5183 58.4811 20.5898 45.0002 20.5898C31.5193 20.5898 20.5908 31.5183 20.5908 44.9992C20.5908 58.4801 31.5193 69.4085 45.0002 69.4085Z" stroke="#242424" stroke-width="3.82" stroke-miterlimit="10" stroke-linecap="round"/>
<path d="M2.03809 45H87.8859" stroke="#242424" stroke-width="3.82" stroke-miterlimit="10" stroke-linecap="round"/>
<path d="M44.9609 87.9241V2.07617" stroke="#242424" stroke-width="3.82" stroke-miterlimit="10" stroke-linecap="round"/>
<path d="M66.9911 45.1923L83.2366 28.9469C89.2581 22.9253 89.2581 13.1641 83.2366 7.14895C77.215 1.12743 67.4538 1.12743 61.4386 7.14895L45.1932 23.3944L28.9478 7.14895C22.9263 1.12743 13.1651 1.12743 7.14993 7.14895C1.12841 13.1705 1.12841 22.9317 7.14993 28.9469L23.3954 45.1923L7.14993 61.4377C1.12841 67.4593 1.12841 77.2205 7.14993 83.2356C13.1715 89.2572 22.9327 89.2572 28.9478 83.2356L45.1932 66.9902L61.4386 83.2356C67.4602 89.2572 77.2214 89.2572 83.2366 83.2356C89.2581 77.2141 89.2581 67.4529 83.2366 61.4377L66.9911 45.1923Z" stroke="#242424" stroke-width="3.82" stroke-miterlimit="10" stroke-linecap="round"/>
</svg>
