<?xml version="1.0" encoding="UTF-8"?>
<svg width="90" height="90" version="1.1" viewBox="0 0 23.8125 23.812501" xmlns="http://www.w3.org/2000/svg" xmlns:cc="http://creativecommons.org/ns#" xmlns:dc="http://purl.org/dc/elements/1.1/" xmlns:rdf="http://www.w3.org/1999/02/22-rdf-syntax-ns#" xmlns:xlink="http://www.w3.org/1999/xlink">
<defs>
<linearGradient id="b">
<stop stop-color="#00aad4" offset="0"/>
<stop stop-color="#8e8ed4" offset="1"/>
</linearGradient>
<radialGradient id="h" cx="100.65" cy="75.861" r="46.849" gradientTransform="matrix(3.9296 0 0 3.9296 -241.7 -189.41)" gradientUnits="userSpaceOnUse">
<stop stop-color="#0084cb" stop-opacity=".076087" offset="0"/>
<stop stop-color="#4bcfde" stop-opacity=".039855" offset=".43529"/>
<stop stop-color="#5fe2e4" offset="1"/>
</radialGradient>
<radialGradient id="g" cx="183.36" cy="104.54" r="27.975" gradientTransform="matrix(.99824 0 0 1.1996 -39.044 -37.224)" gradientUnits="userSpaceOnUse">
<stop stop-color="#002b22" stop-opacity=".0086207" offset="0"/>
<stop stop-color="#002b22" stop-opacity=".59483" offset=".74983"/>
<stop stop-color="#002b22" offset="1"/>
</radialGradient>
<clipPath id="p">
<path d="m-851.46-73.404c0 211.81-143.59 482.35-320.73 482.35-177.13 0-320.73-270.54-320.73-482.35 0-211.81 143.59-290.86 320.73-290.86 177.13 0 320.73 79.05 320.73 290.86z" fill="url(#radialGradient2577)" stroke="#002b22" stroke-width="11.673"/>
</clipPath>
<clipPath id="o">
<path d="m211.22 100.65c0 18.113-12.279 41.248-27.427 41.248-15.147 0-27.427-23.135-27.427-41.248 0-18.113 12.279-24.873 27.427-24.873 15.147 0 27.427 6.7599 27.427 24.873z" fill="url(#radialGradient2583)" stroke="#002b22" stroke-width=".99824"/>
</clipPath>
<radialGradient id="c" cx="183.79" cy="188.75" r="18.451" gradientTransform="matrix(-7.5938 0 0 -7.6371 1539.7 1552.3)" gradientUnits="userSpaceOnUse">
<stop stop-color="#00222b" offset="0"/>
<stop stop-color="#00222b" offset=".14333"/>
<stop stop-color="#e8f9f4" offset=".19272"/>
<stop stop-color="#00222b" offset=".23476"/>
<stop stop-color="#00222b" offset=".29755"/>
<stop stop-color="#60abed" offset=".33352"/>
<stop stop-color="#00222b" offset=".3695"/>
<stop stop-color="#00222b" offset=".45203"/>
<stop stop-color="#2f83d2" offset=".49012"/>
<stop stop-color="#00222b" offset=".51975"/>
<stop stop-color="#00222b" offset=".61921"/>
<stop stop-color="#004b89" offset=".65518"/>
<stop stop-color="#00222b" offset=".69327"/>
<stop stop-color="#00222b" offset=".8012"/>
<stop stop-color="#0a4478" offset=".85199"/>
<stop stop-color="#00222b" offset=".90277"/>
<stop stop-color="#00222b" offset="1"/>
</radialGradient>
<linearGradient id="m" x1="72.245" x2="160.09" y1="85.827" y2="117.07" gradientUnits="userSpaceOnUse">
<stop stop-color="#0c0700" offset="0"/>
<stop stop-color="#540" stop-opacity=".98824" offset=".14607"/>
<stop stop-color="#540" stop-opacity=".91765" offset=".6415"/>
<stop stop-color="#7f541b" stop-opacity=".90588" offset=".65793"/>
<stop stop-color="#540" stop-opacity=".90196" offset=".78217"/>
<stop stop-color="#322a0c" stop-opacity=".8902" offset=".79621"/>
<stop stop-opacity=".87843" offset="1"/>
</linearGradient>
<linearGradient id="l" x1="51.725" x2="168.84" y1="277.12" y2="131.34" gradientUnits="userSpaceOnUse">
<stop stop-color="#0c0700" offset="0"/>
<stop stop-color="#540" stop-opacity=".98824" offset=".14607"/>
<stop stop-color="#540" stop-opacity=".91765" offset=".68842"/>
<stop stop-color="#7f541b" stop-opacity=".90588" offset=".7098"/>
<stop stop-color="#540" stop-opacity=".90196" offset=".80192"/>
<stop stop-color="#322a0c" stop-opacity=".8902" offset=".81659"/>
<stop stop-opacity=".87843" offset="1"/>
</linearGradient>
<radialGradient id="f" cx="225.4" cy="216.59" r="56.045" gradientTransform="matrix(.6214 .35566 -1.0091 1.763 307.87 -240.12)" gradientUnits="userSpaceOnUse">
<stop stop-color="#6518d4" offset="0"/>
<stop stop-color="#2684d4" stop-opacity=".38208" offset="1"/>
</radialGradient>
<radialGradient id="e" cx="239.73" cy="228.61" r="56.045" gradientTransform="matrix(1 0 0 1.5071 0 -95.262)" gradientUnits="userSpaceOnUse">
<stop stop-color="#6518d4" offset="0"/>
<stop stop-color="#8ed2d4" stop-opacity=".27059" offset="1"/>
</radialGradient>
<linearGradient id="k" x1="175.41" x2="175.72" y1="53.19" y2="84.12" gradientUnits="userSpaceOnUse">
<stop stop-color="#540" offset="0"/>
<stop stop-color="#020200" offset="1"/>
</linearGradient>
<linearGradient id="j" x1="142.71" x2="180.85" y1="12.665" y2="48.744" gradientUnits="userSpaceOnUse">
<stop stop-color="#00d4aa" offset="0"/>
<stop stop-color="#352a00" offset="1"/>
</linearGradient>
<radialGradient id="d" cx="78.853" cy="194.65" r="12.561" gradientTransform="matrix(-.75107 -.66022 -1.0785 1.2269 433.2 -129.87)" gradientUnits="userSpaceOnUse">
<stop stop-color="#2ad4ff" offset="0"/>
<stop stop-color="#005" offset="1"/>
</radialGradient>
<linearGradient id="i" x1="124.79" x2="161.1" y1="-4.8978" y2="85.77" gradientUnits="userSpaceOnUse">
<stop stop-color="#0c0700" offset="0"/>
<stop stop-color="#540" stop-opacity=".98824" offset=".14607"/>
<stop stop-color="#540" stop-opacity=".91765" offset=".67758"/>
<stop stop-color="#7f541b" stop-opacity=".90588" offset=".6929"/>
<stop stop-color="#540" stop-opacity=".90196" offset=".84711"/>
<stop stop-color="#322a0c" stop-opacity=".8902" offset=".861"/>
<stop stop-opacity=".87843" offset="1"/>
</linearGradient>
<radialGradient id="a" cx="110.45" cy="207.1" r="56.528" gradientTransform="matrix(1 0 0 1.488 0 -92.204)" gradientUnits="userSpaceOnUse" xlink:href="#b"/>
</defs>
<metadata>
<rdf:RDF>
<cc:Work rdf:about="">
<dc:format>image/svg+xml</dc:format>
<dc:type rdf:resource="http://purl.org/dc/dcmitype/StillImage"/>
<dc:title/>
</cc:Work>
</rdf:RDF>
</metadata>
<g transform="translate(0 -273.19)">
<g transform="matrix(-.031614 -.054756 .054756 -.031614 10.818 296.95)">
<circle cx="153.84" cy="108.7" r="182.95" fill="url(#h)" opacity=".582" stroke="#000" stroke-linecap="round" stroke-linejoin="bevel" stroke-width="2.2919"/>
<g transform="translate(9.8422 -37.014)">
<path d="m162.04 139.82c0 18.145-8.0794 111.11-18.046 111.11s-18.046-92.969-18.046-111.11c0-18.145 8.0794-24.917 18.046-24.917s18.046 6.7718 18.046 24.917z" fill="url(#c)" stroke="#540" stroke-width=".81044"/>
<g id="n" transform="translate(-39.8 -15.497)">
<path d="m70.664 88.817c19.023 5.4278 53.072 17.693 57.248 20.749l12.638 4.739-0.26601 0.96363 21.544 4.8114 1.6176-8.2649-21.095-0.68976-12.817-3.8015c-1.5067-0.98627-49.641-18.845-55.786-24.086z" fill="url(#m)" stroke="#540" stroke-width=".26458px"/>
<path d="m53.588 279.35c12.887-15.009 80.315-95.674 84.838-98.188l11.678-18.145 0.76402 0.64468 20.967-28.854-6.8306-4.9263-17.035 30.17-10.901 18.699c-1.5261 0.95604-79.926 92.075-87.257 95.465z" fill="url(#l)" stroke="#540" stroke-width=".26458px"/>
<g transform="translate(-125.84)" fill="url(#e)" opacity=".429">
<path d="m284.36 114.57c1.0335 2.2955 2.067 4.591 3.1005 6.8865 2.7536 4.6874-2.0629 9.1766-0.0496 13.065 14.925 28.825 22.061 25.286 18.995 42.664 0.84377 6.7501-76.361 120.66-106.31 89.861-29.954-30.797 82.418-163.66 82.418-163.66l0.4699 4.0794z" fill="url(#f)"/>
</g>
<path d="m163.92 83.819c11.579-1.5576 13.214-10.921 14.833-15.836l4.9365-15.086 0.23665 9.834-0.1309 20.753z" fill="url(#k)"/>
<path d="m142.71 12.665c3.882 18.007 23.726 15.528 26.511 17.333 5.4984 3.5632 8.3693 14.566 8.2131 18.131l5.4237 0.46489c-6.9747-12.837-10.104-17.674-13.017-19.37-3.9453-2.2975-23.143 0.1062-27.131-16.558z" fill="url(#j)" stroke="#540" stroke-width=".26458px"/>
<path d="m161.54 52.865c-7.6778 5.5659-9.7437 14.238-4.8674 20.721 5.6491 7.5106 14.587 4.1548 21.714-2.1 3.9474-3.4639 7.0298-21.036 3.5502-23.588-6.5418-4.7975-14.978 1.038-20.397 4.9668z" fill="url(#d)" stroke="#002b22" stroke-width=".7449"/>
<path d="m122.48-2.9584c12.318 15.48 26.36 54.894 27.979 59.809l-1.6303 17.857-0.94924 2.3204 14.899 14.753 6.1229-5.7823-16.759-12.83 0.93984-17.198c-0.65201-1.6786-23.169-52.732-25.119-60.57z" fill="url(#i)" stroke="#540" stroke-width=".26458px"/>
<path d="m161.62 121.46c2.7536 4.6874-2.0629 9.1766-0.0496 13.065 14.925 28.825 22.061 25.286 18.995 42.664 0.84377 6.7501-76.361 120.66-106.31 89.861-29.954-30.797 82.418-163.66 82.418-163.66l0.4699 4.0794c-4.0565 13.957-53.684 76.741-77.284 107.26 0 0 7.1617 5.8732 64.013-78.951-22.742 49.428-73.797 92.627-62.744 135.23" fill="none" stroke="url(#a)" stroke-linecap="round" stroke-linejoin="bevel" stroke-width="1.5"/>
<path d="m106.89 264.7c-5.1072-5.6646-2.8158-49.083 8.8543-49.727 1.6722-7.6264-2.393-8.5792 9.9255-32.618 2.0639 4.2282 4.4828 2.5901 9.0803 1.313m-40.181 87.466c-13.482-19.04 17.391-75.053 24.875-86.951l6.2253-1.8272c2.5268-3.9303 4.9333-7.0959 7.0929-9.9605 0 0 10.22-30.51 11.109-36.618l14.651-21.208s-15.771 43.691-13.452 66.421c2.5507 4.6309 5.5496 9.6522 19.174 23.928" fill="none" stroke="url(#a)" stroke-linecap="round" stroke-linejoin="bevel" stroke-width="1.5"/>
<path d="m180.57 177.19c-11.797-31.398-24.22-17.556-20.418-57.325-1.7114 7.4015-7.7689 15.999-5.6401 25.257 3.2614 6.622-2.6064 42.174 9.7339 59.802m-31.481-32.523c2.9009 6.1082 3.4659 11.274 1.9874 11.274m-6.7034 33.707c-10.397 3.0581-9.0832-1.0617-12.302-2.403 2.2129 1.5819 6.4884 18.531 6.873 37.304" fill="none" stroke="url(#a)" stroke-linecap="round" stroke-linejoin="bevel" stroke-width="1.5"/>
<path d="m146.74 226.38c-7.5714-33.183-11.61-38.496-1.6751-45.391-6.8815 4.7381-8.6838 3.5825-10.32 2.6785-4.4575 6.7557-4.4695 30.98-6.677 33.476 2.1414 7.06 7.0479 22.808 5.7845 24.773" fill="none" stroke="url(#a)" stroke-linecap="round" stroke-linejoin="bevel" stroke-width="1.5"/>
</g>
<use transform="matrix(-1 0 0 1 287.99 5.147e-7)" width="100%" height="100%" xlink:href="#n"/>
<path transform="translate(-39.8 -15.497)" d="m211.27 100.64c0 18.145-12.301 41.321-27.475 41.321s-27.475-23.176-27.475-41.321c0-18.145 12.301-24.917 27.475-24.917 15.174-1e-6 27.475 6.7718 27.475 24.917z" clip-path="url(#o)" fill="none" stroke="#540"/>
<g transform="matrix(.085514 0 0 .085514 244.23 91.433)" clip-path="url(#p)">
<path d="m-1327.5-301.38h-40.621l-20.31-35.179 20.31-35.179h40.621l20.31 35.179z" fill="#540"/>
<path d="m-1266.6-336.56h-40.621l-20.31-35.179 20.31-35.179 40.621 1e-5 20.31 35.179z" fill="#540"/>
<path d="m-1205.6-301.38h-40.621l-20.31-35.179 20.31-35.179h40.621l20.31 35.179z" fill="#540"/>
<path d="m-1449.4-231.57h-40.621l-20.31-35.179 20.31-35.179h40.621l20.31 35.179z" fill="#806600"/>
<path d="m-1388.4-266.75-40.621-1e-5 -20.31-35.179 20.31-35.179h40.621l20.31 35.179z" fill="#483e37"/>
<path d="m-1327.5-231.57h-40.621l-20.31-35.179 20.31-35.179h40.621l20.31 35.179z" fill="#9b6f26"/>
<path d="m-1266.6-266.75-40.621-1e-5 -20.31-35.179 20.31-35.179h40.621l20.31 35.179z" fill="#402b1a"/>
<path d="m-1205.6-231.57h-40.621l-20.31-35.179 20.31-35.179h40.621l20.31 35.179z" fill="#946817"/>
<path d="m-1449.4-161.21h-40.621l-20.31-35.179 20.31-35.179 40.621 1e-5 20.31 35.179z" fill="#540"/>
<path d="m-1388.4-196.39h-40.621l-20.31-35.179 20.31-35.179h40.621l20.31 35.179z" fill="#593f2a"/>
<path d="m-1327.5-161.21h-40.621l-20.31-35.179 20.31-35.179 40.621 1e-5 20.31 35.179z" fill="#f7dc85"/>
<path d="m-1266.6-196.39h-40.621l-20.31-35.179 20.31-35.179h40.621l20.31 35.179z" fill="#d7a142"/>
<path d="m-1205.6-161.21h-40.621l-20.31-35.179 20.31-35.179 40.621 1e-5 20.31 35.179z" fill="#e1bc61"/>
<path d="m-1449.4-91.396-40.621-2e-6 -20.31-35.179 20.31-35.179h40.621l20.31 35.179z" fill="#674a30"/>
<path d="m-1388.4-126.57h-40.621l-20.31-35.179 20.31-35.179h40.621l20.31 35.179z" fill="#fc0"/>
<path d="m-1327.5-91.396-40.621-2e-6 -20.31-35.179 20.31-35.179h40.621l20.31 35.179z" fill="#f8c33e"/>
<path d="m-1266.6-126.57h-40.621l-20.31-35.179 20.31-35.179h40.621l20.31 35.179z" fill="#fde895"/>
<path d="m-1205.6-91.396-40.621-2e-6 -20.31-35.179 20.31-35.179h40.621l20.31 35.179z" fill="#fce18c"/>
<path d="m-1144.7-336.02h-40.621l-20.31-35.179 20.31-35.179 40.621 1e-5 20.31 35.179z" fill="#2b2200"/>
<path d="m-1083.8-300.84h-40.621l-20.31-35.179 20.31-35.179 40.621 1e-5 20.31 35.179z" fill="#2b2200"/>
<path d="m-1022.9-336.02h-40.621l-20.31-35.179 20.31-35.179h40.621l20.31 35.179z" fill="#2b2200"/>
<path d="m-961.92-300.84h-40.621l-20.31-35.179 20.31-35.179 40.621 1e-5 20.31 35.179z" fill="#2b2200"/>
<path d="m-1144.7-266.21h-40.621l-20.31-35.179 20.31-35.179h40.621l20.31 35.179z" fill="#3b291b"/>
<path d="m-1083.8-231.03-40.621-1e-5 -20.31-35.179 20.31-35.179h40.621l20.31 35.179z" fill="#9a660b"/>
<path d="m-1022.9-266.21h-40.621l-20.31-35.179 20.31-35.179h40.621l20.31 35.179z" fill="#5c3b1f"/>
<path d="m-961.92-231.03-40.621-1e-5 -20.31-35.179 20.31-35.179h40.621l20.31 35.179z" fill="#2b2200"/>
<path d="m-900.99-266.21h-40.621l-20.31-35.179 20.31-35.179h40.621l20.31 35.179z" fill="#2b2200"/>
<path d="m-840.06-231.03-40.621-1e-5 -20.31-35.179 20.31-35.179h40.621l20.31 35.179z" fill="#2b2200"/>
<path d="m-1144.7-195.85-40.621-1e-5 -20.31-35.179 20.31-35.179h40.621l20.31 35.179z" fill="#48311b"/>
<path d="m-1083.8-160.67h-40.621l-20.31-35.179 20.31-35.179h40.621l20.31 35.179z" fill="#fc0"/>
<path d="m-1022.9-195.85h-40.621l-20.31-35.179 20.31-35.179h40.621l20.31 35.179z" fill="#7a4c14"/>
<path d="m-961.92-160.67h-40.621l-20.31-35.179 20.31-35.179h40.621l20.31 35.179z" fill="#fd5"/>
<path d="m-900.99-195.85h-40.621l-20.31-35.179 20.31-35.179h40.621l20.31 35.179z" fill="#2b2200"/>
<path d="m-840.06-160.67h-40.621l-20.31-35.179 20.31-35.179h40.621l20.31 35.179z" fill="#3e3228"/>
<path d="m-1144.7-126.03h-40.621l-20.31-35.179 20.31-35.179h40.621l20.31 35.179z" fill="#fc0"/>
<path d="m-1083.8-90.854-40.621-2e-6 -20.31-35.179 20.31-35.179h40.621l20.31 35.179z" fill="#ffee9e"/>
<path d="m-1022.9-126.03h-40.621l-20.31-35.179 20.31-35.179h40.621l20.31 35.179z" fill="#e7b032"/>
<path d="m-961.92-90.854-40.621-2e-6 -20.31-35.179 20.31-35.179h40.621l20.31 35.179z" fill="#a80"/>
<path d="m-900.99-126.03h-40.621l-20.31-35.179 20.31-35.179h40.621l20.31 35.179z" fill="#540"/>
<path d="m-840.06-90.854-40.621-2e-6 -20.31-35.179 20.31-35.179h40.621l20.31 35.179z" fill="#28220b"/>
<path d="m-1510.3-56.217-40.621-2e-6 -20.31-35.179 20.31-35.179h40.621l20.31 35.179z" fill="#806600"/>
<path d="m-1449.4-21.038-40.621-2e-6 -20.31-35.179 20.31-35.179 40.621 2e-6 20.31 35.179z" fill="#28220b"/>
<path d="m-1388.4-56.217-40.621-2e-6 -20.31-35.179 20.31-35.179h40.621l20.31 35.179z" fill="#c58716"/>
<path d="m-1327.5-21.038-40.621-2e-6 -20.31-35.179 20.31-35.179 40.621 2e-6 20.31 35.179z" fill="#e1ba56"/>
<path d="m-1266.6-56.217-40.621-2e-6 -20.31-35.179 20.31-35.179h40.621l20.31 35.179z" fill="#a1773b"/>
<path d="m-1205.6-21.038-40.621-2e-6 -20.31-35.179 20.31-35.179 40.621 2e-6 20.31 35.179z" fill="#eeca5e"/>
<path d="m-1510.3 13.598-40.621-2e-6 -20.31-35.179 20.31-35.179 40.621 2e-6 20.31 35.179z" fill="#483e37"/>
<path d="m-1449.4 48.777-40.621-2e-6 -20.31-35.179 20.31-35.179 40.621 2e-6 20.31 35.179z" fill="#291d1d"/>
<path d="m-1388.4 13.599-40.621-2e-6 -20.31-35.179 20.31-35.179 40.621 2e-6 20.31 35.179z" fill="#9f6711"/>
<path d="m-1327.5 48.777-40.621-2e-6 -20.31-35.179 20.31-35.179 40.621 2e-6 20.31 35.179z" fill="#fea"/>
<path d="m-1266.6 13.599-40.621-2e-6 -20.31-35.179 20.31-35.179 40.621 2e-6 20.31 35.179z" fill="#f3d786"/>
<path d="m-1205.6 48.777-40.621-2e-6 -20.31-35.179 20.31-35.179 40.621 2e-6 20.31 35.179z" fill="#e7ba4b"/>
<path d="m-1449.4 119.13h-40.621l-20.31-35.179 20.31-35.179 40.621 2e-6 20.31 35.179z" fill="#483e37"/>
<path d="m-1388.4 83.956-40.621-2e-6 -20.31-35.179 20.31-35.179 40.621 2e-6 20.31 35.179z" fill="#533419"/>
<path d="m-1327.5 119.13h-40.621l-20.31-35.179 20.31-35.179 40.621 2e-6 20.31 35.179z" fill="#806600"/>
<path d="m-1266.6 83.956-40.621-2e-6 -20.31-35.179 20.31-35.179 40.621 2e-6 20.31 35.179z" fill="#e9ddaf"/>
<path d="m-1205.6 119.13h-40.621l-20.31-35.179 20.31-35.179 40.621 2e-6 20.31 35.179z" fill="#67441c"/>
<path d="m-1449.4 188.95h-40.621l-20.31-35.179 20.31-35.179 40.621 1e-5 20.31 35.179z" fill="#806600"/>
<path d="m-1388.4 153.77h-40.621l-20.31-35.179 20.31-35.179 40.621 2e-6 20.31 35.179z" fill="#6c441d"/>
<path d="m-1327.5 188.95h-40.621l-20.31-35.179 20.31-35.179 40.621 1e-5 20.31 35.179z" fill="#735121"/>
<path d="m-1266.6 153.77h-40.621l-20.31-35.179 20.31-35.179 40.621 2e-6 20.31 35.179z" fill="#986923"/>
<path d="m-1205.6 188.95h-40.621l-20.31-35.179 20.31-35.179 40.621 1e-5 20.31 35.179z" fill="#5a3a1c"/>
<path d="m-1144.7-55.675-40.621-2e-6 -20.31-35.179 20.31-35.179h40.621l20.31 35.179z" fill="#fde18b"/>
<path d="m-1083.8-20.497-40.621-2e-6 -20.31-35.179 20.31-35.179 40.621 2e-6 20.31 35.179z" fill="#fc0"/>
<path d="m-1022.9-55.676-40.621-2e-6 -20.31-35.179 20.31-35.179h40.621l20.31 35.179z" fill="#a06d20"/>
<path d="m-961.92-20.497-40.621-2e-6 -20.31-35.179 20.31-35.179 40.621 2e-6 20.31 35.179z" fill="#e3b54f"/>
<path d="m-900.99-55.676-40.621-2e-6 -20.31-35.179 20.31-35.179h40.621l20.31 35.179z" fill="#a06d20"/>
<path d="m-840.06-20.497-40.621-2e-6 -20.31-35.179 20.31-35.179 40.621 2e-6 20.31 35.179z" fill="#2b2200"/>
<path d="m-1144.7 14.14-40.621-2e-6 -20.31-35.179 20.31-35.179 40.621 2e-6 20.31 35.179z" fill="#fea"/>
<path d="m-1083.8 49.319-40.621-2e-6 -20.31-35.179 20.31-35.179 40.621 2e-6 20.31 35.179z" fill="#be9040"/>
<path d="m-1022.9 14.14-40.621-2e-6 -20.31-35.179 20.31-35.179 40.621 2e-6 20.31 35.179z" fill="#e2b549"/>
<path d="m-961.92 49.319-40.621-2e-6 -20.31-35.179 20.31-35.179 40.621 2e-6 20.31 35.179z" fill="#a80"/>
<path d="m-900.99 14.14-40.621-2e-6 -20.31-35.179 20.31-35.179 40.621 2e-6 20.31 35.179z" fill="#806600"/>
<path d="m-840.06 49.319-40.621-2e-6 -20.31-35.179 20.31-35.179 40.621 2e-6 20.31 35.179z" fill="#302426"/>
<path d="m-1144.7 84.498-40.621-2e-6 -20.31-35.179 20.31-35.179 40.621 2e-6 20.31 35.179z" fill="#e7ba4b"/>
<path d="m-1083.8 119.68h-40.621l-20.31-35.179 20.31-35.179 40.621 2e-6 20.31 35.179z" fill="#e6b349"/>
<path d="m-1022.9 84.497-40.621-2e-6 -20.31-35.179 20.31-35.179 40.621 2e-6 20.31 35.179z" fill="#ca9739"/>
<path d="m-961.92 119.68h-40.621l-20.31-35.179 20.31-35.179 40.621 2e-6 20.31 35.179z" fill="#a80"/>
<path d="m-900.99 84.497-40.621-2e-6 -20.31-35.179 20.31-35.179 40.621 2e-6 20.31 35.179z" fill="#69461c"/>
<path d="m-840.06 119.68h-40.621l-20.31-35.179 20.31-35.179 40.621 2e-6 20.31 35.179z" fill="#2b2200"/>
<path d="m-1144.7 154.31-40.621-1e-5 -20.31-35.179 20.31-35.179 40.621 2e-6 20.31 35.179z" fill="#5c3f22"/>
<path d="m-1083.8 189.49h-40.621l-20.31-35.179 20.31-35.179 40.621 1e-5 20.31 35.179z" fill="#a0892c"/>
<path d="m-1022.9 154.31h-40.621l-20.31-35.179 20.31-35.179 40.621 2e-6 20.31 35.179z" fill="#a0892c"/>
<path d="m-961.92 189.49h-40.621l-20.31-35.179 20.31-35.179 40.621 1e-5 20.31 35.179z" fill="#806600"/>
<path d="m-900.99 154.31h-40.621l-20.31-35.179 20.31-35.179 40.621 2e-6 20.31 35.179z" fill="#ca9739"/>
<path d="m-840.06 189.49h-40.621l-20.31-35.179 20.31-35.179 40.621 1e-5 20.31 35.179z" fill="#2b2200"/>
<path d="m-1388.4 224.13h-40.621l-20.31-35.179 20.31-35.179h40.621l20.31 35.179z" fill="#28220b"/>
<path d="m-1327.5 259.31-40.621-1e-5 -20.31-35.179 20.31-35.179h40.621l20.31 35.179z" fill="#806600"/>
<path d="m-1266.6 224.13h-40.621l-20.31-35.179 20.31-35.179h40.621l20.31 35.179z" fill="#624120"/>
<path d="m-1205.6 259.31-40.621-1e-5 -20.31-35.179 20.31-35.179h40.621l20.31 35.179z" fill="#b77d1d"/>
<path d="m-1388.4 294.49h-40.621l-20.31-35.179 20.31-35.179h40.621l20.31 35.179z" fill="#28220b"/>
<path d="m-1327.5 329.66h-40.621l-20.31-35.179 20.31-35.179h40.621l20.31 35.179z" fill="#28220b"/>
<path d="m-1266.6 294.49h-40.621l-20.31-35.179 20.31-35.179h40.621l20.31 35.179z" fill="#5e3a13"/>
<path d="m-1205.6 329.66h-40.621l-20.31-35.179 20.31-35.179h40.621l20.31 35.179z" fill="#624120"/>
<path d="m-1327.5 399.48h-40.621l-20.31-35.179 20.31-35.179h40.621l20.31 35.179z" fill="#483e37"/>
<path d="m-1266.6 364.3h-40.621l-20.31-35.179 20.31-35.179h40.621l20.31 35.179z" fill="#28220b"/>
<path d="m-1205.6 399.48h-40.621l-20.31-35.179 20.31-35.179h40.621l20.31 35.179z" fill="#573615"/>
<path d="m-1144.7 224.67h-40.621l-20.31-35.179 20.31-35.179h40.621l20.31 35.179z" fill="#624120"/>
<path d="m-1083.8 259.85h-40.621l-20.31-35.179 20.31-35.179h40.621l20.31 35.179z" fill="#b77d1d"/>
<path d="m-1022.9 224.67h-40.621l-20.31-35.179 20.31-35.179h40.621l20.31 35.179z" fill="#5a3819"/>
<path d="m-961.92 259.85h-40.621l-20.31-35.179 20.31-35.179h40.621l20.31 35.179z" fill="#2b2200"/>
<path d="m-900.99 224.67h-40.621l-20.31-35.179 20.31-35.179h40.621l20.31 35.179z" fill="#2b2200"/>
<path d="m-1144.7 295.03h-40.621l-20.31-35.179 20.31-35.179h40.621l20.31 35.179z" fill="#5e3a13"/>
<path d="m-1083.8 330.21h-40.621l-20.31-35.179 20.31-35.179h40.621l20.31 35.179z" fill="#573615"/>
<path d="m-1022.9 295.03-40.621-1e-5 -20.31-35.179 20.31-35.179h40.621l20.31 35.179z" fill="#483e37"/>
<path d="m-961.92 330.21h-40.621l-20.31-35.179 20.31-35.179h40.621l20.31 35.179z" fill="#573615"/>
<path d="m-900.99 295.03-40.621-1e-5 -20.31-35.179 20.31-35.179h40.621l20.31 35.179z" fill="#2b2200"/>
<path d="m-1144.7 364.84h-40.621l-20.31-35.179 20.31-35.179 40.621 1e-5 20.31 35.179z" fill="#2b2200"/>
<path d="m-1083.8 400.02h-40.621l-20.31-35.179 20.31-35.179h40.621l20.31 35.179z" fill="#5e3a13"/>
<path d="m-1022.9 364.84h-40.621l-20.31-35.179 20.31-35.179 40.621 1e-5 20.31 35.179z" fill="#483e37"/>
<path d="m-1266.6 434.66h-40.621l-20.31-35.179 20.31-35.179h40.621l20.31 35.179z" fill="#483e37"/>
<path d="m-1205.6 469.84h-40.621l-20.31-35.179 20.31-35.179h40.621l20.31 35.179z" fill="#483e37"/>
<path d="m-1144.7 435.2-40.621-1e-5 -20.31-35.179 20.31-35.179h40.621l20.31 35.179z" fill="#2b2200"/>
<path d="m-1083.8 470.38h-40.621l-20.31-35.179 20.31-35.179h40.621l20.31 35.179z" fill="#2b2200"/>
<path d="m-1022.9 435.2-40.621-1e-5 -20.31-35.179 20.31-35.179h40.621l20.31 35.179z" fill="#2b2200"/>
</g>
<path d="m171.42 85.156c0 18.113-12.279 41.248-27.427 41.248-15.147 0-27.427-23.135-27.427-41.248 0-18.113 12.279-24.873 27.427-24.873 15.147 0 27.427 6.7599 27.427 24.873z" fill="url(#g)" stroke="#002b22" stroke-width=".99824"/>
</g>
</g>
</g>
</svg>
