<svg width="90" height="90" viewBox="0 0 90 90" fill="none" xmlns="http://www.w3.org/2000/svg">
<path d="M87.999 2H1.99902V88H87.999V2Z" stroke="#242424" stroke-width="3.82" stroke-miterlimit="10" stroke-linecap="round"/>
<path d="M44.999 88C68.7473 88 87.999 68.7482 87.999 45C87.999 21.2518 68.7473 2 44.999 2C21.2508 2 1.99902 21.2518 1.99902 45C1.99902 68.7482 21.2508 88 44.999 88Z" stroke="#242424" stroke-width="3.82" stroke-miterlimit="10" stroke-linecap="round"/>
<path d="M87.999 45H1.99902V88H87.999V45Z" stroke="#242424" stroke-width="3.82" stroke-miterlimit="10" stroke-linecap="round"/>
<path d="M83.241 61.446C74.2658 52.4708 74.2658 37.9241 83.241 28.9488C89.2626 22.9273 89.2626 13.1661 83.241 7.15091C77.2195 1.12939 67.4583 1.12939 61.4431 7.15091C52.4679 16.1261 37.9211 16.1261 28.9459 7.15091C22.9244 1.12939 13.1632 1.12939 7.14798 7.15091C1.12646 13.1724 1.12646 22.9336 7.14798 28.9488C16.1232 37.9241 16.1232 52.4708 7.14798 61.446C1.12646 67.4675 1.12646 77.2287 7.14798 83.2439C13.1695 89.2655 22.9307 89.2655 28.9459 83.2439C37.9211 74.2687 52.4679 74.2687 61.4431 83.2439C67.4646 89.2655 77.2258 89.2655 83.241 83.2439C89.2626 77.2224 89.2626 67.4612 83.241 61.446Z" stroke="#242424" stroke-width="3.82" stroke-miterlimit="10" stroke-linecap="round"/>
<path d="M72.3454 76.3538C71.7243 76.3538 70.5326 76.2017 69.5122 75.1812L69.4298 75.0988C56.043 61.712 34.3465 61.712 20.9597 75.0988L20.8773 75.1812C19.8568 76.2017 18.6652 76.3538 18.044 76.3538C17.4229 76.3538 16.2312 76.2017 15.2107 75.1812C14.1902 74.1607 14.0381 72.9691 14.0381 72.3479C14.0381 71.7267 14.1902 70.5351 15.2107 69.5146L15.2931 69.4322C28.6799 56.0454 28.6799 34.3489 15.2931 20.9621C13.7402 19.4092 13.6261 16.8738 15.141 15.2892C16.1741 14.2053 17.4102 14.0469 18.044 14.0469C18.6779 14.0469 19.8568 14.199 20.8773 15.2195L20.9597 15.3019C34.3465 28.6887 56.043 28.6887 69.4298 15.3019L69.5122 15.2195C70.5326 14.199 71.7243 14.0469 72.3454 14.0469C72.9666 14.0469 74.209 14.2053 75.2485 15.2892C76.7634 16.8738 76.6492 19.4155 75.0963 20.9621C61.7095 34.3489 61.7095 56.0454 75.0963 69.4322C76.6492 70.9851 76.757 73.5205 75.2421 75.1114C74.209 76.1953 72.9729 76.3538 72.3391 76.3538H72.3454Z" stroke="#242424" stroke-width="3.82" stroke-miterlimit="10" stroke-linecap="round"/>
</svg>
