<svg width="90" height="90" viewBox="0 0 90 90" fill="none" xmlns="http://www.w3.org/2000/svg">
<path d="M66.9902 45.1923L83.2356 28.9469C89.2571 22.9253 89.2571 13.1641 83.2356 7.14895C77.2141 1.12743 67.4529 1.12743 61.4377 7.14895L45.1923 23.3944L28.9468 7.14895C22.9253 1.12743 13.1641 1.12743 7.14895 7.14895C1.12743 13.1705 1.12743 22.9317 7.14895 28.9469L23.3944 45.1923L7.14895 61.4377C1.12743 67.4593 1.12743 77.2205 7.14895 83.2356C13.1705 89.2572 22.9317 89.2572 28.9468 83.2356L45.1923 66.9902L61.4377 83.2356C67.4592 89.2572 77.2204 89.2572 83.2356 83.2356C89.2571 77.2141 89.2571 67.4529 83.2356 61.4377L66.9902 45.1923Z" stroke="#242424" stroke-width="3.82" stroke-miterlimit="10" stroke-linecap="round"/>
<path d="M72.3401 76.346C71.7189 76.346 70.5272 76.1938 69.5068 75.1734L45.1925 50.8591L20.8782 75.1734C19.8577 76.1938 18.6661 76.346 18.0449 76.346C17.4238 76.346 16.2321 76.1938 15.2117 75.1734C14.1912 74.1529 14.0391 72.9612 14.0391 72.3401C14.0391 71.7189 14.1912 70.5273 15.2117 69.5068L39.5259 45.1925L15.2117 20.8782C13.6524 19.319 13.6524 16.7773 15.2117 15.2117C16.2321 14.1912 17.4238 14.0391 18.0449 14.0391C18.6661 14.0391 19.8577 14.1912 20.8782 15.2117L45.1925 39.5259L69.5068 15.2117C70.5272 14.1912 71.7189 14.0391 72.3401 14.0391C72.9612 14.0391 74.1528 14.1912 75.1733 15.2117C76.7326 16.7709 76.7326 19.3126 75.1733 20.8782L50.8591 45.1925L75.1733 69.5068C76.7326 71.066 76.7326 73.6078 75.1733 75.1734C74.1528 76.1938 72.9612 76.346 72.3401 76.346Z" stroke="#242424" stroke-width="3.82" stroke-miterlimit="10" stroke-linecap="round"/>
<path d="M83.2429 61.4441C74.2677 52.4688 74.2677 37.9221 83.2429 28.9469C89.2644 22.9253 89.2644 13.1641 83.2429 7.14895C77.2214 1.12743 67.4602 1.12743 61.445 7.14895C52.4698 16.1242 37.923 16.1242 28.9478 7.14895C22.9263 1.12743 13.1651 1.12743 7.14993 7.14895C1.12841 13.1705 1.12841 22.9317 7.14993 28.9469C16.1252 37.9221 16.1252 52.4688 7.14993 61.4441C1.12841 67.4656 1.12841 77.2268 7.14993 83.242C13.1715 89.2635 22.9326 89.2635 28.9478 83.242C37.923 74.2667 52.4698 74.2667 61.445 83.242C67.4665 89.2635 77.2277 89.2635 83.2429 83.242C89.2644 77.2205 89.2644 67.4593 83.2429 61.4441Z" stroke="#242424" stroke-width="3.82" stroke-miterlimit="10" stroke-linecap="round"/>
</svg>
