<svg width="90" height="90" viewBox="0 0 90 90" fill="none" xmlns="http://www.w3.org/2000/svg">
<path d="M72.3493 76.3499C71.7282 76.3499 70.5366 76.1978 69.5161 75.1773L69.4337 75.0949C56.0469 61.7081 34.3504 61.7081 20.9636 75.0949L20.8812 75.1773C19.8607 76.1978 18.6691 76.3499 18.0479 76.3499C17.4268 76.3499 16.2352 76.1978 15.2147 75.1773C14.1942 74.1568 14.042 72.9652 14.042 72.344C14.042 71.7228 14.1942 70.5312 15.2147 69.5107L15.2971 69.4283C28.6839 56.0415 28.6839 34.345 15.2971 20.9582C13.7442 19.4053 13.63 16.8699 15.1449 15.2853C16.178 14.2014 17.4141 14.043 18.0479 14.043C18.6818 14.043 19.8607 14.1951 20.8812 15.2156L20.9636 15.298C34.3504 28.6848 56.0469 28.6848 69.4337 15.298L69.5161 15.2156C70.5366 14.1951 71.7282 14.043 72.3493 14.043C72.9705 14.043 74.2129 14.2014 75.2524 15.2853C76.7673 16.8699 76.6532 19.4116 75.1003 20.9582C61.7135 34.345 61.7135 56.0415 75.1003 69.4283C76.6532 70.9812 76.7609 73.5166 75.246 75.1075C74.2129 76.1914 72.9769 76.3499 72.3431 76.3499H72.3493Z" stroke="#242424" stroke-width="3.82" stroke-miterlimit="10" stroke-linecap="round"/>
<path d="M87.9981 2H1.99805V88H87.9981V2Z" stroke="#242424" stroke-width="3.82" stroke-miterlimit="10" stroke-linecap="round"/>
<path d="M44.998 88C68.7463 88 87.9981 68.7482 87.9981 45C87.9981 21.2518 68.7463 2 44.998 2C21.2498 2 1.99805 21.2518 1.99805 45C1.99805 68.7482 21.2498 88 44.998 88Z" stroke="#242424" stroke-width="3.82" stroke-miterlimit="10" stroke-linecap="round"/>
</svg>
