<svg width="90" height="90" viewBox="0 0 90 90" fill="none" xmlns="http://www.w3.org/2000/svg">
<path d="M14.6777 14.6777L75.381 75.381" stroke="#242424" stroke-width="3.82" stroke-miterlimit="10" stroke-linecap="round"/>
<path d="M14.6777 75.381L75.381 14.6777" stroke="#242424" stroke-width="3.82" stroke-miterlimit="10" stroke-linecap="round"/>
<path d="M2 44.9238H87.8478" stroke="#242424" stroke-width="3.82" stroke-miterlimit="10" stroke-linecap="round"/>
<path d="M44.9229 87.8479V2" stroke="#242424" stroke-width="3.82" stroke-miterlimit="10" stroke-linecap="round"/>
<path d="M83.242 61.4441C74.2668 52.4688 74.2668 37.9221 83.242 28.9469C89.2635 22.9253 89.2635 13.1641 83.242 7.14895C77.2205 1.12743 67.4593 1.12743 61.4441 7.14895C52.4689 16.1242 37.9221 16.1242 28.9469 7.14895C22.9254 1.12743 13.1641 1.12743 7.14895 7.14895C1.12743 13.1705 1.12743 22.9317 7.14895 28.9469C16.1242 37.9221 16.1242 52.4688 7.14895 61.4441C1.12743 67.4656 1.12743 77.2268 7.14895 83.242C13.1705 89.2635 22.9317 89.2635 28.9469 83.242C37.9221 74.2667 52.4689 74.2667 61.4441 83.242C67.4656 89.2635 77.2268 89.2635 83.242 83.242C89.2635 77.2205 89.2635 67.4593 83.242 61.4441Z" stroke="#242424" stroke-width="3.82" stroke-miterlimit="10" stroke-linecap="round"/>
<path d="M72.3464 76.3518C71.7252 76.3518 70.5336 76.1997 69.5131 75.1792L69.4307 75.0968C56.0439 61.71 34.3475 61.71 20.9607 75.0968L20.8783 75.1792C19.8578 76.1997 18.6662 76.3518 18.045 76.3518C17.4238 76.3518 16.2321 76.1997 15.2117 75.1792C14.1912 74.1587 14.0391 72.9671 14.0391 72.3459C14.0391 71.7248 14.1912 70.5331 15.2117 69.5126L15.2941 69.4302C28.6809 56.0435 28.6809 34.347 15.2941 20.9602C13.7411 19.4072 13.6271 16.8719 15.1419 15.2873C16.1751 14.2034 17.4112 14.0449 18.045 14.0449C18.6788 14.0449 19.8578 14.197 20.8783 15.2175L20.9607 15.2999C34.3475 28.6867 56.0439 28.6867 69.4307 15.2999L69.5131 15.2175C70.5336 14.197 71.7252 14.0449 72.3464 14.0449C72.9676 14.0449 74.21 14.2034 75.2495 15.2873C76.7643 16.8719 76.6502 19.4136 75.0973 20.9602C61.7105 34.347 61.7105 56.0435 75.0973 69.4302C76.6502 70.9832 76.758 73.5185 75.2431 75.1095C74.2099 76.1934 72.9739 76.3518 72.3401 76.3518H72.3464Z" stroke="#242424" stroke-width="3.82" stroke-miterlimit="10" stroke-linecap="round"/>
</svg>
