<svg width="90" height="90" viewBox="0 0 90 90" fill="none" xmlns="http://www.w3.org/2000/svg">
<path d="M70.1446 27.1509C65.4732 27.1509 61.2581 28.9828 58.0762 31.9175C61.0109 28.7356 62.8491 24.5268 62.8491 19.8491C62.8491 9.99278 54.8563 2 45 2C35.1437 2 27.1446 9.99278 27.1446 19.8491C27.1446 24.5268 28.9764 28.7356 31.9175 31.9175C28.7356 28.9828 24.5205 27.1509 19.8491 27.1509C9.99278 27.1509 2 35.1437 2 45C2 54.8563 9.99278 62.8491 19.8491 62.8491C24.5205 62.8491 28.7356 61.0172 31.9175 58.0825C28.9828 61.2644 27.1446 65.4795 27.1446 70.1509C27.1446 80.0072 35.1374 88 45 88C54.8626 88 62.8491 80.0072 62.8491 70.1509C62.8491 65.4795 61.0109 61.2644 58.0762 58.0825C61.2581 61.0172 65.4732 62.8491 70.1446 62.8491C80.0009 62.8491 88 54.8626 88 45C88 35.1374 80.0072 27.1509 70.1446 27.1509Z" stroke="#242424" stroke-width="3.82"/>
<path d="M83.243 61.4441C74.2677 52.4688 74.2677 37.9221 83.243 28.9469C89.2645 22.9253 89.2645 13.1641 83.243 7.14895C77.2215 1.12743 67.4603 1.12743 61.4451 7.14895C52.4698 16.1242 37.9231 16.1242 28.9479 7.14895C22.9263 1.12743 13.1651 1.12743 7.14993 7.14895C1.12841 13.1705 1.12841 22.9317 7.14993 28.9469C16.1252 37.9221 16.1252 52.4688 7.14993 61.4441C1.12841 67.4656 1.12841 77.2268 7.14993 83.242C13.1715 89.2635 22.9327 89.2635 28.9479 83.242C37.9231 74.2667 52.4698 74.2667 61.4451 83.242C67.4666 89.2635 77.2278 89.2635 83.243 83.242C89.2645 77.2205 89.2645 67.4592 83.243 61.4441Z" stroke="#242424" stroke-width="3.82"/>
</svg>
