<svg width="90" height="90" viewBox="0 0 90 90" fill="none" xmlns="http://www.w3.org/2000/svg">
<path d="M87.999 2H1.99902V88H87.999V2Z" stroke="#242424" stroke-width="3.82" stroke-miterlimit="10" stroke-linecap="round"/>
<path d="M44.9978 75.4116C61.7938 75.4116 75.4098 61.7958 75.4098 44.9998C75.4098 28.2037 61.7938 14.5879 44.9978 14.5879C28.2018 14.5879 14.5859 28.2037 14.5859 44.9998C14.5859 61.7958 28.2018 75.4116 44.9978 75.4116Z" stroke="#242424" stroke-width="3.82" stroke-miterlimit="10" stroke-linecap="round"/>
<path d="M44.9983 63.907C55.4407 63.907 63.9059 55.4418 63.9059 44.9994C63.9059 34.557 55.4407 26.0918 44.9983 26.0918C34.5559 26.0918 26.0908 34.557 26.0908 44.9994C26.0908 55.4418 34.5559 63.907 44.9983 63.907Z" stroke="#242424" stroke-width="3.82" stroke-miterlimit="10" stroke-linecap="round"/>
<path d="M87.999 2H1.99902V88H87.999V2Z" stroke="#242424" stroke-width="3.82" stroke-miterlimit="10" stroke-linecap="round"/>
<path d="M44.9978 75.4116C61.7938 75.4116 75.4098 61.7958 75.4098 44.9998C75.4098 28.2037 61.7938 14.5879 44.9978 14.5879C28.2018 14.5879 14.5859 28.2037 14.5859 44.9998C14.5859 61.7958 28.2018 75.4116 44.9978 75.4116Z" stroke="#242424" stroke-width="3.82" stroke-miterlimit="10" stroke-linecap="round"/>
<path d="M44.9983 63.907C55.4407 63.907 63.9059 55.4418 63.9059 44.9994C63.9059 34.557 55.4407 26.0918 44.9983 26.0918C34.5559 26.0918 26.0908 34.557 26.0908 44.9994C26.0908 55.4418 34.5559 63.907 44.9983 63.907Z" stroke="#242424" stroke-width="3.82" stroke-miterlimit="10" stroke-linecap="round"/>
</svg>
