<svg width="32" height="32" viewBox="0 0 32 32" fill="none" xmlns="http://www.w3.org/2000/svg">
<path d="M22.7081 21.2926C22.801 21.3854 22.8748 21.4957 22.9251 21.6171C22.9754 21.7385 23.0013 21.8686 23.0013 22.0001C23.0013 22.1315 22.9754 22.2616 22.9251 22.383C22.8748 22.5044 22.801 22.6147 22.7081 22.7076L16.7081 28.7076C16.6152 28.8005 16.5049 28.8743 16.3835 28.9246C16.2621 28.9749 16.132 29.0008 16.0006 29.0008C15.8691 29.0008 15.739 28.9749 15.6176 28.9246C15.4962 28.8743 15.3859 28.8005 15.2931 28.7076L9.29306 22.7076C9.10541 22.5199 9 22.2654 9 22.0001C9 21.7347 9.10541 21.4802 9.29306 21.2926C9.4807 21.1049 9.73519 20.9995 10.0006 20.9995C10.2659 20.9995 10.5204 21.1049 10.7081 21.2926L16.0006 26.5863L21.2931 21.2926C21.3859 21.1996 21.4962 21.1258 21.6176 21.0755C21.739 21.0252 21.8691 20.9993 22.0006 20.9993C22.132 20.9993 22.2621 21.0252 22.3835 21.0755C22.5049 21.1258 22.6152 21.1996 22.7081 21.2926ZM10.7081 10.7076L16.0006 5.4138L21.2931 10.7076C21.4807 10.8952 21.7352 11.0006 22.0006 11.0006C22.2659 11.0006 22.5204 10.8952 22.7081 10.7076C22.8957 10.5199 23.0011 10.2654 23.0011 10.0001C23.0011 9.73469 22.8957 9.48019 22.7081 9.29255L16.7081 3.29255C16.6152 3.19958 16.5049 3.12582 16.3835 3.07549C16.2621 3.02517 16.132 2.99927 16.0006 2.99927C15.8691 2.99927 15.739 3.02517 15.6176 3.07549C15.4962 3.12582 15.3859 3.19958 15.2931 3.29255L9.29306 9.29255C9.10541 9.48019 9 9.73469 9 10.0001C9 10.2654 9.10542 10.5199 9.29306 10.7076C9.4807 10.8952 9.73519 11.0006 10.0006 11.0006C10.2659 11.0006 10.5204 10.8952 10.7081 10.7076Z" fill="black"/>
</svg>
