<svg width="32" height="32" viewBox="0 0 32 32" fill="none" xmlns="http://www.w3.org/2000/svg">
<path d="M7.23976 20.5768L15.4212 12.2444C15.4972 12.1669 15.5874 12.1054 15.6867 12.0635C15.786 12.0216 15.8925 12 16 12C16.1075 12 16.214 12.0216 16.3133 12.0635C16.4126 12.1054 16.5029 12.1669 16.5788 12.2444L24.7602 20.5768C24.9138 20.7331 25 20.9452 25 21.1663C25 21.3874 24.9138 21.5995 24.7602 21.7558C24.6067 21.9122 24.3985 22 24.1814 22C23.9643 22 23.7561 21.9122 23.6026 21.7558L16 14.0119L8.39743 21.7558C8.32142 21.8332 8.23118 21.8946 8.13186 21.9365C8.03254 21.9784 7.9261 22 7.8186 22C7.7111 22 7.60465 21.9784 7.50533 21.9365C7.40602 21.8946 7.31577 21.8332 7.23976 21.7558C7.16375 21.6784 7.10345 21.5865 7.06231 21.4853C7.02118 21.3842 7 21.2758 7 21.1663C7 21.0568 7.02118 20.9484 7.06231 20.8473C7.10345 20.7461 7.16375 20.6542 7.23976 20.5768Z" fill="black"/>
</svg>
