<svg width="32" height="32" viewBox="0 0 32 32" fill="none" xmlns="http://www.w3.org/2000/svg">
<path d="M20.7083 25.2924C20.8012 25.3854 20.8749 25.4957 20.9252 25.6171C20.9755 25.7384 21.0013 25.8686 21.0013 25.9999C21.0013 26.1313 20.9755 26.2614 20.9252 26.3828C20.8749 26.5042 20.8012 26.6145 20.7083 26.7074C20.6154 26.8004 20.5051 26.8741 20.3837 26.9243C20.2623 26.9746 20.1322 27.0005 20.0008 27.0005C19.8694 27.0005 19.7393 26.9746 19.6179 26.9243C19.4965 26.8741 19.3862 26.8004 19.2933 26.7074L9.29329 16.7074C9.20031 16.6146 9.12655 16.5043 9.07623 16.3829C9.0259 16.2615 9 16.1314 9 15.9999C9 15.8685 9.0259 15.7384 9.07623 15.617C9.12655 15.4956 9.20031 15.3853 9.29329 15.2924L19.2933 5.29245C19.4809 5.10481 19.7354 4.99939 20.0008 4.99939C20.2662 4.99939 20.5206 5.1048 20.7083 5.29245C20.8959 5.48009 21.0013 5.73458 21.0013 5.99995C21.0013 6.26531 20.8959 6.5198 20.7083 6.70745L11.4145 15.9999L20.7083 25.2924Z" fill="black"/>
</svg>
