<svg width="20" height="18" viewBox="0 0 20 18" fill="none" xmlns="http://www.w3.org/2000/svg">
<path d="M19.3658 0.893462C19.2504 0.626753 19.0591 0.399864 18.8157 0.241013C18.5723 0.0821617 18.2877 -0.00164211 17.997 2.43794e-05H1.49705C1.20673 0.000596404 0.922821 0.0854027 0.679756 0.244155C0.436692 0.402908 0.244919 0.628785 0.127702 0.894384C0.0104851 1.15998 -0.0271385 1.45389 0.0193952 1.74045C0.065929 2.02701 0.19462 2.29391 0.389858 2.50877L0.397358 2.51721L6.74705 9.29721V16.5C6.74698 16.7715 6.8206 17.0379 6.96004 17.2708C7.09948 17.5038 7.29953 17.6945 7.53885 17.8227C7.77816 17.9508 8.04778 18.0117 8.31894 17.9986C8.59011 17.9856 8.85266 17.8993 9.07861 17.7488L12.0786 15.7481C12.2843 15.6112 12.4529 15.4255 12.5695 15.2076C12.6861 14.9898 12.7471 14.7465 12.747 14.4994V9.29721L19.0977 2.51721L19.1052 2.50877C19.3025 2.29489 19.4324 2.02764 19.4788 1.74037C19.5251 1.4531 19.4858 1.15854 19.3658 0.893462ZM11.4514 8.4919C11.3217 8.62945 11.2487 8.81094 11.247 9.00002V14.4994L8.24705 16.5V9.00002C8.2471 8.80958 8.17471 8.62624 8.04454 8.48721L1.49705 1.50002H17.997L11.4514 8.4919Z" fill="#F9F8F6"/>
</svg>
