<svg width="32" height="32" viewBox="0 0 32 32" fill="none" xmlns="http://www.w3.org/2000/svg">
<path d="M28.4999 21.8749C28.3857 21.9401 28.2598 21.982 28.1293 21.9984C27.9989 22.0148 27.8665 22.0054 27.7397 21.9705C27.6129 21.9357 27.4942 21.8762 27.3904 21.7955C27.2867 21.7147 27.1999 21.6143 27.1349 21.4999L24.7599 17.3499C23.3792 18.2835 21.856 18.9868 20.2499 19.4324L20.9837 23.8349C21.0053 23.9645 21.0012 24.0971 20.9716 24.2252C20.942 24.3532 20.8874 24.4741 20.811 24.581C20.7346 24.6879 20.6379 24.7788 20.5264 24.8483C20.4149 24.9178 20.2908 24.9647 20.1612 24.9862C20.1079 24.9949 20.054 24.9995 19.9999 24.9999C19.7634 24.9996 19.5346 24.9154 19.3542 24.7623C19.1739 24.6092 19.0537 24.3971 19.0149 24.1637L18.2937 19.8412C16.7727 20.0529 15.2297 20.0529 13.7087 19.8412L12.9874 24.1637C12.9486 24.3975 12.828 24.6099 12.6472 24.7631C12.4663 24.9162 12.2369 25.0002 11.9999 24.9999C11.9447 24.9997 11.8895 24.9951 11.8349 24.9862C11.7053 24.9647 11.5812 24.9178 11.4697 24.8483C11.3582 24.7788 11.2615 24.6879 11.1851 24.581C11.1087 24.4741 11.0541 24.3532 11.0245 24.2252C10.9949 24.0971 10.9908 23.9645 11.0124 23.8349L11.7499 19.4324C10.1445 18.9854 8.62219 18.2809 7.24244 17.3462L4.87494 21.4999C4.74233 21.731 4.52336 21.8999 4.2662 21.9696C4.00904 22.0392 3.73476 22.0038 3.50369 21.8712C3.27262 21.7386 3.10369 21.5196 3.03407 21.2625C2.96444 21.0053 2.99983 20.731 3.13244 20.4999L5.63244 16.1249C4.75431 15.3663 3.94683 14.5295 3.21994 13.6249C3.12928 13.5237 3.06021 13.4051 3.01693 13.2763C2.97365 13.1475 2.95707 13.0112 2.96821 12.8758C2.97934 12.7404 3.01796 12.6087 3.0817 12.4887C3.14544 12.3687 3.23296 12.2629 3.33893 12.1779C3.4449 12.0928 3.56708 12.0303 3.69803 11.994C3.82898 11.9578 3.96595 11.9486 4.10056 11.967C4.23518 11.9855 4.36463 12.0311 4.48101 12.1013C4.59738 12.1714 4.69824 12.2645 4.77744 12.3749C6.85244 14.9424 10.4824 17.9999 15.9999 17.9999C21.5174 17.9999 25.1474 14.9387 27.2224 12.3749C27.3007 12.2623 27.4014 12.1669 27.5181 12.0948C27.6348 12.0227 27.7651 11.9754 27.9009 11.9558C28.0367 11.9362 28.1751 11.9448 28.3074 11.981C28.4398 12.0172 28.5632 12.0802 28.6702 12.1662C28.7771 12.2521 28.8652 12.3592 28.929 12.4806C28.9928 12.6021 29.0309 12.7354 29.041 12.8722C29.051 13.0091 29.0328 13.1465 28.9875 13.276C28.9421 13.4055 28.8706 13.5243 28.7774 13.6249C28.0505 14.5295 27.2431 15.3663 26.3649 16.1249L28.8649 20.4999C28.932 20.614 28.9759 20.7402 28.9938 20.8713C29.0118 21.0024 29.0036 21.1358 28.9696 21.2637C28.9357 21.3916 28.8767 21.5115 28.796 21.6164C28.7154 21.7213 28.6148 21.8092 28.4999 21.8749Z" fill="black"/>
</svg>
