<svg width="18" height="18" viewBox="0 0 18 18" fill="none" xmlns="http://www.w3.org/2000/svg">
<g clip-path="url(#clip0_2346_1897127)">
<path d="M9 15.75C12.7279 15.75 15.75 12.7279 15.75 9C15.75 5.27208 12.7279 2.25 9 2.25C5.27208 2.25 2.25 5.27208 2.25 9C2.25 12.7279 5.27208 15.75 9 15.75Z" stroke="#242424" stroke-width="2" stroke-linecap="round" stroke-linejoin="round"/>
<path d="M8.4375 8.4375C8.58668 8.4375 8.72976 8.49676 8.83525 8.60225C8.94074 8.70774 9 8.85082 9 9V11.8125C9 11.9617 9.05926 12.1048 9.16475 12.2102C9.27024 12.3157 9.41332 12.375 9.5625 12.375" stroke="#242424" stroke-width="2" stroke-linecap="round" stroke-linejoin="round"/>
<path d="M9 7C9.55228 7 10 6.55228 10 6C10 5.44772 9.55228 5 9 5C8.44772 5 8 5.44772 8 6C8 6.55228 8.44772 7 9 7Z" fill="#242424"/>
</g>
<defs>
<clipPath id="clip0_2346_1897127">
<rect width="18" height="18" fill="white"/>
</clipPath>
</defs>
</svg>
