<svg width="28" height="28" viewBox="0 0 28 28" fill="none" xmlns="http://www.w3.org/2000/svg">
<path d="M24.0625 5.15649V10.3127C24.0625 10.5407 23.972 10.7592 23.8108 10.9204C23.6496 11.0816 23.431 11.1721 23.2031 11.1721H18.0469C17.819 11.1721 17.6004 11.0816 17.4392 10.9204C17.278 10.7592 17.1875 10.5407 17.1875 10.3127C17.1875 10.0848 17.278 9.86623 17.4392 9.70507C17.6004 9.54391 17.819 9.45336 18.0469 9.45336H21.1288L19.5572 7.88178C17.96 6.27733 15.7915 5.37214 13.5276 5.36489H13.4793C11.2344 5.35963 9.0776 6.23831 7.47549 7.81088C7.31137 7.96409 7.09381 8.04699 6.86935 8.04184C6.6449 8.03669 6.43137 7.9439 6.27445 7.78333C6.11753 7.62276 6.02967 7.40716 6.02969 7.18264C6.0297 6.95813 6.11757 6.74253 6.27451 6.58198C8.21619 4.68426 10.8279 3.62882 13.5429 3.64471C16.2579 3.6606 18.8571 4.74653 20.7765 6.66684L22.3438 8.23842V5.15649C22.3438 4.92857 22.4343 4.70998 22.5955 4.54882C22.7566 4.38766 22.9752 4.29711 23.2031 4.29711C23.431 4.29711 23.6496 4.38766 23.8108 4.54882C23.972 4.70998 24.0625 4.92857 24.0625 5.15649ZM20.0245 19.6896C18.4066 21.27 16.2308 22.1489 13.9691 22.1356C11.7074 22.1224 9.54206 21.218 7.94277 19.6187L6.37119 18.0471H9.45312C9.68105 18.0471 9.89963 17.9566 10.0608 17.7954C10.222 17.6342 10.3125 17.4157 10.3125 17.1877C10.3125 16.9598 10.222 16.7412 10.0608 16.5801C9.89963 16.4189 9.68105 16.3284 9.45312 16.3284H4.29688C4.06895 16.3284 3.85037 16.4189 3.68921 16.5801C3.52804 16.7412 3.4375 16.9598 3.4375 17.1877V22.344C3.4375 22.5719 3.52804 22.7905 3.68921 22.9517C3.85037 23.1128 4.06895 23.2034 4.29688 23.2034C4.5248 23.2034 4.74338 23.1128 4.90454 22.9517C5.06571 22.7905 5.15625 22.5719 5.15625 22.344V19.2621L6.72783 20.8336C8.64447 22.7599 11.2475 23.8464 13.9648 23.8543H14.0218C16.716 23.8613 19.3045 22.8065 21.2266 20.9185C21.3835 20.7579 21.4714 20.5424 21.4714 20.3178C21.4714 20.0933 21.3835 19.8777 21.2266 19.7171C21.0697 19.5566 20.8562 19.4638 20.6317 19.4586C20.4073 19.4535 20.1897 19.5364 20.0256 19.6896H20.0245Z" fill="#242424"/>
</svg>
