<svg width="24" height="24" viewBox="0 0 24 24" fill="none" xmlns="http://www.w3.org/2000/svg">
<path d="M21.5308 20.4686L16.8368 15.7755C18.1973 14.1421 18.8757 12.047 18.7309 9.92618C18.5861 7.80531 17.6293 5.82191 16.0593 4.38859C14.4894 2.95526 12.4274 2.18235 10.3021 2.23065C8.17687 2.27895 6.15205 3.14474 4.64888 4.64791C3.14571 6.15108 2.27993 8.1759 2.23163 10.3012C2.18333 12.4264 2.95623 14.4885 4.38956 16.0584C5.82289 17.6283 7.80629 18.5852 9.92715 18.73C12.048 18.8748 14.1431 18.1963 15.7765 16.8358L20.4696 21.5299C20.5393 21.5995 20.622 21.6548 20.713 21.6925C20.8041 21.7302 20.9017 21.7497 21.0002 21.7497C21.0988 21.7497 21.1963 21.7302 21.2874 21.6925C21.3784 21.6548 21.4612 21.5995 21.5308 21.5299C21.6005 21.4602 21.6558 21.3775 21.6935 21.2864C21.7312 21.1954 21.7506 21.0978 21.7506 20.9992C21.7506 20.9007 21.7312 20.8031 21.6935 20.7121C21.6558 20.621 21.6005 20.5383 21.5308 20.4686ZM3.75021 10.4992C3.75021 9.16421 4.14609 7.85917 4.88779 6.74914C5.62949 5.63911 6.6837 4.77394 7.9171 4.26305C9.1505 3.75216 10.5077 3.61849 11.8171 3.87894C13.1264 4.13939 14.3292 4.78226 15.2732 5.72627C16.2172 6.67027 16.8601 7.87301 17.1205 9.18238C17.381 10.4918 17.2473 11.849 16.7364 13.0824C16.2255 14.3158 15.3603 15.37 14.2503 16.1117C13.1403 16.8534 11.8352 17.2492 10.5002 17.2492C8.71061 17.2473 6.99488 16.5355 5.72944 15.27C4.464 14.0046 3.7522 12.2888 3.75021 10.4992Z" fill="black"/>
</svg>
