<svg width="77" height="77" viewBox="0 0 77 77" fill="none" xmlns="http://www.w3.org/2000/svg">
<rect x="4" y="4" width="69" height="69" rx="34.5" stroke="#242424" stroke-width="7"/>
<path d="M26.4129 50.7575H16.7781V45.7615H26.4129C30.3498 45.7615 33.5523 42.559 33.5523 38.6221C33.5523 34.6853 30.3498 31.4853 26.4129 31.4853H16.7781V26.4893H26.4129C33.1026 26.4893 38.5483 31.9324 38.5483 38.6221C38.5483 45.3118 33.1051 50.7575 26.4129 50.7575Z" fill="#242424"/>
<path d="M47.0391 26.709H42.0431V44.1352H47.0391V26.709Z" fill="#242424"/>
<path d="M19.2936 37.8601C20.6829 37.8601 21.8091 36.7339 21.8091 35.3446C21.8091 33.9553 20.6829 32.8291 19.2936 32.8291C17.9043 32.8291 16.7781 33.9553 16.7781 35.3446C16.7781 36.7339 17.9043 37.8601 19.2936 37.8601Z" fill="#242424"/>
<path d="M19.2936 44.1331C20.6829 44.1331 21.8091 43.0068 21.8091 41.6176C21.8091 40.2283 20.6829 39.1021 19.2936 39.1021C17.9043 39.1021 16.7781 40.2283 16.7781 41.6176C16.7781 43.0068 17.9043 44.1331 19.2936 44.1331Z" fill="#242424"/>
<path d="M57.1957 50.7752C58.585 50.7752 59.7112 49.6489 59.7112 48.2596C59.7112 46.8704 58.585 45.7441 57.1957 45.7441C55.8064 45.7441 54.6802 46.8704 54.6802 48.2596C54.6802 49.6489 55.8064 50.7752 57.1957 50.7752Z" fill="#242424"/>
<path d="M50.9265 50.7752C52.3158 50.7752 53.442 49.6489 53.442 48.2596C53.442 46.8704 52.3158 45.7441 50.9265 45.7441C49.5372 45.7441 48.411 46.8704 48.411 48.2596C48.411 49.6489 49.5372 50.7752 50.9265 50.7752Z" fill="#242424"/>
<path d="M44.6534 50.7752C46.0427 50.7752 47.169 49.6489 47.169 48.2596C47.169 46.8704 46.0427 45.7441 44.6534 45.7441C43.2642 45.7441 42.1379 46.8704 42.1379 48.2596C42.1379 49.6489 43.2642 50.7752 44.6534 50.7752Z" fill="#242424"/>
</svg>
