<svg width="1196" height="904" viewBox="0 0 1196 904" fill="none" xmlns="http://www.w3.org/2000/svg">
    <g opacity="0.05">
        <path
            d="M495.098 857.234C482.766 842.621 470.306 828.13 458.289 813.265C448.698 801.405 439.376 789.35 427.309 779.844C415.213 770.31 402.63 761.357 390.835 751.475C375.208 738.385 357.861 727.408 343.503 712.725C340.328 709.483 336.025 707.328 332.15 704.817C329.51 703.101 326.587 701.816 324.007 700.033C296.263 680.779 269.446 660.305 244.138 637.912C242.763 636.689 241.296 635.367 240.465 633.779C237.869 628.811 233.533 625.668 229.401 622.203C224.032 617.68 218.807 612.96 213.738 608.09C210.262 604.762 207.307 600.905 203.86 597.549C192.163 586.16 180.037 575.194 168.657 563.495C153.642 548.081 139.183 532.134 124.497 516.402C123.743 515.594 123.038 514.716 122.409 513.798C121.284 512.148 121.398 510.348 123.217 509.611C124.028 509.28 125.854 510.198 126.584 511.069C129.429 514.47 131.786 518.293 134.733 521.59C143.27 531.131 152.197 540.333 160.635 549.968C180.006 572.075 202.28 591.153 223.854 610.962C232.873 619.236 242.527 626.822 251.592 635.038C262.85 645.252 273.308 656.404 285.002 666.06C299.575 678.086 314.347 690.085 331.177 698.958C341.937 704.632 351.901 711.337 360.865 719.44C381.16 737.784 403.53 753.416 425.329 769.806C433.131 775.671 440.399 782.506 446.818 789.86C454.599 798.764 461.23 808.693 468.367 818.169C469.152 819.212 469.995 820.198 470.85 821.175C482.749 834.807 494.65 848.429 506.552 862.05C500.346 848.892 493.099 836.348 482.887 826.091C470.332 813.473 465.567 796.375 456.071 782.049C455.766 781.597 455.66 781.016 455.472 780.498C451.193 768.428 446.837 756.398 442.67 744.283C440.327 737.453 436.449 731.635 431.666 726.38C418.843 712.315 407.778 696.987 398.858 680.182C392.859 668.869 387.488 657.22 381.513 645.9C374.098 631.873 365.506 618.729 352.656 608.82C348.131 605.329 343.649 601.414 340.283 596.855C330.162 583.117 320.539 569.015 310.861 554.958C306.228 548.23 302.193 541.091 297.396 534.488C289.433 523.515 280.969 512.917 272.939 501.988C269.983 497.971 267.32 493.651 265.137 489.157C248.154 454.233 234.03 418.071 219.24 382.204C215.565 373.293 211.078 364.725 206.851 356.052C206.045 354.401 204.908 352.863 203.675 351.51C203.053 350.833 201.842 350.681 200.895 350.301C200.785 351.315 200.32 352.449 200.618 353.31C202.478 358.751 204.521 364.127 206.464 369.551C208.716 375.838 210.858 382.159 213.147 388.43C216.142 396.617 219.221 404.776 222.29 412.933C224.442 418.663 226.302 424.537 228.909 430.054C235.659 444.318 243.29 458.185 249.602 472.631C259.202 494.573 271.598 514.706 286.189 533.611C296.395 546.832 306.875 559.893 316.253 573.693C325.238 586.92 334.336 599.988 344.548 612.309C351.048 620.147 356.879 628.563 362.734 636.916C365.712 641.154 368.049 645.839 370.694 650.304C381.483 668.47 392.295 686.641 403.087 704.796C403.272 705.108 403.453 705.443 403.596 705.792C407.137 714.31 412.521 721.595 418.474 728.554C423.421 734.334 428.574 739.997 432.886 746.247C438.983 755.084 444.44 764.357 449.995 773.547C450.869 774.985 451.462 777.161 451.06 778.696C450.015 782.65 446.229 783.089 442.901 779.872C437.175 774.328 431.702 768.507 425.724 763.241C414.307 753.188 402.24 743.842 391.114 733.484C377.547 720.848 363.728 708.273 351.779 694.174C339.565 679.758 326.379 666.609 311.648 654.96C296.514 642.999 283.657 628.334 267.242 617.917C265.723 616.949 264.522 615.387 263.351 613.956C254.744 603.498 245.702 593.372 238.995 581.466C237.09 578.091 234.557 575.052 232.156 571.983C208.833 542.014 181.489 515.728 155.298 488.407C143.789 476.396 133.506 463.593 125.609 448.929C121.956 442.143 117.415 436.061 111.083 431.565C109.813 430.66 106.978 429.987 106.289 430.663C105.039 431.895 104.139 434.341 104.443 436.046C104.682 437.408 106.768 438.665 108.294 439.544C111.693 441.499 115.219 443.172 116.604 447.282C121.137 460.751 129.414 471.971 138.78 482.291C151.628 496.452 165.296 509.862 178.115 524.052C193.917 541.535 209.222 559.483 224.727 577.235C227.901 580.864 231.085 584.496 234.173 588.209C235.301 589.574 235.941 591.145 233.942 592.471C231.934 593.783 231.015 592.451 229.912 591.023C225.634 585.429 221.357 579.824 216.898 574.386C212.43 568.935 207.783 563.629 203.15 558.314C190.582 543.903 178.453 529.083 165.273 515.251C148.494 497.643 131.166 480.593 116.609 460.977C113.115 456.266 108.453 452.393 104.121 448.362C103.099 447.418 100.287 446.635 99.8773 447.119C98.6936 448.525 97.9571 450.571 97.7475 452.443C97.661 453.291 99.0575 454.735 100.091 455.191C104.998 457.348 107.625 461.626 110.442 465.762C112.42 468.674 114.092 471.852 116.375 474.508C129.042 489.316 141.648 504.202 154.705 518.67C162.524 527.342 171.3 535.144 179.338 543.635C186.996 551.715 194.392 560.06 201.641 568.511C210.595 578.949 219.861 588.929 230.781 597.487C241.42 605.816 250.667 615.939 261.39 624.137C272.475 632.616 282.923 641.692 293.113 651.18C302.617 660.024 312.506 668.446 322.273 677.014C324.642 679.095 327.161 681.002 329.623 682.966C331.303 684.31 334.15 685.522 332.186 688.098C330.219 690.684 328.119 688.135 326.532 686.948C323.279 684.511 320.242 681.754 317.178 679.071C314.664 676.868 312.344 674.444 309.75 672.35C293.84 659.576 277.669 647.124 262.002 634.06C252.47 626.111 244.036 616.842 234.475 608.922C214.372 592.271 196.376 573.668 179.778 553.567C164.526 535.093 148.305 517.489 130.72 501.172C127.619 498.288 124.714 495.011 122.439 491.444C115.944 481.247 107.098 473.397 97.9238 465.809C96.3488 464.509 94.829 462.675 92.7136 464.717C90.6844 466.675 91.4462 468.591 92.995 470.614C95.0197 473.25 96.7601 476.1 98.6131 478.849C101.481 483.121 104.175 487.516 107.272 491.62C109.612 494.71 112.565 497.324 115.039 500.316C115.685 501.101 115.545 502.531 115.775 503.663C114.768 503.247 113.467 503.088 112.786 502.364C108.349 497.638 104.287 492.534 99.6019 488.063C95.3577 483.993 90.6013 480.409 85.8083 476.999C84.7471 476.241 82.5397 477.09 80.8534 477.193C81.3042 478.416 81.4121 480.023 82.263 480.806C93.4728 491.033 101.754 503.645 111.129 515.392C118.517 524.647 126.447 533.548 134.895 541.828C152.255 558.839 170.22 575.247 187.754 592.078C199.536 603.382 210.578 615.501 222.752 626.352C242.155 643.619 262.09 660.315 282.093 676.898C296.229 688.616 310.761 699.858 325.281 711.098C330.55 715.177 336.836 718.045 341.745 722.482C358.211 737.333 376.617 749.569 394.384 762.674C414.463 777.484 432.915 794.017 449.227 813.032C465.631 832.157 480.794 852.527 501.155 867.943C502.414 868.903 503.75 869.764 505.055 870.664C505.42 870.228 505.785 869.791 506.151 869.354C503.944 866.715 501.806 864.021 499.514 861.465C498.153 859.96 496.373 858.823 495.067 857.273L495.098 857.234Z"
            fill="#3A7FA3" />
        <path
            d="M492.072 877.353C488.136 875.297 484.173 873.258 480.089 871.525C456.926 861.645 435.571 847.811 411.379 840.178C411.025 840.069 410.701 839.876 410.372 839.705C401.154 834.935 391.995 830.052 382.731 825.398C355.237 811.589 327.716 797.854 300.179 784.139C290.908 779.518 281.657 774.798 272.219 770.54C254.573 762.569 237.358 754.014 223.233 740.338C221.385 738.548 219.239 736.981 217.011 735.694C196.469 723.808 175.837 712.075 155.312 700.16C134.321 687.964 113.457 675.544 92.4664 663.348C80.7658 656.553 68.7217 650.473 55.7021 646.492C49.5099 644.59 43.426 642.335 37.353 640.083C35.0146 639.217 33.0259 638.64 31.9179 641.59C30.8414 644.443 31.9611 646.228 34.7611 647.122C36.6947 647.744 38.952 647.909 40.5331 649.015C52.1822 657.145 65.3886 662.249 77.9245 668.648C79.8199 669.616 83.0085 669.417 83.0257 672.818C80.8348 672.337 78.5539 672.121 76.4708 671.343C62.816 666.202 50.3673 657.916 35.5649 655.751C34.4916 655.595 33.515 654.922 32.4679 654.532C31.1984 654.061 29.9087 653.631 28.6346 653.182C28.1741 654.727 27.3503 656.265 27.3208 657.821C27.2455 661.773 32.3182 667.169 35.9245 666.282C41.3317 664.963 45.3391 667.387 49.4581 669.824C62.5402 677.535 75.5643 685.36 88.5884 693.185C89.0957 693.485 89.3539 694.212 90.3998 695.696C88.1558 695.032 86.9383 694.857 85.8968 694.331C80.7724 691.741 75.7955 688.829 70.5529 686.477C64.6738 683.843 58.7307 681.024 52.524 679.519C47.3154 678.257 41.9313 677.996 37.3516 674.711C36.6079 674.179 35.1726 674.608 34.0587 674.591C34.596 675.673 34.8366 677.137 35.704 677.786C40.3086 681.225 44.8838 684.749 49.7948 687.704C60.7353 694.317 71.8491 700.647 82.9342 707.006C86.1415 708.84 89.4442 710.547 92.8075 712.072C100.014 715.338 107.421 718.189 114.511 721.681C120.981 724.872 127.013 728.952 133.482 732.142C142.774 736.722 152.479 740.466 161.641 745.281C176.731 753.208 191.19 762.348 206.491 769.806C236.962 784.648 267.785 798.733 298.536 812.996C302.381 814.781 306.632 815.661 310.66 817.063C317.111 819.304 323.764 821.13 329.938 823.986C353.308 834.787 375.619 847.864 399.927 856.638C408.101 859.582 416.419 862.168 424.753 864.62C427.362 865.395 430.341 864.89 433.002 865.573C434.452 865.945 435.58 867.584 436.851 868.648C435.575 870.057 434.543 872.155 432.966 872.714C430.647 873.551 427.942 873.293 425.39 873.499C429.339 874.68 433.368 875.204 437.362 875.95C452.657 878.812 468.217 880.737 482.415 887.747C485.475 889.254 486.711 887.598 488.483 884.582C475.465 879.666 462.818 874.885 450.182 870.106C442.733 867.292 435.298 864.469 427.826 861.707C423.487 860.102 418.934 858.977 414.776 857C408.772 854.147 403.188 850.377 397.161 847.576C381.187 840.171 364.981 833.276 349.045 825.799C331.093 817.386 313.498 808.194 295.454 800.002C276.045 791.193 256.342 783.03 236.67 774.827C211.472 764.316 187.481 751.366 163.492 738.462C143.919 727.932 124.766 716.6 105.474 705.547C103.712 704.539 102.313 702.889 100.75 701.536C101.1 701.062 101.45 700.588 101.8 700.114C103.095 700.681 104.479 701.097 105.654 701.856C136.173 721.692 168.869 737.559 201.189 754.078C216.339 761.823 232.184 768.209 247.757 775.131C258.762 780.025 269.792 784.901 280.882 789.606C288.713 792.934 296.873 795.567 304.542 799.237C322.752 807.943 340.511 817.66 358.922 825.895C380.574 835.584 402.746 844.105 424.657 853.21C433.731 856.98 442.669 861.064 451.752 864.791C464.268 869.921 476.861 874.851 489.423 879.876C489.759 880.015 490.096 880.417 490.39 880.375C491.525 880.237 492.65 879.982 493.779 879.763C493.209 878.948 492.823 877.795 492.041 877.392L492.072 877.353ZM235.755 762.105C234.525 762.748 232.28 763.395 231.57 762.756C218.322 750.882 202.397 743.248 187.136 734.613C163.284 721.11 139.17 708.09 115.333 694.568C108.596 690.751 102.393 685.962 96.0444 681.486C94.8417 680.641 94.089 679.172 93.1279 677.99C93.4425 677.577 93.7461 677.162 94.0606 676.749C96.2683 677.804 98.9024 678.402 100.611 679.991C112.939 691.41 128.49 697.403 142.832 705.413C169.023 720.055 195.301 734.555 221.467 749.26C226.293 751.97 230.793 755.307 235.254 758.613C235.965 759.138 236.137 761.911 235.755 762.105Z"
            fill="#3A7FA3" />
        <path
            d="M220.766 374.543C224.347 383.901 227.406 393.47 231.224 402.73C236.522 415.595 242.604 428.146 247.839 441.044C259.376 469.468 273.555 496.166 294.746 518.837C300.222 524.704 303.939 532.267 308.239 539.177C317.267 553.667 325.846 568.451 335.218 582.717C339.456 589.157 344.51 595.404 352.19 598.312C354.133 599.05 356.424 598.891 358.55 599.143C358.377 597.191 358.644 595.046 357.946 593.315C354.964 585.941 351.8 578.619 348.482 571.379C345.301 564.465 341.742 557.722 338.609 550.794C338.079 549.623 338.388 546.951 339.145 546.551C341.225 545.436 342.468 547.178 343.204 549.054C343.405 549.564 343.452 550.155 343.666 550.656C346.493 557.303 349.304 563.969 352.205 570.586C355.173 577.376 358.34 584.082 361.233 590.902C362.53 593.967 363.162 597.315 364.483 600.374C371.294 616.088 379.163 631.213 389.216 645.166C395.629 654.069 400.842 663.587 403.972 674.333C408.527 689.985 419.759 701.413 430.292 713.186C430.411 713.325 430.545 713.501 430.704 713.557C431.507 713.862 432.577 714.577 433.081 714.294C433.686 713.965 434.207 712.729 434.107 711.955C433.596 707.915 433.066 703.858 432.211 699.882C427.917 680.158 420.281 661.307 417.237 641.218C415.822 631.914 412.654 622.87 410.235 613.731C404.483 592.037 400.603 569.845 392.655 548.729C391.366 545.3 390.914 541.523 390.394 537.856C388.435 523.912 386.912 509.899 384.654 496.017C382.691 483.941 378.946 472.097 377.769 459.97C374.486 426.273 366.811 393.4 359.903 360.404C354.073 332.604 348.696 304.763 344.839 276.636C344.543 274.51 344.694 272.318 344.633 270.162C345.008 270.115 345.382 270.068 345.757 270.021C346.209 272.111 346.811 274.187 347.064 276.304C349.954 300.5 355.908 324.061 361.754 347.645C362.335 349.99 363.087 352.28 363.801 354.584C370.999 377.653 376.737 401.044 379.864 425.039C381.354 436.434 383.065 447.807 384.73 459.181C386.32 469.993 387.99 480.798 389.628 491.597C391.647 504.984 393.238 518.453 395.805 531.727C398.373 545.001 401.916 558.08 405.042 571.243C405.516 573.223 406.072 575.198 406.581 577.175C413.299 603.404 420.076 629.623 426.721 655.872C431.182 673.499 435.449 691.177 439.789 708.835C440.759 712.801 442.219 716.721 442.598 720.735C444.014 735.751 449.044 749.678 455.062 763.298C460.912 776.519 467.04 789.615 473.043 802.765C475.137 807.354 479.751 813.143 483.616 815.868C483.228 814.727 482.916 813.874 482.639 813.018C478.549 799.939 473.241 787.174 472.714 773.198C472.156 758.168 470.54 743.292 467.703 728.479C466.547 722.456 467.7 715.97 467.998 709.704C468.182 705.832 469.138 701.973 469.02 698.129C468.409 678.674 467.294 659.228 466.866 639.766C466.565 626.237 466.95 612.692 467.274 599.169C467.971 570.205 467.244 541.342 463.815 512.53C462.483 501.361 462.768 489.985 462.557 478.687C462.31 465.716 462.832 452.714 462.136 439.763C460.766 414.403 458.442 389.082 457.166 363.708C456.342 347.23 456.943 330.697 456.421 314.192C455.275 277.693 456.316 241.094 451.238 204.752C450.525 199.609 452.376 194.147 452.639 188.809C452.989 181.585 452.687 174.316 453.138 167.101C454.13 150.879 453.102 134.883 449.53 119.004C448.436 114.157 448.327 109.072 448.002 104.089C447.444 95.3752 446.934 86.7054 443.483 78.4685C441.561 73.8701 441.453 69.1611 443.851 64.464C445.571 61.0958 444.546 58.749 440.895 57.8359C438.663 57.2773 436.067 57.2581 433.821 57.8024C429.82 58.7772 429.227 60.5228 431.115 64.1908C434.561 70.8758 435.971 77.7503 433.746 85.163C433.285 86.7084 433.28 88.4747 433.416 90.1109C434.385 101.545 435.494 112.963 436.417 124.398C436.559 126.116 436.015 127.894 435.785 129.648C435.268 129.608 434.75 129.579 434.245 129.542C434.015 127.806 433.703 126.087 433.576 124.351C433.168 118.621 432.603 112.882 432.507 107.138C432.272 93.4515 424.743 81.1678 424.995 67.3898C425.003 66.753 423.57 65.4836 422.884 65.5453C420.702 65.7268 418.39 66.0407 416.432 66.9531C413.346 68.4047 412.601 72.2851 414.074 75.273C415.359 77.9024 416.806 80.6799 417.137 83.5085C417.974 90.6733 418.274 97.8966 418.701 105.112C419.966 126.562 421.174 148.012 422.426 169.471C423.414 186.313 424.436 203.152 425.413 219.992C426.428 237.57 427.479 255.144 428.39 272.735C429.765 299.213 430.642 325.724 432.482 352.164C434.396 379.713 437.215 407.19 439.616 434.704C439.813 436.923 439.928 439.148 440.011 441.366C440.465 453.787 440.77 466.21 441.375 478.617C442.343 498.602 441.342 518.677 444.246 538.566C444.585 540.918 444.125 543.387 444.191 545.795C444.405 554.3 444.456 562.817 445.03 571.295C445.448 577.574 446.549 583.802 447.372 590.052C448.084 595.469 447.33 600.647 445.908 605.97C444.546 611.055 443.492 616.684 444.223 621.797C447.038 641.291 448.97 660.703 448.048 680.509C447.666 688.753 450.348 697.399 452.864 705.474C459.944 728.176 465.73 751.178 470.046 774.555C470.209 775.467 470.561 776.453 470.35 777.298C470.084 778.406 469.577 780.01 468.775 780.298C467.813 780.644 466.174 780.141 465.31 779.424C464.397 778.663 463.786 777.28 463.482 776.065C461.37 767.641 459.187 759.225 457.375 750.728C455.739 743.133 454.895 735.351 453.066 727.807C447.929 706.55 441.387 685.579 440.264 663.509C440.21 662.403 439.296 661.322 438.735 660.247C437.231 657.355 435.155 654.64 434.27 651.57C426.84 625.909 419.531 600.217 412.402 574.483C408.346 559.826 403.637 545.237 401.111 530.295C397.77 510.588 396.24 490.565 393.976 470.673C393.476 466.258 393.269 461.802 392.709 457.398C389.952 435.886 387.168 414.391 384.292 392.9C383.214 384.819 382.492 376.617 380.506 368.733C375.835 350.207 370.499 331.861 365.455 313.427C360.206 294.233 355.947 274.937 356.69 254.786C357.2 241.028 355.667 227.389 352.772 213.887C350.481 203.213 348.573 192.449 346.473 181.736C346.184 180.285 345.863 178.826 345.343 177.44C343.242 171.904 341.018 166.409 338.93 160.864C336.772 155.11 333.645 154.466 329.424 158.998C325.73 162.968 325.49 165.038 329.609 169.493C332.76 172.901 333.698 176.643 334.122 181.042C335.11 191.351 336.502 201.631 337.757 211.916C338.441 217.578 339.174 223.227 339.882 228.883C339.547 228.904 339.225 228.916 338.89 228.937C338.325 226.79 337.698 224.663 337.204 222.507C334.327 209.841 331.581 197.145 328.57 184.52C327.995 182.096 327 179.06 325.175 177.811C321.804 175.509 320.186 173.163 321.08 169.109C321.542 167.016 319.973 166.175 318.431 167.003C316.045 168.271 313.858 170.002 311.8 171.771C309.671 173.606 309.728 175.294 311.539 177.919C313.522 180.809 315.27 184.71 315.082 188.057C314.508 198.256 316.913 207.949 318.78 217.759C321.064 229.776 323.691 241.728 325.972 253.756C328.355 266.33 330.429 278.965 332.764 291.552C336.991 314.375 343.035 336.746 348.905 359.183C356.319 387.531 362.438 416.235 369.104 444.78C370.24 449.647 371.279 454.539 372.5 459.379C373.248 462.34 372.964 464.949 370.527 466.947C369.923 467.436 368.166 467.661 368.106 467.512C367.118 465.207 366.283 462.82 365.508 460.423C365.349 459.933 365.626 459.319 365.604 458.767C365.44 455.631 365.634 452.422 365.018 449.374C361.093 430.115 357.23 410.834 352.849 391.685C349.296 376.152 345.758 360.542 340.881 345.394C334.37 325.148 330.685 304.308 327.396 283.483C323.232 257.093 318.822 230.789 313.149 204.687C312.992 203.97 312.828 203.228 312.523 202.56C309.748 196.483 306.822 190.477 304.196 184.34C303.069 181.721 301.307 180.223 298.684 180.768C295.933 181.332 293.28 182.567 290.727 183.811C290.411 183.961 290.574 186.504 291.221 187.004C294.884 189.767 295.969 193.734 296.105 197.821C296.392 206.901 299.442 215.259 302.039 223.761C303.393 228.184 304.604 232.691 305.405 237.248C310.988 268.895 318.402 300.128 326.92 331.102C333.655 355.613 340.441 380.101 346.935 404.676C348.973 412.366 350.436 420.243 351.636 428.123C353.286 439.026 355.583 449.781 360.561 459.603C371.29 480.778 378.243 503.271 384.807 525.934C385.27 527.536 385.658 529.168 385.859 530.818C386.371 534.961 385.007 537.663 382.305 537.827C378.531 538.04 377.863 535.243 377.314 532.369C376.749 529.457 376.382 526.472 375.427 523.684C369.679 507.03 363.748 490.441 357.939 473.808C356.106 468.567 354.184 463.319 352.871 457.936C347.911 437.581 343.478 417.098 338.276 396.807C333.723 379.024 327.549 361.631 323.59 343.733C316.705 312.588 310.272 281.299 305.024 249.848C301.682 229.821 294.332 211.726 284.483 194.35C281.801 189.626 279.129 189.317 275.462 193.27C274.461 194.348 273.588 195.579 272.823 196.833C271.695 198.683 271.779 199.967 273.347 202.119C276.676 206.693 279.959 211.702 281.53 217.048C283.919 225.188 284.863 233.744 286.354 242.14C286.629 243.714 286.561 245.342 286.658 246.947C285.354 245.716 284.651 244.337 284.001 242.924C279.182 232.508 274.248 222.148 269.629 211.648C267.512 206.838 265.584 206.08 261.964 209.917C260.367 211.612 259.333 213.881 258.293 216.012C257.35 217.958 257.906 219.386 260.05 220.474C264.553 222.762 266.502 226.956 267.442 231.668C268.06 234.762 268.248 237.948 269.071 240.983C274.632 261.577 279.85 282.281 286.08 302.673C293.071 325.585 300.24 348.409 305.521 371.806C307.103 378.842 309.604 385.682 311.849 392.549C313.688 398.191 316.303 403.619 317.689 409.359C322.7 430.18 329.602 450.302 337.968 470.024C347.975 493.613 356.945 517.635 366.83 541.267C371.039 551.327 373.964 561.586 374.805 572.378C375.693 583.817 378.431 594.698 383.085 605.137C386.256 612.266 389.54 619.339 392.623 626.507C393.48 628.511 394.263 630.761 394.206 632.882C394.173 634.129 392.451 635.33 391.487 636.554C390.549 635.81 389.192 635.264 388.724 634.288C384.771 626.105 380.796 617.918 377.16 609.586C371.163 595.81 365.493 581.886 359.536 568.085C356.82 561.781 353.54 555.723 350.885 549.398C344.589 534.328 338.48 519.183 332.382 504.041C327.461 491.825 322.409 479.638 317.883 467.277C314.19 457.199 311.778 446.614 307.734 436.691C297.778 412.258 289.523 387.269 281.666 362.123C277.406 348.495 273.695 334.696 269.213 321.146C262.507 300.849 254.25 281.149 244.737 262.008C243.83 260.187 242.857 258.296 241.485 256.846C240.737 256.062 238.733 255.505 237.864 255.951C232.857 258.516 231.536 270.212 235.576 274.171C237.4 275.967 239.797 277.643 240.676 279.868C243.581 287.284 246.897 294.751 248.234 302.522C249.899 312.266 251.751 321.822 255.303 331.049C255.929 332.685 255.699 334.655 255.864 336.48C255.368 336.615 254.864 336.738 254.368 336.873C253.431 335.195 252.248 333.602 251.597 331.812C249.748 326.761 247.425 321.737 246.54 316.489C244.521 304.356 236.291 295.631 230.577 285.518C230.219 284.884 228.596 284.305 227.987 284.599C224.149 286.429 223.05 297.715 226.693 299.869C230.648 302.214 232.12 305.692 233.149 309.761C234.474 314.976 235.771 320.219 237.484 325.321C243.814 344.149 250.96 362.726 256.574 381.758C264.199 407.63 275.346 431.709 288.935 454.908C294.714 464.773 299.118 475.535 303.373 486.198C307.291 496.015 309.907 506.334 313.564 516.256C321.705 538.303 331.793 559.332 347.073 577.504C348.498 579.193 349.779 581.08 350.731 583.07C351.88 585.477 350.794 587.45 348.598 588.678C346.093 590.08 345.028 588.249 343.836 586.426C333.731 571.037 324.489 555.168 316.837 538.412C311.589 526.937 306.395 515.427 301.473 503.815C297.343 494.08 294.467 483.751 289.603 474.42C272.903 442.394 259.535 408.991 246.917 375.22C240.941 359.225 234.635 343.333 227.973 327.616C225.052 320.71 220.89 314.343 217.273 307.713C210.056 311.252 206.818 318.761 211.153 325.883C215.378 332.823 215.869 342.127 224.301 346.618C226.814 347.954 225.828 351.191 222.987 353.595C220.574 355.643 218.926 354.694 217.598 352.432C216.471 350.52 215.566 348.472 214.441 346.548C212.055 342.48 209.603 338.454 207.164 334.42C205.313 338.251 207.5 340.762 208.613 343.56C212.711 353.882 216.868 364.194 220.827 374.578L220.766 374.543ZM461.853 700.447C460.416 700.5 458.122 700.133 457.677 699.208C456.524 696.765 455.709 693.961 455.567 691.263C454.892 678.317 454.285 665.374 454.033 652.425C453.413 620.164 453.159 587.9 452.458 555.645C452.124 540.091 450.797 524.546 450.577 508.993C450.425 498.448 451.609 487.898 451.79 477.344C451.878 472.186 451.024 467.013 450.613 461.841C448.088 430.241 445.897 398.621 442.918 367.063C440.731 343.915 439.915 320.757 441.152 297.596C442.692 268.798 440.514 240.11 439.735 211.385C439.17 190.457 436.987 169.579 435.621 148.666C435.381 144.967 434.109 141.132 435.997 137.56C436.508 137.518 437.029 137.479 437.541 137.427C437.881 139.562 438.374 141.672 438.527 143.825C439.969 163.237 441.469 182.638 442.724 202.068C444.279 226.11 446.006 250.143 446.917 274.209C447.622 292.726 445.651 311.446 447.601 329.79C450.79 359.909 450.393 390.167 452.94 420.301C455.387 449.284 456.725 478.389 457.875 507.466C458.533 524.137 457.46 540.855 457.807 557.541C458.681 599.262 459.865 640.968 461.071 682.678C461.211 687.451 462.455 692.181 462.937 696.957C463.056 698.134 462.267 700.431 461.829 700.453L461.853 700.447ZM343.635 253.477C343.133 252.824 342.29 252.226 342.198 251.522C341.774 248.264 341.55 244.979 341.269 241.693C341.972 241.658 342.675 241.623 343.378 241.587C344.021 244.721 344.783 247.834 345.194 250.987C345.288 251.736 344.188 252.635 343.638 253.466L343.635 253.477ZM388.409 601.931C386.748 597.832 385.45 593.466 384.792 589.098C381.303 565.962 373.433 544.144 364.712 522.637C354.429 497.314 345.999 471.421 338.527 445.148C334.522 431.06 329.403 417.286 325.289 403.232C320.442 386.687 316.035 370.006 311.638 353.327C306.377 333.423 301.297 313.477 296.205 293.529C294.741 287.783 293.445 281.993 292.184 276.199C291.852 274.682 291.904 273.073 291.776 271.507C292.193 271.424 292.596 271.348 293.013 271.265C293.666 273.1 294.453 274.896 294.959 276.78C303.568 308.457 312.103 340.164 320.759 371.839C323.794 382.931 327.061 393.957 330.351 404.976C336.456 425.422 342.229 445.98 348.933 466.232C355.562 486.297 363.096 506.073 370.361 525.93C375.28 539.354 380.487 552.656 385.443 566.066C386.789 569.711 388.009 573.467 388.668 577.288C392.238 598.24 399.47 618.147 405.792 638.319C408.404 646.642 411.153 654.914 413.631 663.278C416.122 671.69 419.314 679.747 424.152 687.134C425.439 689.103 426.437 691.467 426.778 693.762C426.955 694.985 425.721 696.79 424.593 697.66C424.117 698.027 421.804 696.984 421.163 696.018C416.619 689.239 412.012 682.493 410.371 674.214C405.457 649.388 397.877 625.373 388.411 601.92L388.409 601.931ZM334.948 539.15C332.396 540.177 331.892 537.791 331.246 536.14C326.307 523.52 321.343 510.908 316.503 498.252C310.666 483.005 304.944 467.702 299.157 452.431C295.545 442.895 292.018 433.331 288.294 423.84C279.264 400.866 270.133 377.939 261.041 354.987C260.639 353.967 259.992 352.92 259.99 351.893C259.985 351.265 260.998 350.622 261.942 349.543C262.725 351.029 263.379 352.044 263.822 353.14C272.67 375.187 281.497 397.229 290.32 419.282C294.663 430.122 299.153 440.914 303.308 451.83C308.854 466.4 313.852 481.187 319.637 495.648C324.602 508.033 330.341 520.101 335.752 532.317C335.977 532.821 336.328 533.27 336.617 533.741C338.197 536.216 337.362 538.185 334.946 539.161L334.948 539.15ZM222.849 357.249C224.047 358.879 225.572 360.362 226.394 362.153C231.679 373.613 236.407 385.333 242.064 396.597C258.2 428.756 273.063 461.606 292.754 491.875C293.253 492.653 294.248 493.671 294.05 494.233C293.52 495.787 292.47 497.152 291.621 498.593C290.581 497.897 289.079 497.445 288.578 496.462C274.38 468.712 260.248 440.918 246.215 413.087C243.288 407.298 240.769 401.309 238.098 395.39C233.36 384.911 228.636 374.424 223.938 363.919C223.078 361.983 222.358 359.974 221.586 357.999C222.015 357.747 222.433 357.492 222.865 357.229L222.849 357.249Z"
            fill="#3A7FA3" />
        <path
            d="M114.201 424.408C120.242 427.521 123.184 433.017 125.804 438.856C137.216 464.336 155.504 484.483 176.199 502.557C191.06 515.544 205.216 529.182 217.731 544.391C234.244 564.463 250.413 584.816 266.53 605.204C280.106 622.368 296.385 636.701 313.143 650.542C331.04 665.316 349.435 679.671 364.569 697.344C378.796 713.961 395.151 728.15 411.721 742.179C415.42 745.314 419.785 747.665 423.847 750.375C423.771 748.124 423.13 746.61 422.199 745.286C417.998 739.378 413.988 733.316 409.414 727.717C401.836 718.445 395.566 708.637 391.288 697.274C387.571 687.419 382.011 678.364 374.544 670.518C371.077 666.873 367.885 662.133 366.661 657.362C362.696 641.891 354.021 629.413 343.726 617.759C330.795 603.123 318.916 587.705 308.191 571.355C302.404 562.514 295.717 554.261 289.56 545.663C281.241 534.046 272.15 522.849 264.975 510.56C255.26 493.907 246.809 476.494 238.269 459.186C231.784 446.05 224.68 432.989 220.254 419.12C213.526 398.054 203.839 378.545 193.559 359.198C192.948 358.032 191.09 356.286 190.598 356.514C188.033 357.709 185.359 359.099 183.412 361.097C181.373 363.213 183.361 365.1 184.989 366.741C190.281 372.068 193.158 378.531 194.382 385.914C195.08 390.097 195.89 394.394 197.54 398.274C202.195 409.203 207.223 419.982 212.242 430.748C224.519 457.059 238.953 482.1 256.066 505.626C270.161 524.998 283.625 544.819 297.398 564.419C299.743 567.761 302.327 570.936 304.658 574.286C305.86 576.008 305.742 577.82 303.916 579.193C301.87 580.737 300.492 579.479 299.223 577.971C298.868 577.543 298.634 577.026 298.332 576.564C280.747 550.122 262.797 523.9 245.687 497.147C235.708 481.534 226.602 465.294 217.979 448.87C210.39 434.419 204.429 419.112 196.944 404.603C191.259 393.584 184.363 383.177 177.908 372.566C176.153 369.679 173.759 369.622 170.361 371.692C167.407 373.491 168.337 375.202 169.694 377.653C172 381.83 173.813 386.292 175.658 390.715C177.076 394.124 177.883 397.839 179.547 401.107C191.814 425.067 204.4 448.865 216.552 472.881C224.753 489.091 235.589 503.333 247.109 517.25C258.218 530.683 268.768 544.603 279.259 558.533C287.857 569.957 295.728 582.027 307.392 590.685C316.717 597.609 324.812 605.667 332.027 614.715C335.388 618.92 339.024 622.897 342.506 627.012C348.739 634.384 354.98 641.768 361.157 649.185C362.722 651.075 363.483 653.104 360.819 654.827C358.298 656.465 356.825 655.222 355.365 653.103C352.195 648.528 349.073 643.895 345.517 639.638C338.606 631.372 331.247 623.502 324.377 615.2C318.883 608.553 312.681 602.83 305.584 597.957C302.704 595.974 299.765 593.785 297.62 591.067C285.872 576.223 274.29 561.243 262.773 546.22C256.451 537.975 250.296 529.582 244.176 521.185C236.732 510.995 228.589 501.205 222.224 490.385C213.389 475.354 205.817 459.572 197.888 444.024C188.472 425.564 180.896 406.099 166.985 390.152C164.411 387.196 163.222 382.967 161.649 379.206C160.437 376.284 158.559 375.617 155.955 376.998C154.518 377.758 153.173 378.845 152.038 380.021C150.003 382.114 149.997 383.937 152.53 386.053C154.014 387.299 155.192 389.621 155.378 391.564C156.002 398.49 158.904 404.343 162.815 409.894C166.558 415.216 170.155 420.633 173.699 426.084C174.44 427.231 174.638 428.732 175.09 430.059C174.611 430.277 174.143 430.499 173.662 430.728C172.488 429.148 171.313 427.568 170.153 425.98C165.223 419.246 160.391 412.431 155.317 405.792C152.202 401.719 148.6 398.011 145.488 393.927C144.261 392.325 143.325 391.73 141.375 392.496C137.551 393.987 137.15 395.191 139.568 399.107C150.937 417.611 162.304 436.126 173.688 454.61C174.656 456.192 175.889 457.602 176.855 459.196C183.976 470.926 191.07 482.674 198.151 494.431C202.642 501.893 207.004 509.432 211.614 516.817C214.166 520.909 217.335 524.617 219.873 528.717C234.954 553.072 254.901 573.407 274.331 594.09C285.22 605.686 297.583 615.904 309.149 626.878C313.991 631.473 318.27 636.679 323.213 641.169C328.328 645.821 333.944 649.927 339.339 654.273C339.717 653.884 340.084 653.494 340.462 653.105C338.727 650.77 337.156 648.308 335.239 646.139C320.251 629.181 306.03 611.505 288.687 596.755C286.015 594.485 283.786 591.681 281.398 589.094C275.988 583.24 270.746 577.239 265.19 571.538C246.04 551.86 230.923 529.093 215.304 506.712C212.657 502.908 210.282 498.898 208.014 494.866C207.566 494.065 208.167 492.663 208.276 491.546C209.375 491.959 210.559 492.241 211.552 492.836C212.128 493.185 212.383 494.037 212.8 494.66C221.947 508.422 230.882 522.323 240.284 535.9C255.506 557.89 275.396 575.671 294.253 594.295C310.928 610.763 326.578 628.1 341.559 646.072C351.771 658.336 361.667 670.865 371.712 683.276C377.898 690.923 384.126 698.533 390.268 706.227C391.181 707.365 392.356 708.888 392.226 710.104C392.04 711.866 391.126 713.887 389.859 715.092C388.145 716.74 386.393 715.472 385.224 713.814C383.847 711.838 382.786 709.609 381.256 707.772C373.903 698.946 367.065 689.566 358.857 681.61C347.695 670.777 335.162 661.368 323.785 650.741C315.404 642.908 307.935 634.092 300.052 625.725C296.369 621.807 293.071 617.41 288.928 614.057C277.047 604.419 266.26 593.699 256.486 582.006C242.932 565.77 228.34 550.41 216.883 532.435C207.914 518.368 197.975 504.906 188.44 491.199C181.218 480.827 174.135 470.439 169.788 458.365C167.912 453.172 165.365 448.021 162.177 443.533C154.237 432.338 145.776 421.512 137.488 410.564C135.022 407.311 132.561 404.036 129.857 400.995C127.955 398.864 124.953 399.204 122.516 401.476C120.291 403.552 120.304 405.288 122.813 407.41C124.594 408.923 125.797 411.182 127.069 413.216C131.797 420.751 136.273 428.45 141.156 435.892C151.648 451.886 162.261 467.792 172.98 483.628C175.993 488.079 179.536 492.173 182.816 496.441C183.82 497.745 185.325 499.212 183.205 500.627C181.256 501.929 179.787 500.937 178.651 499.069C177.027 496.368 175.3 493.726 173.558 491.104C163.692 476.255 154.041 461.258 143.856 446.628C136.088 435.48 130.322 422.563 117.384 415.691C113.72 413.749 112.789 413.622 111.971 417.636C111.426 420.292 111.369 422.96 114.24 424.439L114.201 424.408ZM202.15 479.476C201.841 479.697 200.393 478.937 199.991 478.294C198.705 476.269 197.734 474.047 196.529 471.959C191.903 463.944 187.189 455.967 182.6 447.936C181.35 445.736 180.411 443.362 179.331 441.06C179.855 440.737 180.387 440.426 180.911 440.103C182.463 442.275 184.142 444.383 185.551 446.639C191.251 455.735 196.874 464.871 202.486 474.005C203.047 474.921 203.746 475.991 203.713 476.965C203.688 477.849 202.895 478.914 202.128 479.472L202.15 479.476Z"
            fill="#3A7FA3" />
        <path
            d="M42.6189 611.46C46.8415 611.877 49.5768 614.605 52.7919 616.784C59.1981 621.147 65.5431 625.748 72.4501 629.19C93.8814 639.882 114.617 651.717 134.337 665.3C145.946 673.295 157.194 681.923 169.314 689.056C199.186 706.647 229.284 723.863 259.643 740.598C277.471 750.421 295.64 759.814 314.288 767.95C328.245 774.043 342.206 779.898 355.156 787.969C360.027 791.008 364.961 794.014 370.124 796.475C384.669 803.409 399.316 810.126 414.006 816.749C417.36 818.261 421.032 819.076 424.559 820.202C424.747 819.74 424.946 819.28 425.132 818.829C423.65 817.902 422.196 816.948 420.692 816.074C413.662 811.968 406.603 807.89 399.575 803.772C380.553 792.628 361.928 780.733 342.416 770.512C323.225 760.449 303.183 751.998 283.455 742.974C271.626 737.555 260.218 731.483 249.569 723.916C241.559 718.225 233.494 712.476 224.886 707.789C194.549 691.275 165.372 672.872 136.588 653.844C116.187 640.358 97.0773 624.897 75.1243 613.81C71.0304 611.744 66.7145 610.031 62.3568 608.571C55.4745 606.263 48.4105 604.441 43.9828 597.926C42.6415 595.947 41.2855 596.324 40.1908 598.284C38.3687 601.539 37.8642 605.037 39.2207 608.468C39.7278 609.749 41.3485 611.319 42.5993 611.445L42.6189 611.46Z"
            fill="#3A7FA3" />
        <path
            d="M523.856 860.482C542.909 858.882 561.968 857.458 580.977 855.456C596.147 853.861 611.263 851.938 626.517 853.759C641.811 855.58 657.037 858.157 672.364 859.519C692.669 861.326 712.694 865.843 733.229 865.626C737.766 865.582 742.332 867.103 746.847 868.071C749.927 868.726 752.902 869.886 755.986 870.451C789.216 876.476 822.652 880.982 856.381 883.065C858.218 883.174 860.19 883.278 861.9 882.743C867.25 881.07 872.538 881.917 877.909 882.391C884.904 882.995 891.936 883.356 898.964 883.501C903.775 883.609 908.592 882.974 913.403 883.042C929.726 883.269 946.055 884.1 962.375 883.885C983.891 883.617 1005.39 882.578 1026.9 881.851C1028.01 881.814 1029.13 881.693 1030.22 881.489C1032.18 881.12 1033.37 879.766 1032.61 877.959C1032.27 877.151 1030.33 876.508 1029.2 876.607C1024.78 876.997 1020.41 878.031 1016 878.275C1003.21 878.978 990.394 879.163 977.614 880.002C948.284 881.918 919.045 879.639 889.783 878.372C877.555 877.838 865.366 876.368 853.147 875.76C837.964 875.012 822.683 875.494 807.588 874.043C788.781 872.23 769.852 870.257 751.681 864.619C740.062 861.015 728.277 858.703 716.209 858.087C688.888 856.69 662.02 851.909 635.018 848.066C625.355 846.69 615.383 846.378 605.644 847.033C593.845 847.82 582.134 850.144 570.385 851.791C569.093 851.972 567.8 852.073 566.504 852.158C548.45 853.372 530.402 854.577 512.354 855.782C526.05 850.875 540.046 847.138 554.52 847.115C572.32 847.082 587.785 838.371 604.632 834.966C605.167 834.863 605.653 834.528 606.153 834.294C617.717 828.792 629.306 823.374 640.823 817.76C647.312 814.592 654.169 813.225 661.267 812.895C680.28 812.029 698.944 809.027 717.138 803.463C729.382 799.713 741.42 795.281 753.651 791.51C768.816 786.844 784.188 783.634 800.28 785.724C805.947 786.459 811.885 786.864 817.489 786.024C834.362 783.477 851.14 780.32 867.924 777.235C875.96 775.759 883.862 773.569 891.924 772.296C905.315 770.178 918.795 768.677 932.202 766.635C937.133 765.888 942.072 764.72 946.794 763.089C983.506 750.425 1019.07 734.865 1054.9 719.984C1063.8 716.287 1073.04 713.408 1082.16 710.269C1083.9 709.673 1085.79 709.391 1087.62 709.307C1088.54 709.268 1089.5 710.019 1090.44 710.419C1089.8 711.214 1089.33 712.345 1088.51 712.742C1083.34 715.271 1078.09 717.624 1072.88 720.083C1066.84 722.932 1060.86 725.883 1054.8 728.695C1046.89 732.361 1038.94 735.948 1031 739.54C1025.43 742.067 1019.96 744.902 1014.21 746.956C999.351 752.26 984.147 756.66 969.465 762.402C947.156 771.115 924.151 776.571 900.464 779.607C883.897 781.728 867.25 783.543 850.859 786.659C835.151 789.648 819.475 792.446 803.54 793.927C793.402 794.867 783.327 796.688 773.279 798.448C768.176 799.336 763.209 800.994 758.181 802.277C737.703 807.48 717.206 812.671 696.734 817.864C696.382 817.954 696.018 818.062 695.669 818.207C687.141 821.721 678.182 823.06 669.05 823.765C661.465 824.349 653.817 824.705 646.347 826.071C635.787 828.002 625.369 830.693 614.941 833.258C613.307 833.655 611.347 834.774 610.545 836.142C608.485 839.676 610.851 842.665 615.479 842.746C623.447 842.88 631.434 842.639 639.384 843.148C654.566 844.122 669.706 846.055 684.896 846.608C703.424 847.278 722.087 848.17 740.507 846.662C759.338 845.116 777.96 845.154 796.612 847.345C815.77 849.601 835.232 848.335 854.202 852.589C855.96 852.979 857.914 852.724 859.754 852.542C873.236 851.242 886.79 850.484 899.954 846.816C903.688 845.779 907.628 845.424 911.496 844.955C949.183 840.278 987.104 841.051 1024.94 840.276C1041.57 839.931 1057.9 838.159 1073.86 833.385C1081.24 831.174 1088.75 830.089 1096.41 831.393C1097.94 831.652 1100.42 833.182 1100.43 834.148C1100.44 835.902 1099.35 838.267 1097.93 839.257C1096.8 840.05 1094.43 839.463 1092.73 839.004C1088.95 837.981 1085.27 836.668 1081.38 838.592C1068.65 844.903 1054.86 846.975 1040.94 847.641C1021.84 848.557 1002.7 848.363 983.598 849.32C960.062 850.494 936.547 852.348 913.03 853.921C908.219 854.24 903.4 854.553 898.59 854.993C896.827 855.16 895.263 855.817 895.738 858.169C896.229 860.517 897.82 860.225 899.61 859.996C906.592 859.07 913.579 858.135 920.578 857.448C927.593 856.757 934.631 856.296 941.665 855.818C960.743 854.527 979.801 852.636 998.901 852.187C1023.22 851.616 1047.53 851.829 1071.69 848.267C1077.49 847.41 1083.53 847.972 1089.44 848.188C1090.83 848.244 1093.37 849.681 1093.32 850.313C1093.16 852.143 1092.23 854.11 1091.06 855.581C1090.52 856.242 1088.51 856.274 1087.46 855.865C1082.46 853.917 1077.58 855.082 1072.66 856.012C1069.21 856.67 1065.78 857.732 1062.28 857.994C1042.85 859.495 1023.41 861.096 1003.95 862.08C992.288 862.677 980.567 861.981 968.878 862.293C957.75 862.585 946.619 863.248 935.517 864.091C921.804 865.133 908.195 865.628 894.422 863.949C881.012 862.307 867.314 862.918 853.936 861.125C840.103 859.273 826.299 858.294 812.384 857.789C799.411 857.314 786.464 856.268 773.5 855.412C770.353 855.206 767.223 854.772 764.094 854.417C761.956 854.179 759.086 853.02 758.652 856.231C758.212 859.451 761.5 859.135 763.461 859.419C767.484 859.997 771.581 860.198 775.644 860.47C778.98 860.693 782.334 860.621 785.649 860.977C805.93 863.208 826.168 865.85 846.483 867.703C858.842 868.831 871.361 868.248 883.721 869.416C909.709 871.874 935.588 871.461 961.54 869C985.389 866.738 1009.31 865.774 1033.28 866.686C1037.51 866.842 1041.88 866.582 1046.01 865.672C1057.82 863.062 1069.62 863.773 1081.48 864.902C1083.51 865.098 1085.88 864.877 1085.93 867.817C1085.98 870.636 1084.09 871.451 1081.56 871.785C1078.26 872.215 1075.02 872.998 1071.76 873.629C1066.71 874.619 1061.7 875.819 1056.61 876.527C1052.77 877.055 1048.83 876.813 1044.97 877.176C1043.95 877.275 1043.04 878.384 1042.08 879.021C1043.08 879.44 1044.12 880.248 1045.11 880.218C1051.59 880.018 1058.07 879.285 1064.54 879.441C1070.42 879.568 1076.32 880.4 1082.12 881.382C1083.41 881.597 1084.37 883.759 1085.48 885.025C1084.3 885.57 1083.09 886.63 1081.93 886.581C1066.77 885.876 1052 888.929 1037.06 890.596C1025.29 891.909 1013.39 892.588 1001.56 892.462C977.259 892.2 952.955 891.084 928.655 890.571C912.331 890.223 895.953 890.974 879.673 890.028C853.743 888.501 827.844 886.194 801.974 883.76C783.694 882.039 765.471 879.701 747.257 877.369C740.648 876.524 734.177 874.102 727.568 873.765C705.424 872.609 683.76 868.232 661.932 864.922C637.265 861.181 612.528 859.808 587.546 861.703C562.422 863.611 537.294 867.278 511.997 863.764C510.429 863.552 508.876 863.215 507.316 862.928C507.367 862.361 507.418 861.794 507.469 861.227C510.896 860.923 514.313 860.532 517.741 860.348C519.768 860.248 521.83 860.704 523.85 860.532L523.856 860.482Z"
            fill="#3A7FA3" />
        <path
            d="M511.757 876.838C515.993 878.17 520.236 879.533 524.348 881.198C547.708 890.605 572.586 895.939 595.083 907.663C595.41 907.837 595.776 907.93 596.129 908.041C606.018 911.192 615.945 914.222 625.785 917.488C654.984 927.184 684.15 936.951 713.314 946.743C723.135 950.037 733.011 953.247 742.694 956.917C760.803 963.768 779.022 969.904 798.68 970.233C801.252 970.277 803.877 970.688 806.362 971.354C829.289 977.49 852.17 983.797 875.105 989.9C898.567 996.134 922.099 1002.12 945.562 1008.35C958.638 1011.83 971.451 1016.06 983.468 1022.45C989.189 1025.49 995.084 1028.2 1000.97 1030.91C1003.23 1031.95 1005.05 1032.95 1003.74 1035.82C1002.49 1038.6 1000.43 1039.07 997.82 1037.72C996.014 1036.79 994.302 1035.31 992.402 1034.97C978.418 1032.47 965.474 1026.74 952.087 1022.39C950.064 1021.73 947.951 1019.33 945.532 1021.73C947.421 1022.94 949.186 1024.4 951.208 1025.32C964.495 1031.35 979.154 1034.3 991.147 1043.25C992.016 1043.89 993.182 1044.11 994.198 1044.58C995.428 1045.14 996.644 1045.75 997.862 1046.33C997.094 1047.75 996.588 1049.42 995.508 1050.54C992.765 1053.39 985.363 1053.61 983.441 1050.43C980.554 1045.68 976.006 1044.55 971.372 1043.36C956.671 1039.55 941.931 1035.87 927.191 1032.18C926.62 1032.03 925.923 1032.37 924.134 1032.67C926.189 1033.79 927.174 1034.53 928.282 1034.9C933.735 1036.69 939.313 1038.16 944.682 1040.2C950.7 1042.5 956.894 1044.71 962.345 1048.04C966.919 1050.84 970.908 1054.46 976.469 1055.38C977.371 1055.53 978.082 1056.85 978.881 1057.62C977.736 1058.01 976.53 1058.87 975.457 1058.72C969.77 1057.89 964.044 1057.14 958.482 1055.76C946.072 1052.69 933.74 1049.3 921.407 1045.95C917.843 1044.98 914.301 1043.84 910.845 1042.54C903.443 1039.75 896.191 1036.53 888.71 1033.98C881.88 1031.65 874.731 1030.27 867.902 1027.95C858.095 1024.61 848.588 1020.39 838.706 1017.31C822.435 1012.23 805.75 1008.46 789.66 1002.9C757.626 991.833 725.88 979.976 694.057 968.297C690.077 966.839 686.45 964.452 682.612 962.593C676.467 959.612 670.474 956.195 664.09 953.844C639.933 944.942 614.914 938.396 591.529 927.398C583.67 923.694 575.962 919.636 568.337 915.472C565.946 914.174 564.198 911.709 561.834 910.309C560.546 909.546 558.59 909.906 556.939 909.759C556.843 911.657 556.088 913.87 556.807 915.381C557.853 917.613 559.948 919.344 561.605 921.296C557.979 919.336 554.761 916.856 551.411 914.557C538.577 905.757 526.22 896.108 511.227 891.016C507.998 889.916 508.297 887.871 509.178 884.486C521.855 890.223 534.175 895.793 546.486 901.357C553.741 904.638 560.993 907.904 568.227 911.239C572.429 913.175 576.442 915.602 580.779 917.147C587.041 919.379 593.654 920.666 599.895 922.95C616.423 929.02 632.754 935.614 649.306 941.606C667.944 948.364 686.882 954.317 705.429 961.295C725.377 968.803 745.076 976.976 764.781 985.099C790.025 995.499 816.141 1003.32 842.224 1011.18C863.505 1017.59 885.058 1023.13 906.512 1028.97C908.47 1029.5 910.625 1029.33 912.688 1029.48C912.776 1028.9 912.864 1028.31 912.952 1027.73C911.635 1027.21 910.363 1026.53 908.996 1026.23C873.395 1018.66 839.063 1006.74 804.536 995.541C788.35 990.295 772.634 983.596 756.731 977.469C745.493 973.14 734.248 968.781 723.082 964.26C715.193 961.071 707.564 957.158 699.548 954.325C680.52 947.592 661.095 941.894 642.258 934.686C620.101 926.212 598.405 916.546 576.479 907.477C567.399 903.721 558.193 900.283 549.138 896.49C536.663 891.259 524.276 885.832 511.843 880.496C511.508 880.356 510.985 880.401 510.807 880.164C510.103 879.263 509.488 878.287 508.845 877.333C509.825 877.16 510.913 876.619 511.751 876.887L511.757 876.838ZM774.43 976.756C774.844 978.08 775.972 980.126 776.926 980.177C794.689 981.16 811.345 987.033 828.239 991.728C854.648 999.064 880.901 1006.92 907.313 1014.24C914.775 1016.31 922.546 1017.31 930.2 1018.64C931.647 1018.89 933.219 1018.39 934.734 1018.23C934.804 1017.72 934.883 1017.21 934.953 1016.69C932.646 1015.88 930.362 1014.44 928.031 1014.35C911.239 1013.7 896.009 1006.93 880.207 1002.44C851.339 994.257 822.51 985.911 793.614 977.789C788.287 976.289 782.746 975.463 777.254 974.643C776.38 974.511 774.297 976.348 774.43 976.756Z"
            fill="#3A7FA3" />
        <path
            d="M1059.25 713.489C1050.09 717.569 1041.16 722.166 1031.91 726.008C1019.07 731.351 1005.89 735.916 993.062 741.327C964.797 753.251 935.887 762.084 904.872 763.111C896.851 763.383 888.872 766.096 880.945 767.937C864.313 771.789 847.79 776.166 831.073 779.616C823.521 781.168 815.53 782.007 808.045 778.628C806.15 777.774 804.643 776.041 802.963 774.715C804.466 773.458 805.795 771.754 807.513 771.024C814.839 767.923 822.255 764.988 829.722 762.219C836.862 759.584 844.148 757.337 851.264 754.658C852.467 754.205 854.139 752.099 853.888 751.281C853.206 749.021 851.095 749.373 849.248 750.178C848.745 750.395 848.293 750.78 847.788 750.982C841.087 753.679 834.384 756.401 827.652 759.024C820.751 761.722 813.767 764.22 806.897 766.993C803.813 768.242 800.997 770.16 797.899 771.387C781.968 777.672 765.705 782.793 748.729 785.539C737.898 787.293 727.48 790.331 717.664 795.71C703.371 803.547 687.347 803.676 671.575 804.543C671.392 804.557 671.173 804.586 671.02 804.513C670.237 804.161 668.975 803.909 668.819 803.353C668.625 802.692 669.131 801.45 669.749 800.974C672.969 798.48 676.214 795.988 679.631 793.784C696.622 782.884 715.356 774.966 731.721 762.923C739.304 757.349 747.942 753.2 756.117 748.454C775.532 737.193 793.976 724.257 814.534 714.958C817.87 713.447 820.862 711.098 823.824 708.875C835.075 700.407 846.066 691.582 857.484 683.37C867.415 676.226 878.442 670.505 887.854 662.768C914.017 641.279 942.7 623.48 970.928 605.051C994.718 589.531 1018.22 573.661 1040.84 556.514C1042.56 555.221 1044 553.565 1045.57 552.085C1045.34 551.787 1045.11 551.488 1044.88 551.19C1043.08 552.347 1041.18 553.388 1039.51 554.705C1020.34 569.759 999.466 582.195 978.647 594.725C976.578 595.971 974.426 597.057 972.291 598.18C950.882 609.389 930.277 621.858 911.09 636.602C901.974 643.6 892.718 650.426 883.493 657.286C874.72 663.801 865.894 670.255 857.096 676.728C846.198 684.759 835.543 693.151 824.337 700.714C813.131 708.278 801.373 715.014 789.85 722.103C788.113 723.167 786.323 724.17 784.565 725.206C761.259 738.988 737.918 752.721 714.65 766.568C699.026 775.868 683.503 785.341 667.942 794.749C664.449 796.865 660.645 798.602 657.537 801.17C645.911 810.78 632.503 817.062 618.613 822.429C605.124 827.632 591.528 832.55 577.982 837.596C573.255 839.357 565.898 840.183 561.239 839.374C562.321 838.842 563.144 838.461 563.946 838.052C576.091 831.703 588.873 826.438 599.134 816.935C610.163 806.708 621.831 797.339 634.317 788.879C639.395 785.441 643.169 780.042 647.393 775.403C650.002 772.537 652.057 769.133 654.861 766.5C669.058 753.185 683.605 740.232 697.677 726.782C707.463 717.435 716.774 707.59 726.114 697.805C746.115 676.845 767.051 656.963 789.86 639.028C798.704 632.079 806.552 623.838 814.695 616.003C824.047 607.012 832.878 597.454 842.533 588.795C861.445 571.843 881.003 555.595 899.858 538.566C912.1 527.505 923.373 515.397 935.42 504.103C962.055 479.122 987.215 452.522 1016.52 430.434C1020.66 427.303 1023.22 422.134 1026.81 418.176C1031.67 412.823 1037.03 407.9 1041.82 402.483C1052.59 390.317 1064.64 379.741 1078.4 371.048C1082.6 368.396 1086.27 364.88 1090.03 361.589C1096.59 355.826 1103.08 350.06 1111.35 346.681C1115.96 344.792 1119.37 341.541 1121 336.525C1122.17 332.927 1124.55 331.994 1127.78 333.932C1129.75 335.117 1131.6 336.94 1132.8 338.914C1134.94 342.434 1134.12 344.087 1130.19 345.343C1123.03 347.629 1117.17 351.489 1113.49 358.302C1112.73 359.72 1111.48 360.971 1110.23 362.031C1101.45 369.426 1092.59 376.71 1083.85 384.138C1082.53 385.251 1081.66 386.893 1080.58 388.295C1080.97 388.632 1081.36 388.978 1081.74 389.309C1083.13 388.245 1084.57 387.252 1085.89 386.114C1090.23 382.354 1094.69 378.698 1098.82 374.707C1108.67 365.202 1122.68 361.849 1132.25 351.934C1132.7 351.478 1134.61 351.595 1135.05 352.124C1136.46 353.796 1137.88 355.654 1138.61 357.684C1139.77 360.894 1137.55 364.162 1134.39 365.232C1131.63 366.181 1128.64 367.119 1126.4 368.884C1120.74 373.355 1115.42 378.247 1110.01 383.044C1093.94 397.307 1077.91 411.61 1061.84 425.888C1049.23 437.091 1036.59 448.266 1023.98 459.476C1010.83 471.179 997.652 482.854 984.562 494.64C964.856 512.379 945.477 530.492 925.47 547.874C904.625 565.988 883.191 583.409 862.027 601.154C860.318 602.583 858.662 604.074 857.034 605.582C847.925 614.038 838.919 622.602 829.712 630.941C814.888 644.379 801.391 659.273 785.267 671.274C783.363 672.695 781.941 674.765 780.191 676.421C774.022 682.279 767.959 688.261 761.555 693.847C756.818 697.988 751.633 701.61 746.629 705.444C742.292 708.768 739.161 712.961 736.4 717.729C733.764 722.286 730.526 727.009 726.392 730.105C710.61 741.889 695.51 754.24 682.147 768.888C676.584 774.984 668.572 779.196 661.08 783.122C640.014 794.155 619.65 806.315 600.059 819.781C599.299 820.311 598.353 820.758 597.904 821.505C597.309 822.476 596.532 823.968 596.894 824.739C597.329 825.664 598.843 826.468 599.962 826.573C601.145 826.681 602.555 826.137 603.63 825.493C611.083 821.035 618.58 816.632 625.873 811.909C632.402 807.7 638.505 802.798 645.135 798.761C663.806 787.374 683.267 777.184 699.677 762.383C700.497 761.639 701.908 761.522 703.065 761.159C706.174 760.18 709.563 759.73 712.36 758.187C735.767 745.31 759.11 732.327 782.356 719.186C795.594 711.698 809.244 704.72 821.601 695.949C837.905 684.386 853.154 671.319 868.828 658.865C872.306 656.099 875.605 653.096 879.117 650.38C896.286 637.13 913.462 623.91 930.7 610.758C937.18 605.809 943.493 600.525 950.475 596.359C966.884 586.572 983.636 577.383 1000.24 567.926C1017.53 558.076 1034.2 547.454 1047.93 532.688C1057.3 522.605 1068.04 514.052 1079.64 506.559C1088.81 500.638 1097.77 494.381 1106.84 488.296C1108.07 487.475 1109.33 486.672 1110.67 486.06C1116.08 483.634 1121.54 481.325 1126.93 478.884C1132.53 476.345 1135.2 478.102 1134.97 484.292C1134.77 489.71 1133.48 491.343 1127.42 491.577C1122.78 491.755 1119.47 493.736 1116.05 496.545C1108.06 503.131 1099.8 509.41 1091.64 515.79C1087.15 519.307 1082.64 522.781 1078.13 526.277C1078.36 526.529 1078.58 526.765 1078.8 527.017C1080.72 525.899 1082.66 524.839 1084.54 523.666C1095.53 516.751 1106.46 509.722 1117.52 502.93C1119.64 501.625 1122.49 500.183 1124.66 500.592C1128.67 501.351 1131.48 500.838 1133.71 497.34C1134.87 495.535 1136.57 496.05 1137.08 497.726C1137.87 500.31 1138.19 503.081 1138.39 505.788C1138.59 508.59 1137.36 509.743 1134.22 510.317C1130.78 510.956 1126.78 512.476 1124.55 514.974C1117.74 522.587 1109.18 527.736 1100.92 533.346C1090.8 540.222 1080.49 546.81 1070.36 553.696C1059.78 560.895 1049.38 568.356 1038.82 575.598C1019.69 588.735 999.587 600.268 979.564 611.97C954.267 626.757 929.633 642.71 904.725 658.165C900.479 660.801 896.283 663.523 891.996 666.079C889.372 667.643 887.727 669.687 888.035 672.823C888.116 673.596 889.199 674.999 889.347 674.935C891.676 674.006 893.954 672.909 896.198 671.764C896.657 671.531 896.896 670.9 897.302 670.526C899.636 668.426 901.77 666.021 904.362 664.303C920.763 653.47 937.135 642.579 953.78 632.147C967.281 623.684 980.826 615.157 994.99 607.903C1013.92 598.203 1031.27 586.084 1048.32 573.695C1069.94 557.992 1091.67 542.524 1114.15 528.093C1114.76 527.698 1115.4 527.29 1116.09 527.033C1122.35 524.702 1128.67 522.529 1134.87 520.05C1137.52 518.996 1139.82 519.184 1141.29 521.425C1142.84 523.771 1143.84 526.52 1144.76 529.206C1144.88 529.536 1142.96 531.217 1142.15 531.113C1137.61 530.473 1134.04 532.509 1131.05 535.302C1124.42 541.514 1116.35 545.263 1108.5 549.433C1104.41 551.6 1100.37 553.928 1096.58 556.582C1070.24 574.996 1042.9 591.82 1014.97 607.681C992.866 620.237 970.744 632.74 948.767 645.511C941.886 649.503 935.278 654.035 928.855 658.754C919.974 665.292 910.742 671.266 900.274 674.685C877.71 682.057 856.881 693.032 836.208 704.403C834.747 705.208 833.319 706.086 832.009 707.109C828.715 709.675 827.767 712.55 829.561 714.577C832.077 717.398 834.528 715.894 836.95 714.252C839.409 712.594 841.78 710.744 844.428 709.45C860.273 701.748 876.203 694.222 892.076 686.579C897.08 684.172 902.152 681.823 906.888 678.947C924.795 668.074 942.42 656.736 960.453 646.078C976.253 636.733 992.923 628.81 1008.38 618.964C1035.29 601.827 1061.97 584.268 1087.93 565.755C1104.47 553.968 1122.46 546.381 1141.72 541.071C1146.95 539.631 1149.06 541.303 1148.86 546.69C1148.8 548.161 1148.55 549.649 1148.2 551.076C1147.69 553.182 1146.72 554.029 1144.09 554.441C1138.5 555.318 1132.64 556.534 1127.74 559.201C1120.3 563.263 1113.57 568.64 1106.58 573.519C1105.27 574.437 1104.17 575.635 1102.96 576.7C1104.76 576.753 1106.23 576.276 1107.69 575.738C1118.46 571.787 1129.28 567.957 1139.97 563.805C1144.87 561.904 1146.77 562.733 1146.61 568.005C1146.54 570.333 1145.67 572.669 1144.9 574.91C1144.19 576.953 1142.78 577.568 1140.5 576.82C1135.7 575.251 1131.35 576.835 1127.35 579.5C1124.73 581.249 1122.34 583.368 1119.61 584.929C1101.11 595.548 1082.77 606.487 1063.94 616.489C1042.79 627.733 1021.58 638.789 1001.29 651.586C995.194 655.439 988.586 658.503 982.142 661.768C976.85 664.453 971.162 666.438 966.121 669.514C947.847 680.682 928.732 690.018 908.866 698.035C885.104 707.624 861.768 718.252 838.063 727.958C827.97 732.089 818.644 737.269 810.414 744.299C801.692 751.755 792.059 757.507 781.384 761.59C774.099 764.385 766.773 767.059 759.524 769.944C757.5 770.753 755.354 771.79 753.894 773.328C753.035 774.233 753.402 776.3 753.217 777.847C754.407 777.985 755.752 778.559 756.774 778.2C765.356 775.215 773.958 772.242 782.424 768.927C796.408 763.435 810.266 757.607 824.241 752.07C830.621 749.536 837.225 747.577 843.577 744.985C858.688 738.791 873.721 732.411 888.744 726.026C900.866 720.875 913.059 715.838 925.003 710.305C934.743 705.796 943.937 700.023 953.816 695.873C978.14 685.651 1001.65 673.832 1025 661.622C1037.65 655.006 1050.04 647.881 1062.79 641.478C1081.89 631.879 1101.67 623.8 1121.93 617.005C1123.86 616.36 1125.89 615.712 1127.88 615.658C1128.97 615.633 1130.78 616.658 1131.07 617.587C1132.8 622.943 1125.46 632.142 1119.8 632.082C1117.24 632.06 1114.36 631.549 1112.16 632.499C1104.86 635.684 1097.24 638.615 1090.79 643.16C1082.72 648.868 1074.65 654.31 1065.61 658.317C1064.01 659.03 1062.78 660.585 1061.38 661.758C1061.63 662.204 1061.9 662.648 1062.15 663.095C1064 662.571 1065.97 662.282 1067.69 661.478C1072.57 659.218 1077.77 657.311 1082.11 654.228C1092.12 647.083 1104.11 646.741 1115.3 643.637C1116 643.443 1117.56 644.182 1117.78 644.821C1119.2 648.829 1111.99 657.582 1107.89 656.527C1103.44 655.385 1099.94 656.802 1096.33 658.949C1091.71 661.697 1087.08 664.484 1082.26 666.877C1064.46 675.704 1046.27 683.775 1028.84 693.252C1005.14 706.14 980.228 715.268 954.211 722.046C943.148 724.929 932.42 729.418 921.869 733.942C912.154 738.107 903.004 743.549 893.399 747.972C872.047 757.791 850.04 765.514 826.384 767.543C824.182 767.729 821.941 768.157 819.861 768.889C817.346 769.777 816.717 771.94 817.4 774.361C818.179 777.125 820.226 776.584 822.358 776.139C840.388 772.415 858.147 767.74 875.411 761.313C887.238 756.917 899.052 752.459 910.747 747.736C920.553 743.778 929.894 738.514 939.933 735.362C974.395 724.547 1007.48 710.401 1040.29 695.464C1055.83 688.39 1071.53 681.621 1087.36 675.229C1094.31 672.415 1101.75 670.861 1109 668.735C1111.6 676.343 1108.57 683.94 1100.47 685.905C1092.57 687.82 1085.64 694.047 1076.51 691.255C1073.79 690.421 1072.19 693.406 1072.5 697.114C1072.75 700.27 1074.59 700.765 1077.13 700.106C1079.28 699.552 1081.37 698.745 1083.52 698.182C1088.09 696.995 1092.67 695.886 1097.25 694.76C1095.84 698.778 1092.52 699.004 1089.76 700.194C1079.56 704.589 1069.32 708.934 1059.18 713.471L1059.25 713.489ZM658.285 773.21C659.263 774.263 661.144 775.628 662.113 775.288C664.656 774.379 667.216 772.973 669.225 771.167C678.862 762.496 688.449 753.78 697.789 744.808C721.053 722.449 744.062 699.829 767.379 677.532C778.62 666.776 790.558 656.73 801.718 645.895C809.286 638.551 815.914 630.259 823.254 622.672C826.841 618.964 831.105 615.914 835.054 612.55C859.198 592.007 883.119 571.211 907.553 551.019C925.477 536.208 942.439 520.421 957.953 503.179C977.241 481.739 999.078 463.007 1019.95 443.259C1035.16 428.871 1051.48 415.662 1067.24 401.85C1070.02 399.406 1073.64 397.596 1074.83 393.735C1074.5 393.345 1074.16 392.949 1073.83 392.549C1072.08 393.817 1070.24 394.96 1068.61 396.372C1053.86 409.07 1039.07 421.719 1024.43 434.561C1006.32 450.45 988.098 466.211 970.426 482.573C956.826 495.159 944.974 509.783 930.617 521.366C907.052 540.394 885.924 562.057 862.802 581.548C840.566 600.298 819.027 619.919 797.641 639.653C785.38 650.967 774.309 663.541 762.258 675.086C732.121 703.951 701.775 732.585 671.41 761.207C667.934 764.48 663.708 766.942 659.988 769.976C659.072 770.724 658.004 772.906 658.298 773.231L658.285 773.21ZM1058.08 541C1058.9 540.894 1059.92 541.068 1060.48 540.636C1063.08 538.633 1065.57 536.47 1068.09 534.347C1067.62 533.825 1067.15 533.303 1066.67 532.781C1064 534.54 1061.26 536.2 1058.74 538.138C1058.14 538.601 1058.29 540.014 1058.09 540.991L1058.08 541ZM779.89 755.558C783.965 753.837 787.97 751.67 791.526 749.049C810.362 735.169 831.361 725.318 852.741 716.292C877.925 705.672 902.202 693.34 926.073 680.061C938.871 672.939 952.234 666.827 965.085 659.807C980.217 651.544 995.134 642.875 1010.04 634.2C1027.84 623.857 1045.55 613.357 1063.26 602.863C1068.36 599.839 1073.37 596.664 1078.36 593.462C1079.67 592.624 1080.77 591.451 1081.97 590.435C1081.73 590.081 1081.5 589.742 1081.27 589.388C1079.51 590.224 1077.68 590.935 1075.99 591.909C1047.49 608.202 1019.03 624.569 990.499 640.828C980.505 646.518 970.396 651.999 960.274 657.458C941.494 667.586 922.867 678.029 903.801 687.597C884.919 697.086 865.603 705.73 846.419 714.621C833.444 720.627 820.353 726.343 807.363 732.312C803.832 733.936 800.313 735.727 797.143 737.961C779.796 750.241 760.6 759.191 741.86 768.972C734.125 773.006 726.33 776.907 718.66 781.063C710.948 785.245 702.991 788.68 694.346 790.477C692.044 790.958 689.665 791.922 687.801 793.303C686.811 794.042 686.405 796.19 686.587 797.603C686.663 798.2 689.036 799.099 690.173 798.87C698.18 797.295 706.208 795.788 713.226 791.098C734.264 777.032 756.613 765.424 779.896 755.549L779.89 755.558ZM862.09 749.02C863.167 751.552 865.211 750.222 866.836 749.512C879.255 744.09 891.687 738.688 904.062 733.17C918.974 726.526 933.846 719.761 948.74 713.063C958.04 708.881 967.299 704.617 976.647 700.546C999.283 690.7 1021.96 680.96 1044.62 671.173C1045.63 670.737 1046.83 670.455 1047.55 669.73C1048 669.29 1047.74 668.119 1047.84 666.688C1046.23 667.185 1045.05 667.439 1043.96 667.9C1022.11 677.219 1000.28 686.55 978.44 695.891C967.701 700.479 956.892 704.928 946.232 709.701C932.004 716.074 918.01 722.987 903.69 729.112C891.418 734.351 878.824 738.819 866.356 743.623C865.841 743.819 865.275 743.889 864.737 744.017C861.87 744.648 861.067 746.63 862.084 749.029L862.09 749.02ZM1070.01 699.794C1068.01 700.099 1065.88 700.068 1064.04 700.752C1052.19 705.111 1040.56 710.047 1028.59 714.005C994.434 725.313 960.688 738.01 925.356 745.468C924.454 745.664 923.03 745.679 922.771 746.217C922.047 747.69 921.823 749.398 921.404 751.017C922.631 751.26 924.012 752.004 925.062 751.664C954.73 742.1 984.382 732.458 1013.99 722.721C1020.15 720.7 1026.17 718.25 1032.25 715.958C1043.01 711.905 1053.77 707.837 1064.52 703.738C1066.5 702.978 1068.43 702.067 1070.37 701.218C1070.25 700.736 1070.13 700.261 1070.01 699.77L1070.01 699.794Z"
            fill="#3A7FA3" />
        <path
            d="M1099.27 824.127C1092.8 822.052 1086.83 823.855 1080.85 826.128C1054.75 836.058 1027.57 837.355 1000.16 835.485C980.47 834.147 960.818 833.768 941.213 835.661C915.342 838.161 889.514 841.103 863.7 844.106C841.961 846.63 820.316 845.24 798.681 843.163C775.581 840.941 752.425 838.069 729.225 839.85C707.414 841.526 685.818 839.981 664.182 838.17C659.349 837.769 654.602 836.342 649.814 835.382C651.46 833.845 652.984 833.229 654.579 832.952C661.729 831.75 668.851 830.303 676.045 829.583C687.961 828.393 699.331 825.898 710.394 820.895C719.993 816.561 730.33 814.097 741.158 813.835C746.187 813.712 751.795 812.622 756.037 810.116C769.785 801.989 784.744 799.309 800.265 798.358C819.759 797.166 839.062 794.675 858.21 790.709C868.555 788.557 879.119 787.456 889.554 785.736C903.653 783.413 917.999 781.933 931.765 778.326C950.413 773.432 968.705 767.106 986.987 760.919C1000.86 756.224 1015.13 752.02 1028.07 745.352C1047.73 735.225 1068.37 728.294 1089.33 721.895C1090.59 721.504 1093.13 721.585 1093.32 722.094C1094.29 724.754 1095.19 727.628 1095.15 730.417C1095.1 733.355 1092.36 733.282 1090.05 733.289C1082.54 733.31 1075.93 735.842 1069.84 740.192C1066.39 742.654 1062.78 745.118 1058.87 746.692C1047.84 751.122 1036.66 755.181 1025.5 759.238C998.208 769.144 970.29 776.626 941.551 781.143C917.885 784.859 894.345 789.339 870.744 793.445C866.723 794.147 862.65 794.562 858.632 795.28C856.565 795.648 855.366 797.01 855.685 799.273C856.038 801.812 857.902 801.898 859.866 801.73C860.42 801.679 860.951 801.479 861.491 801.366C892.627 795.123 923.865 789.294 954.885 782.495C972.983 778.522 990.909 773.49 1008.62 767.985C1024.21 763.143 1039.25 756.543 1054.81 751.586C1066.62 747.822 1078.86 745.347 1090.93 742.416C1094.21 741.618 1095.94 743.272 1096.88 747.139C1097.7 750.5 1095.83 751.051 1093.13 751.823C1088.55 753.143 1084.11 755.013 1079.68 756.833C1076.26 758.24 1073.07 760.294 1069.58 761.425C1043.96 769.677 1018.22 777.589 992.643 785.962C975.378 791.614 957.644 794.011 939.656 795.695C922.302 797.327 904.997 799.699 887.727 802.12C873.568 804.109 859.466 807.07 845.098 804.934C833.609 803.23 822.187 803.196 810.686 804.485C805.336 805.078 799.953 805.316 794.58 805.76C784.96 806.56 775.325 807.362 765.712 808.233C763.269 808.461 761.295 809.356 761.959 812.459C762.581 815.4 764.502 815.563 767.033 815.099C772.509 814.109 777.995 813.044 783.519 812.552C794.251 811.601 805.02 811.247 815.749 810.24C824.335 809.431 832.767 809.774 841.23 811.353C844.668 811.989 848.294 812.522 851.733 812.118C870.537 809.941 889.321 807.551 908.089 805.083C918.391 803.73 928.679 802.155 938.945 800.551C951.415 798.617 964.096 797.46 976.249 794.318C993.128 789.947 1009.65 784.153 1026.25 778.775C1045.97 772.393 1065.09 763.998 1086.21 762.573C1090.12 762.304 1093.95 760.158 1097.72 758.612C1100.64 757.405 1102.44 758.263 1103.31 761.082C1103.78 762.635 1103.97 764.354 1103.94 765.989C1103.89 768.908 1102.61 770.2 1099.32 769.903C1097.39 769.734 1094.91 770.541 1093.41 771.782C1088.07 776.235 1081.87 778.318 1075.18 779.473C1068.77 780.586 1062.4 781.869 1056.04 783.213C1054.7 783.5 1053.5 784.42 1052.24 785.037C1052.43 785.531 1052.6 786.019 1052.78 786.522C1054.72 786.236 1056.67 785.95 1058.62 785.649C1066.86 784.378 1075.1 782.981 1083.38 781.88C1088.47 781.206 1093.64 781.134 1098.73 780.451C1100.73 780.186 1101.81 780.428 1102.64 782.349C1104.29 786.108 1103.72 787.243 1099.24 788.299C1078.12 793.331 1056.98 798.372 1035.86 803.379C1034.06 803.812 1032.19 803.936 1030.38 804.379C1017.05 807.63 1003.72 810.912 990.399 814.21C981.945 816.306 973.529 818.546 965.046 820.503C960.347 821.589 955.484 821.967 950.789 823.069C922.899 829.609 894.415 829.865 866.051 830.733C850.151 831.224 834.185 829.696 818.247 829.267C811.575 829.089 804.867 829.739 798.197 829.415C791.291 829.083 784.417 828.012 777.53 827.265C777.538 826.723 777.555 826.188 777.562 825.646C780.441 825.222 783.292 824.595 786.182 824.418C808.772 823.039 831.329 820.611 854.021 822.459C857.515 822.745 861.074 822.341 864.592 822.203C872.557 821.894 880.507 821.362 888.468 821.264C915.923 820.909 942.714 815.516 969.588 810.752C974.149 809.936 978.665 808.784 983.121 807.539C984.004 807.29 984.571 805.874 985.285 805.007C984.216 804.521 983.18 803.883 982.057 803.601C981.403 803.44 980.62 803.861 979.885 804.007C963.683 807.26 947.534 810.761 931.283 813.703C904.967 818.472 878.331 816.964 851.828 816.782C828.392 816.621 805.066 817.799 781.764 819.9C765.869 821.34 750.012 823.192 734.132 824.855C724.35 825.882 714.564 826.853 704.78 827.944C703.33 828.102 701.422 828.347 700.653 829.298C699.538 830.675 698.754 832.75 698.796 834.498C698.841 836.875 700.977 837.219 702.977 836.874C705.347 836.452 707.674 835.627 710.056 835.412C721.496 834.378 732.965 832.588 744.394 832.773C759.947 833.016 775.461 835.234 791.02 835.775C802.485 836.17 814.001 835.225 825.491 834.889C830.866 834.726 836.307 833.953 841.608 834.515C856.823 836.11 872.031 836.168 887.211 834.82C908.277 832.937 929.457 832.408 950.272 827.812C966.563 824.217 983.111 821.737 999.547 818.797C1011.99 816.578 1024.35 814.248 1035.96 808.792C1040.96 806.45 1046.4 804.612 1051.83 803.696C1065.36 801.403 1079 799.74 1092.61 797.867C1096.65 797.313 1100.71 796.74 1104.77 796.505C1107.62 796.344 1109.5 798.709 1109.62 802.038C1109.72 805.08 1108.48 806.298 1105.21 806.022C1102.88 805.831 1100.43 806.576 1098.09 807.113C1089.42 809.093 1080.81 811.366 1072.09 813.17C1053.36 817.049 1034.61 820.779 1015.83 824.386C1010.55 825.399 1005.15 825.786 999.813 826.481C998.181 826.693 996.079 826.664 996.576 829.164C997.032 831.463 998.772 831.801 1000.9 831.285C1003.95 830.525 1007.04 829.88 1010.13 829.26C1027.61 825.748 1045.04 821.979 1062.59 818.847C1075.97 816.465 1089.18 811.416 1103.19 815.715C1107.15 816.935 1107.9 817.505 1105.64 820.919C1104.14 823.182 1102.29 825.108 1099.22 824.121L1099.27 824.127ZM998.154 800.813C998.216 801.187 999.777 801.675 1000.52 801.505C1002.86 800.984 1005.12 800.101 1007.44 799.478C1016.38 797.087 1025.36 794.786 1034.29 792.358C1036.73 791.687 1039.07 790.674 1041.46 789.812C1041.32 789.212 1041.16 788.616 1041.02 788.017C1038.39 788.454 1035.71 788.755 1033.12 789.353C1022.65 791.747 1012.22 794.225 1001.79 796.709C1000.74 796.959 999.492 797.22 998.826 797.932C998.219 798.574 998.025 799.888 998.173 800.825L998.154 800.813Z"
            fill="#3A7FA3" />
        <path
            d="M1017.5 1006.96C1014.22 1004.27 1010.36 1004.26 1006.54 1003.52C998.929 1002.07 991.19 1000.84 983.873 998.381C961.164 990.773 938.137 984.464 914.591 980.11C900.73 977.546 886.677 975.684 873.065 972.149C839.51 963.444 806.059 954.314 772.765 944.659C753.216 938.986 733.731 932.768 714.796 925.323C700.622 919.753 686.614 914.012 671.752 910.553C666.16 909.254 660.546 907.887 655.157 905.973C639.972 900.582 624.869 894.965 609.802 889.251C606.361 887.946 603.19 885.924 599.901 884.225C600.095 883.765 600.28 883.299 600.468 882.849C602.171 883.243 603.873 883.597 605.555 884.044C613.428 886.116 621.302 888.229 629.181 890.292C650.509 895.875 672.086 900.649 693.107 907.231C713.788 913.699 733.931 921.908 754.257 929.49C766.45 934.03 778.808 937.811 791.687 939.998C801.374 941.644 811.141 943.289 820.54 946.066C853.663 955.862 887.302 963.502 921.106 970.422C945.064 975.327 969.508 977.922 992.866 985.621C997.22 987.057 1001.48 988.9 1005.6 990.952C1012.09 994.19 1018.37 997.901 1026.11 996.431C1028.46 995.981 1029.15 997.207 1028.54 999.366C1027.52 1002.96 1025.4 1005.78 1022.02 1007.25C1020.75 1007.8 1018.5 1007.76 1017.52 1006.96L1017.5 1006.96Z"
            fill="#3A7FA3" />
    </g>
</svg>