<svg width="22" height="22" viewBox="0 0 22 22" fill="none" xmlns="http://www.w3.org/2000/svg">
<path d="M19.8938 14.8235C17.8065 12.7363 17.8065 9.35329 19.8938 7.26603C21.2941 5.86568 21.2941 3.59563 19.8938 2.19675C18.4934 0.796396 16.2234 0.796396 14.8245 2.19675C12.7372 4.28401 9.35427 4.28401 7.26701 2.19675C5.86666 0.796396 3.59661 0.796396 2.19773 2.19675C0.797372 3.5971 0.797372 5.86715 2.19773 7.26603C4.28499 9.35329 4.28499 12.7363 2.19773 14.8235C0.797372 16.2239 0.797372 18.4939 2.19773 19.8928C3.59808 21.2932 5.86813 21.2932 7.26701 19.8928C9.35427 17.8055 12.7372 17.8055 14.8245 19.8928C16.2249 21.2932 18.4949 21.2932 19.8938 19.8928C21.2941 18.4924 21.2941 16.2224 19.8938 14.8235Z" stroke="#242424" stroke-width="1.5" stroke-miterlimit="10" stroke-linecap="round"/>
<path d="M17.3597 18.2908C17.2152 18.2908 16.9381 18.2554 16.7008 18.0181L16.6816 17.9989C13.5684 14.8857 8.52269 14.8857 5.40948 17.9989L5.39032 18.0181C5.15299 18.2554 4.87588 18.2908 4.73142 18.2908C4.58696 18.2908 4.30982 18.2554 4.0725 18.0181C3.83518 17.7807 3.7998 17.5036 3.7998 17.3592C3.7998 17.2147 3.83518 16.9376 4.0725 16.7003L4.09167 16.6811C7.20487 13.5679 7.20487 8.52218 4.09167 5.40898C3.73052 5.04783 3.70399 4.45821 4.05629 4.0897C4.29656 3.83763 4.58401 3.80078 4.73142 3.80078C4.87882 3.80078 5.15299 3.83616 5.39032 4.07348L5.40948 4.09264C8.52269 7.20585 13.5684 7.20585 16.6816 4.09264L16.7008 4.07348C16.9381 3.83616 17.2152 3.80078 17.3597 3.80078C17.5041 3.80078 17.793 3.83763 18.0348 4.0897C18.3871 4.45821 18.3605 5.04931 17.9994 5.40898C14.8862 8.52218 14.8862 13.5679 17.9994 16.6811C18.3605 17.0422 18.3856 17.6319 18.0333 18.0018C17.793 18.2539 17.5056 18.2908 17.3582 18.2908H17.3597Z" stroke="#242424" stroke-width="1.5" stroke-miterlimit="10" stroke-linecap="round"/>
<path d="M11 21C16.5229 21 21 16.5229 21 11C21 5.47716 16.5229 1 11 1C5.47717 1 1 5.47716 1 11C1 16.5229 5.47717 21 11 21Z" stroke="#242424" stroke-width="1.5" stroke-miterlimit="10" stroke-linecap="round"/>
<path d="M10.9998 16.6774C14.1349 16.6774 16.6764 14.1359 16.6764 11.0008C16.6764 7.86572 14.1349 5.32422 10.9998 5.32422C7.86474 5.32422 5.32324 7.86572 5.32324 11.0008C5.32324 14.1359 7.86474 16.6774 10.9998 16.6774Z" stroke="#242424" stroke-width="1.5" stroke-miterlimit="10" stroke-linecap="round"/>
<path d="M1.00879 11H20.9734" stroke="#242424" stroke-width="2" stroke-miterlimit="10" stroke-linecap="round"/>
<path d="M10.9912 20.9822V1.01758" stroke="#242424" stroke-width="1.5" stroke-miterlimit="10" stroke-linecap="round"/>
</svg>
