<svg width="22" height="22" viewBox="0 0 22 22" fill="none" xmlns="http://www.w3.org/2000/svg">
<path d="M20.999 1H0.999023V21H20.999V1Z" stroke="#242424" stroke-width="1.5" stroke-miterlimit="10" stroke-linecap="round"/>
<path d="M10.999 21C16.5219 21 20.999 16.5228 20.999 11C20.999 5.47715 16.5219 1 10.999 1C5.47617 1 0.999023 5.47715 0.999023 11C0.999023 16.5228 5.47617 21 10.999 21Z" stroke="#242424" stroke-width="1.5" stroke-miterlimit="10" stroke-linecap="round"/>
<path d="M20.999 11H0.999023V21H20.999V11Z" stroke="#242424" stroke-width="1.5" stroke-miterlimit="10" stroke-linecap="round"/>
<path d="M19.8928 14.8235C17.8055 12.7363 17.8055 9.35329 19.8928 7.26603C21.2932 5.86568 21.2932 3.59563 19.8928 2.19675C18.4925 0.796396 16.2224 0.796396 14.8235 2.19675C12.7363 4.28401 9.3533 4.28401 7.26603 2.19675C5.86568 0.796396 3.59563 0.796396 2.19675 2.19675C0.796396 3.5971 0.796396 5.86715 2.19675 7.26603C4.28401 9.35329 4.28401 12.7363 2.19675 14.8235C0.796396 16.2239 0.796396 18.4939 2.19675 19.8928C3.5971 21.2932 5.86715 21.2932 7.26603 19.8928C9.3533 17.8055 12.7363 17.8055 14.8235 19.8928C16.2239 21.2932 18.4939 21.2932 19.8928 19.8928C21.2932 18.4924 21.2932 16.2224 19.8928 14.8235Z" stroke="#242424" stroke-width="1.5" stroke-miterlimit="10" stroke-linecap="round"/>
<path d="M17.3587 18.2908C17.2142 18.2908 16.9371 18.2554 16.6998 18.0181L16.6806 17.9989C13.5674 14.8857 8.52171 14.8857 5.4085 17.9989L5.38934 18.0181C5.15202 18.2554 4.8749 18.2908 4.73044 18.2908C4.58598 18.2908 4.30885 18.2554 4.07153 18.0181C3.8342 17.7807 3.79883 17.5036 3.79883 17.3592C3.79883 17.2147 3.8342 16.9376 4.07153 16.7003L4.09069 16.6811C7.2039 13.5679 7.2039 8.52218 4.09069 5.40898C3.72954 5.04783 3.70301 4.45821 4.05531 4.0897C4.29558 3.83763 4.58304 3.80078 4.73044 3.80078C4.87785 3.80078 5.15202 3.83616 5.38934 4.07348L5.4085 4.09264C8.52171 7.20585 13.5674 7.20585 16.6806 4.09264L16.6998 4.07348C16.9371 3.83616 17.2142 3.80078 17.3587 3.80078C17.5031 3.80078 17.7921 3.83763 18.0338 4.0897C18.3861 4.45821 18.3596 5.04931 17.9984 5.40898C14.8852 8.52218 14.8852 13.5679 17.9984 16.6811C18.3596 17.0422 18.3846 17.6319 18.0323 18.0018C17.7921 18.2539 17.5046 18.2908 17.3572 18.2908H17.3587Z" stroke="#242424" stroke-width="1.5" stroke-miterlimit="10" stroke-linecap="round"/>
</svg>
