<svg width="22" height="22" viewBox="0 0 22 22" fill="none" xmlns="http://www.w3.org/2000/svg">
<path d="M20.998 1H0.998047V21H20.998V1Z" stroke="#242424" stroke-width="1.5" stroke-miterlimit="10" stroke-linecap="round"/>
<path d="M10.9983 18.0728C14.9043 18.0728 18.0709 14.9063 18.0709 11.0003C18.0709 7.09421 14.9043 3.92773 10.9983 3.92773C7.09226 3.92773 3.92578 7.09421 3.92578 11.0003C3.92578 14.9063 7.09226 18.0728 10.9983 18.0728Z" stroke="#242424" stroke-width="1.5" stroke-miterlimit="10" stroke-linecap="round"/>
<path d="M10.9977 15.3977C13.4261 15.3977 15.3948 13.4291 15.3948 11.0006C15.3948 8.57217 13.4261 6.60352 10.9977 6.60352C8.56922 6.60352 6.60059 8.57217 6.60059 11.0006C6.60059 13.4291 8.56922 15.3977 10.9977 15.3977Z" stroke="#242424" stroke-width="1.5" stroke-miterlimit="10" stroke-linecap="round"/>
<path d="M17.3587 18.2908C17.2142 18.2908 16.9371 18.2554 16.6998 18.0181L16.6806 17.9989C13.5674 14.8857 8.52171 14.8857 5.4085 17.9989L5.38934 18.0181C5.15202 18.2554 4.8749 18.2908 4.73044 18.2908C4.58598 18.2908 4.30887 18.2554 4.07154 18.0181C3.83422 17.7807 3.79883 17.5036 3.79883 17.3592C3.79883 17.2147 3.83422 16.9376 4.07154 16.7003L4.09071 16.6811C7.20391 13.5679 7.20391 8.52219 4.09071 5.40898C3.72956 5.04783 3.70301 4.45821 4.05531 4.0897C4.29558 3.83763 4.58304 3.80078 4.73044 3.80078C4.87785 3.80078 5.15202 3.83616 5.38934 4.07348L5.4085 4.09264C8.52171 7.20585 13.5674 7.20585 16.6806 4.09264L16.6998 4.07348C16.9371 3.83616 17.2142 3.80078 17.3587 3.80078C17.5031 3.80078 17.7921 3.83763 18.0338 4.0897C18.3861 4.45821 18.3596 5.04931 17.9984 5.40898C14.8852 8.52219 14.8852 13.5679 17.9984 16.6811C18.3596 17.0422 18.3846 17.6319 18.0323 18.0018C17.7921 18.2539 17.5046 18.2908 17.3572 18.2908H17.3587Z" stroke="#242424" stroke-width="1.5" stroke-miterlimit="10" stroke-linecap="round"/>
</svg>
