<svg width="22" height="22" viewBox="0 0 22 22" fill="none" xmlns="http://www.w3.org/2000/svg">
<path d="M16.1227 5.9813C16.1094 5.9813 16.0961 5.9813 16.0829 5.9813C16.0829 5.96803 16.0829 5.95476 16.0829 5.9415C16.0902 3.18059 13.857 0.935602 11.0947 0.929706C8.33374 0.922335 6.08875 3.15553 6.08286 5.91791C6.08286 5.93118 6.08286 5.94445 6.08286 5.95771C6.06959 5.95771 6.05633 5.95771 6.04306 5.95771C3.28215 5.95034 1.03716 8.18354 1.03127 10.9459C1.0239 13.7068 3.25709 15.9518 6.01948 15.9577C6.03274 15.9577 6.04601 15.9577 6.05928 15.9577C6.05928 15.971 6.05928 15.9842 6.05928 15.9975C6.05191 18.7584 8.2851 21.0034 11.0475 21.0093C13.8084 21.0152 16.0534 18.7835 16.0593 16.0211C16.0593 16.0078 16.0593 15.9946 16.0593 15.9813C16.0725 15.9813 16.0858 15.9813 16.0991 15.9813C18.86 15.9887 21.105 13.7555 21.1109 10.9931C21.1182 8.23218 18.885 5.98719 16.1227 5.9813ZM11.0888 3.80854C12.2606 3.81149 13.2084 4.76373 13.2055 5.9356C13.2026 7.10748 12.2503 8.05529 11.0784 8.05235C9.90656 8.0494 8.95874 7.09716 8.96169 5.92528C8.96464 4.75341 9.91688 3.80559 11.0888 3.80854ZM3.91157 10.9518C3.91452 9.77994 4.86676 8.83212 6.03864 8.83507C7.21051 8.83802 8.15833 9.79026 8.15538 10.9621C8.15243 12.134 7.20019 13.0818 6.02832 13.0789C4.85644 13.0759 3.90863 12.1237 3.91157 10.9518ZM11.0549 18.129C9.88298 18.1261 8.93516 17.1738 8.93811 16.0019C8.94106 14.8301 9.8933 13.8822 11.0652 13.8852C12.237 13.8881 13.1849 14.8404 13.1819 16.0123C13.179 17.1841 12.2267 18.1319 11.0549 18.129ZM16.105 13.1025C14.9331 13.0995 13.9853 12.1473 13.9882 10.9754C13.9912 9.80353 14.9434 8.85571 16.1153 8.85866C17.2872 8.8616 18.235 9.81385 18.232 10.9857C18.2291 12.1576 17.2768 13.1054 16.105 13.1025Z" stroke="#242424" stroke-width="1.5"/>
<path d="M11 21C16.5228 21 21 16.5228 21 11C21 5.47715 16.5228 1 11 1C5.47715 1 1 5.47715 1 11C1 16.5228 5.47715 21 11 21Z" stroke="#242424" stroke-width="1.5" stroke-miterlimit="10" stroke-linecap="round"/>
</svg>
