<svg width="22" height="22" viewBox="0 0 22 22" fill="none" xmlns="http://www.w3.org/2000/svg">
<path d="M16.8476 6.84906C15.7612 6.84906 14.781 7.27506 14.041 7.95755C14.7235 7.21757 15.1509 6.2388 15.1509 5.15094C15.1509 2.85879 13.2922 1 11 1C8.70784 1 6.84758 2.85879 6.84758 5.15094C6.84758 6.2388 7.27359 7.21757 7.95755 7.95755C7.21757 7.27506 6.23732 6.84906 5.15094 6.84906C2.85879 6.84906 1 8.70784 1 11C1 13.2922 2.85879 15.1509 5.15094 15.1509C6.23732 15.1509 7.21757 14.7249 7.95755 14.0425C7.27506 14.7824 6.84758 15.7627 6.84758 16.8491C6.84758 19.1412 8.70637 21 11 21C13.2936 21 15.1509 19.1412 15.1509 16.8491C15.1509 15.7627 14.7235 14.7824 14.041 14.0425C14.781 14.7249 15.7612 15.1509 16.8476 15.1509C19.1397 15.1509 21 13.2936 21 11C21 8.70637 19.1412 6.84906 16.8476 6.84906Z" stroke="#242424" stroke-width="1.5"/>
<path d="M19.8938 14.8235C17.8065 12.7363 17.8065 9.35329 19.8938 7.26603C21.2941 5.86568 21.2941 3.59563 19.8938 2.19675C18.4934 0.796396 16.2234 0.796396 14.8245 2.19675C12.7372 4.28401 9.35427 4.28401 7.26701 2.19675C5.86666 0.796396 3.59661 0.796396 2.19773 2.19675C0.797372 3.5971 0.797372 5.86715 2.19773 7.26603C4.28499 9.35329 4.28499 12.7363 2.19773 14.8235C0.797372 16.2239 0.797372 18.4939 2.19773 19.8928C3.59808 21.2932 5.86813 21.2932 7.26701 19.8928C9.35427 17.8055 12.7372 17.8055 14.8245 19.8928C16.2249 21.2932 18.4949 21.2932 19.8938 19.8928C21.2941 18.4924 21.2941 16.2224 19.8938 14.8235Z" stroke="#242424" stroke-width="1.5"/>
</svg>
