<svg width="22" height="22" viewBox="0 0 22 22" fill="none" xmlns="http://www.w3.org/2000/svg">
<path d="M16.1143 11.044L19.8923 7.26603C21.2927 5.86568 21.2927 3.59563 19.8923 2.19675C18.4919 0.796396 16.2219 0.796396 14.823 2.19675L11.045 5.97476L7.267 2.19675C5.86665 0.796396 3.59661 0.796396 2.19773 2.19675C0.797372 3.5971 0.797372 5.86715 2.19773 7.26603L5.97573 11.044L2.19773 14.822C0.797372 16.2224 0.797372 18.4924 2.19773 19.8913C3.59808 21.2917 5.86812 21.2917 7.267 19.8913L11.045 16.1133L14.823 19.8913C16.2234 21.2917 18.4934 21.2917 19.8923 19.8913C21.2927 18.491 21.2927 16.2209 19.8923 14.822L16.1143 11.044Z" stroke="#242424" stroke-width="1.5" stroke-miterlimit="10" stroke-linecap="round"/>
<path d="M17.3582 18.2888C17.2137 18.2888 16.9366 18.2534 16.6993 18.0161L11.0448 12.3616L5.39031 18.0161C5.15299 18.2534 4.87586 18.2888 4.7314 18.2888C4.58694 18.2888 4.30982 18.2534 4.0725 18.0161C3.83518 17.7788 3.7998 17.5017 3.7998 17.3572C3.7998 17.2127 3.83518 16.9356 4.0725 16.6983L9.72698 11.0438L4.0725 5.38934C3.70988 5.02672 3.70988 4.43562 4.0725 4.07153C4.30982 3.83421 4.58694 3.79883 4.7314 3.79883C4.87586 3.79883 5.15299 3.83421 5.39031 4.07153L11.0448 9.72601L16.6993 4.07153C16.9366 3.83421 17.2137 3.79883 17.3582 3.79883C17.5026 3.79883 17.7798 3.83421 18.0171 4.07153C18.3797 4.43415 18.3797 5.02524 18.0171 5.38934L12.3626 11.0438L18.0171 16.6983C18.3797 17.0609 18.3797 17.652 18.0171 18.0161C17.7798 18.2534 17.5026 18.2888 17.3582 18.2888Z" stroke="#242424" stroke-width="1.5" stroke-miterlimit="10" stroke-linecap="round"/>
<path d="M19.8938 14.8235C17.8065 12.7363 17.8065 9.35329 19.8938 7.26603C21.2941 5.86568 21.2941 3.59563 19.8938 2.19675C18.4934 0.796396 16.2234 0.796396 14.8245 2.19675C12.7372 4.28401 9.35426 4.28401 7.26699 2.19675C5.86664 0.796396 3.59661 0.796396 2.19773 2.19675C0.797372 3.5971 0.797372 5.86715 2.19773 7.26603C4.28499 9.35329 4.28499 12.7363 2.19773 14.8235C0.797372 16.2239 0.797372 18.4939 2.19773 19.8928C3.59808 21.2932 5.86811 21.2932 7.26699 19.8928C9.35426 17.8055 12.7372 17.8055 14.8245 19.8928C16.2248 21.2932 18.4949 21.2932 19.8938 19.8928C21.2941 18.4924 21.2941 16.2224 19.8938 14.8235Z" stroke="#242424" stroke-width="1.5" stroke-miterlimit="10" stroke-linecap="round"/>
</svg>
