<svg width="22" height="22" viewBox="0 0 22 22" fill="none" xmlns="http://www.w3.org/2000/svg">
<path d="M16.1143 11.044L19.8923 7.26603C21.2926 5.86568 21.2926 3.59563 19.8923 2.19675C18.4919 0.796396 16.2219 0.796396 14.823 2.19675L11.045 5.97476L7.26701 2.19675C5.86666 0.796396 3.59661 0.796396 2.19773 2.19675C0.797372 3.5971 0.797372 5.86715 2.19773 7.26603L5.97573 11.044L2.19773 14.822C0.797372 16.2224 0.797372 18.4924 2.19773 19.8913C3.59808 21.2917 5.86813 21.2917 7.26701 19.8913L11.045 16.1133L14.823 19.8913C16.2234 21.2917 18.4934 21.2917 19.8923 19.8913C21.2926 18.491 21.2926 16.2209 19.8923 14.822L16.1143 11.044Z" stroke="#242424" stroke-width="1.5"/>
<path d="M16 10.9688C13.2391 10.9688 11 13.2078 11 15.9688C11 18.7297 13.2391 20.9688 16 20.9688C18.7609 20.9688 21 18.7297 21 15.9688C21 13.2078 18.7609 10.9688 16 10.9688ZM16 18.0899C14.8281 18.0899 13.8788 17.1406 13.8788 15.9688C13.8788 14.7969 14.8281 13.8476 16 13.8476C17.1719 13.8476 18.1212 14.7969 18.1212 15.9688C18.1212 17.1406 17.1719 18.0899 16 18.0899Z" stroke="#242424" stroke-width="1.5" stroke-miterlimit="10"/>
<path d="M6 10.9688C3.23909 10.9688 1 13.2078 1 15.9688C1 18.7297 3.23909 20.9688 6 20.9688C8.76091 20.9688 11 18.7297 11 15.9688C11 13.2078 8.76091 10.9688 6 10.9688ZM6 18.0899C4.82812 18.0899 3.87883 17.1406 3.87883 15.9688C3.87883 14.7969 4.82812 13.8476 6 13.8476C7.17187 13.8476 8.12117 14.7969 8.12117 15.9688C8.12117 17.1406 7.17187 18.0899 6 18.0899Z" stroke="#242424" stroke-width="1.5" stroke-miterlimit="10"/>
<path d="M16.0001 13.8457C14.8282 13.8457 13.8789 14.795 13.8789 15.9669C13.8789 17.1387 14.8282 18.088 16.0001 18.088C17.1719 18.088 18.1212 17.1387 18.1212 15.9669C18.1212 14.795 17.1719 13.8457 16.0001 13.8457Z" stroke="#242424" stroke-width="1.5" stroke-miterlimit="10"/>
<path d="M16 10.9688C18.7609 10.9688 21 8.72966 21 5.96875C21 3.20784 18.7609 0.96875 16 0.96875C13.2391 0.96875 11 3.20784 11 5.96875C11 8.72966 13.2391 10.9688 16 10.9688ZM16 3.84611C17.1719 3.84611 18.1212 4.7954 18.1212 5.96728C18.1212 7.13915 17.1719 8.08844 16 8.08844C14.8281 8.08844 13.8788 7.13915 13.8788 5.96728C13.8788 4.7954 14.8281 3.84611 16 3.84611Z" stroke="#242424" stroke-width="1.5" stroke-miterlimit="10"/>
<path d="M11 5.96875C11 3.20784 8.76091 0.96875 6 0.96875C3.23909 0.96875 1 3.20784 1 5.96875C1 8.72966 3.23909 10.9688 6 10.9688C8.76091 10.9688 11 8.72966 11 5.96875ZM6 8.08992C4.82812 8.08992 3.87883 7.14063 3.87883 5.96875C3.87883 4.79687 4.82812 3.84758 6 3.84758C7.17187 3.84758 8.12117 4.79687 8.12117 5.96875C8.12117 7.14063 7.17187 8.08992 6 8.08992Z" stroke="#242424" stroke-width="1.5" stroke-miterlimit="10"/>
<path d="M16.0001 8.08999C17.1719 8.08999 18.1212 7.1407 18.1212 5.96882C18.1212 4.79695 17.1719 3.84766 16.0001 3.84766C14.8282 3.84766 13.8789 4.79695 13.8789 5.96882C13.8789 7.1407 14.8282 8.08999 16.0001 8.08999Z" stroke="#242424" stroke-width="1.5" stroke-miterlimit="10"/>
</svg>
