<svg width="22" height="22" viewBox="0 0 22 22" fill="none" xmlns="http://www.w3.org/2000/svg">
<path d="M11.0208 18.0923C14.9268 18.0923 18.0933 14.9258 18.0933 11.0198C18.0933 7.11374 14.9268 3.94727 11.0208 3.94727C7.11472 3.94727 3.94824 7.11374 3.94824 11.0198C3.94824 14.9258 7.11472 18.0923 11.0208 18.0923Z" stroke="#242424" stroke-width="1.5" stroke-miterlimit="10" stroke-linecap="round"/>
<path d="M11.0211 15.4173C13.4496 15.4173 15.4183 13.4486 15.4183 11.0202C15.4183 8.5917 13.4496 6.62305 11.0211 6.62305C8.59269 6.62305 6.62402 8.5917 6.62402 11.0202C6.62402 13.4486 8.59269 15.4173 11.0211 15.4173Z" stroke="#242424" stroke-width="1.5" stroke-miterlimit="10" stroke-linecap="round"/>
<path d="M16 10.9688C13.2391 10.9688 11 13.2078 11 15.9688C11 18.7297 13.2391 20.9688 16 20.9688C18.7609 20.9688 21 18.7297 21 15.9688C21 13.2078 18.7609 10.9688 16 10.9688ZM16 18.0899C14.8281 18.0899 13.8788 17.1406 13.8788 15.9688C13.8788 14.7969 14.8281 13.8476 16 13.8476C17.1719 13.8476 18.1212 14.7969 18.1212 15.9688C18.1212 17.1406 17.1719 18.0899 16 18.0899Z" stroke="#242424" stroke-width="1.5" stroke-miterlimit="10"/>
<path d="M6 10.9688C3.23909 10.9688 1 13.2078 1 15.9688C1 18.7297 3.23909 20.9688 6 20.9688C8.76091 20.9688 11 18.7297 11 15.9688C11 13.2078 8.76091 10.9688 6 10.9688ZM6 18.0899C4.82812 18.0899 3.87883 17.1406 3.87883 15.9688C3.87883 14.7969 4.82812 13.8476 6 13.8476C7.17187 13.8476 8.12117 14.7969 8.12117 15.9688C8.12117 17.1406 7.17187 18.0899 6 18.0899Z" stroke="#242424" stroke-width="1.5" stroke-miterlimit="10"/>
<path d="M16.0001 13.8457C14.8282 13.8457 13.8789 14.795 13.8789 15.9669C13.8789 17.1387 14.8282 18.088 16.0001 18.088C17.1719 18.088 18.1212 17.1387 18.1212 15.9669C18.1212 14.795 17.1719 13.8457 16.0001 13.8457Z" stroke="#242424" stroke-width="1.5" stroke-miterlimit="10"/>
<path d="M16 10.9688C18.7609 10.9688 21 8.72966 21 5.96875C21 3.20784 18.7609 0.96875 16 0.96875C13.2391 0.96875 11 3.20784 11 5.96875C11 8.72966 13.2391 10.9688 16 10.9688ZM16 3.84611C17.1719 3.84611 18.1212 4.7954 18.1212 5.96728C18.1212 7.13915 17.1719 8.08844 16 8.08844C14.8281 8.08844 13.8788 7.13915 13.8788 5.96728C13.8788 4.7954 14.8281 3.84611 16 3.84611Z" stroke="#242424" stroke-width="1.5" stroke-miterlimit="10"/>
<path d="M11 5.96875C11 3.20784 8.76091 0.96875 6 0.96875C3.23909 0.96875 1 3.20784 1 5.96875C1 8.72966 3.23909 10.9688 6 10.9688C8.76091 10.9688 11 8.72966 11 5.96875ZM6 8.08992C4.82812 8.08992 3.87883 7.14063 3.87883 5.96875C3.87883 4.79687 4.82812 3.84758 6 3.84758C7.17187 3.84758 8.12117 4.79687 8.12117 5.96875C8.12117 7.14063 7.17187 8.08992 6 8.08992Z" stroke="#242424" stroke-width="1.5" stroke-miterlimit="10"/>
<path d="M16.0001 8.08999C17.1719 8.08999 18.1212 7.1407 18.1212 5.96882C18.1212 4.79695 17.1719 3.84766 16.0001 3.84766C14.8282 3.84766 13.8789 4.79695 13.8789 5.96882C13.8789 7.1407 14.8282 8.08999 16.0001 8.08999Z" stroke="#242424" stroke-width="1.5" stroke-miterlimit="10"/>
</svg>
