<svg width="22" height="22" viewBox="0 0 22 22" fill="none" xmlns="http://www.w3.org/2000/svg">
<path d="M20.999 1H0.999023V21H20.999V1Z" stroke="#242424" stroke-width="1.5" stroke-miterlimit="10" stroke-linecap="round"/>
<path d="M10.9993 18.0728C14.9053 18.0728 18.0718 14.9063 18.0718 11.0003C18.0718 7.09421 14.9053 3.92773 10.9993 3.92773C7.09323 3.92773 3.92676 7.09421 3.92676 11.0003C3.92676 14.9063 7.09323 18.0728 10.9993 18.0728Z" stroke="#242424" stroke-width="1.5" stroke-miterlimit="10" stroke-linecap="round"/>
<path d="M10.9986 15.3977C13.4271 15.3977 15.3958 13.4291 15.3958 11.0006C15.3958 8.57217 13.4271 6.60352 10.9986 6.60352C8.57019 6.60352 6.60156 8.57217 6.60156 11.0006C6.60156 13.4291 8.57019 15.3977 10.9986 15.3977Z" stroke="#242424" stroke-width="1.5" stroke-miterlimit="10" stroke-linecap="round"/>
<path d="M20.999 1H0.999023V21H20.999V1Z" stroke="#242424" stroke-width="1.5" stroke-miterlimit="10" stroke-linecap="round"/>
<path d="M10.9993 18.0728C14.9053 18.0728 18.0718 14.9063 18.0718 11.0003C18.0718 7.09421 14.9053 3.92773 10.9993 3.92773C7.09323 3.92773 3.92676 7.09421 3.92676 11.0003C3.92676 14.9063 7.09323 18.0728 10.9993 18.0728Z" stroke="#242424" stroke-width="1.5" stroke-miterlimit="10" stroke-linecap="round"/>
<path d="M10.9986 15.3977C13.4271 15.3977 15.3958 13.4291 15.3958 11.0006C15.3958 8.57217 13.4271 6.60352 10.9986 6.60352C8.57019 6.60352 6.60156 8.57217 6.60156 11.0006C6.60156 13.4291 8.57019 15.3977 10.9986 15.3977Z" stroke="#242424" stroke-width="1.5" stroke-miterlimit="10" stroke-linecap="round"/>
</svg>
