<svg width="22" height="22" viewBox="0 0 22 22" fill="none" xmlns="http://www.w3.org/2000/svg">
<path d="M1 10.9824H20.9646" stroke="#242424" stroke-width="1.5" stroke-miterlimit="10" stroke-linecap="round"/>
<path d="M10.9824 20.9646V1" stroke="#242424" stroke-width="1.5" stroke-miterlimit="10" stroke-linecap="round"/>
<path d="M13.1433 10.9844H8.84204C8.84204 15.3107 5.33525 18.819 1.00742 18.819C1.00153 18.819 0.997107 18.819 0.991211 18.819V20.9858H20.9912V18.8205C20.9912 18.8205 20.9824 18.8205 20.9779 18.8205C16.6516 18.8205 13.1433 15.3137 13.1433 10.9858V10.9844Z" stroke="#242424" stroke-width="1.5" stroke-linejoin="round"/>
<path d="M13.1433 0.984375H8.84204C8.84204 5.31073 5.33525 8.81899 1.00742 8.81899C1.00153 8.81899 0.997107 8.81899 0.991211 8.81899V10.9858H20.9912V8.82046C20.9912 8.82046 20.9824 8.82046 20.9779 8.82046C16.6516 8.82046 13.1433 5.31368 13.1433 0.985848V0.984375Z" stroke="#242424" stroke-width="1.5" stroke-linejoin="round"/>
</svg>
