<svg width="22" height="22" viewBox="0 0 22 22" fill="none" xmlns="http://www.w3.org/2000/svg">
<path d="M11 21C16.5229 21 21 16.5229 21 11C21 5.47716 16.5229 1 11 1C5.47717 1 1 5.47716 1 11C1 16.5229 5.47717 21 11 21Z" stroke="#242424" stroke-width="1.5" stroke-miterlimit="10" stroke-linecap="round"/>
<path d="M10.9998 16.6774C14.1349 16.6774 16.6764 14.1359 16.6764 11.0008C16.6764 7.86572 14.1349 5.32422 10.9998 5.32422C7.86474 5.32422 5.32324 7.86572 5.32324 11.0008C5.32324 14.1359 7.86474 16.6774 10.9998 16.6774Z" stroke="#242424" stroke-width="1.5" stroke-miterlimit="10" stroke-linecap="round"/>
<path d="M1.00879 11H20.9734" stroke="#242424" stroke-width="1.5" stroke-miterlimit="10" stroke-linecap="round"/>
<path d="M10.9912 20.9822V1.01758" stroke="#242424" stroke-width="1.5" stroke-miterlimit="10" stroke-linecap="round"/>
<path d="M16.1143 11.044L19.8923 7.26603C21.2926 5.86568 21.2926 3.59563 19.8923 2.19675C18.4919 0.796396 16.2219 0.796396 14.823 2.19675L11.045 5.97476L7.26701 2.19675C5.86666 0.796396 3.59661 0.796396 2.19773 2.19675C0.797372 3.5971 0.797372 5.86715 2.19773 7.26603L5.97573 11.044L2.19773 14.822C0.797372 16.2224 0.797372 18.4924 2.19773 19.8913C3.59808 21.2917 5.86813 21.2917 7.26701 19.8913L11.045 16.1133L14.823 19.8913C16.2234 21.2917 18.4934 21.2917 19.8923 19.8913C21.2926 18.491 21.2926 16.2209 19.8923 14.822L16.1143 11.044Z" stroke="#242424" stroke-width="1.5" stroke-miterlimit="10" stroke-linecap="round"/>
</svg>
