<svg width="101" height="154" viewBox="0 0 101 154" fill="none" xmlns="http://www.w3.org/2000/svg">
    <path
        d="M59.7302 153.769L63.3212 147.119L59.1602 139.462H62.3332L64.8412 144.212L67.2162 139.462H70.2752L62.7512 153.769H59.7302Z"
        fill="#F9F8F6" />
    <path
        d="M57.0126 142.787C56.0436 142.787 55.2266 142.008 55.2266 141.02C55.2266 140.032 56.0436 139.253 57.0126 139.253C57.9816 139.253 58.7986 140.032 58.7986 141.02C58.7986 142.008 57.9816 142.787 57.0126 142.787ZM51.8066 139.462H54.6946V149H51.8066V139.462Z"
        fill="#F9F8F6" />
    <path
        d="M46.7024 139.462H49.5904V149H46.7024V147.86C46.1324 148.601 45.0494 149.228 43.7384 149.228C41.1354 149.228 39.0264 147.081 39.0264 144.231C39.0264 141.381 41.1354 139.234 43.7384 139.234C45.0494 139.234 46.1324 139.861 46.7024 140.602V139.462ZM41.8954 144.231C41.8954 145.656 42.9404 146.739 44.3464 146.739C45.7334 146.739 46.7784 145.656 46.7784 144.231C46.7784 142.806 45.7334 141.723 44.3464 141.723C42.9404 141.723 41.8954 142.806 41.8954 144.231Z"
        fill="#F9F8F6" />
    <path
        d="M36.8251 142.787C35.8561 142.787 35.0391 142.008 35.0391 141.02C35.0391 140.032 35.8561 139.253 36.8251 139.253C37.7941 139.253 38.6111 140.032 38.6111 141.02C38.6111 142.008 37.7941 142.787 36.8251 142.787ZM31.6191 139.462H34.5071V149H31.6191V139.462Z"
        fill="#F9F8F6" />
    <path
        d="M22.3538 133.686V140.602C22.9048 139.861 23.9878 139.234 25.2988 139.234C27.9018 139.234 30.0108 141.381 30.0108 144.231C30.0108 147.081 27.9018 149.228 25.2988 149.228C23.9878 149.228 22.9048 148.601 22.3538 147.86V149H19.4658V133.686H22.3538ZM27.1418 144.231C27.1418 142.806 26.0968 141.723 24.7098 141.723C23.3038 141.723 22.2588 142.806 22.2588 144.231C22.2588 145.656 23.3038 146.739 24.7098 146.739C26.0968 146.739 27.1418 145.656 27.1418 144.231Z"
        fill="#F9F8F6" />
    <path
        d="M15.8071 137.505C14.8571 137.505 14.0781 136.745 14.0781 135.795C14.0781 134.845 14.8571 134.085 15.8071 134.085C16.7381 134.085 17.5171 134.845 17.5171 135.795C17.5171 136.745 16.7381 137.505 15.8071 137.505ZM14.3631 139.462H17.2511V149H14.3631V139.462Z"
        fill="#F9F8F6" />
    <path d="M4.33008 149V134.674H7.38908V146.454H12.7091V149H4.33008Z" fill="#F9F8F6" />
    <path
        d="M95.5012 118.462H98.3892V128H95.5012V126.86C94.9312 127.601 93.8482 128.228 92.5372 128.228C89.9342 128.228 87.8252 126.081 87.8252 123.231C87.8252 120.381 89.9342 118.234 92.5372 118.234C93.8482 118.234 94.9312 118.861 95.5012 119.602V118.462ZM90.6942 123.231C90.6942 124.656 91.7392 125.739 93.1452 125.739C94.5322 125.739 95.5772 124.656 95.5772 123.231C95.5772 121.806 94.5322 120.723 93.1452 120.723C91.7392 120.723 90.6942 121.806 90.6942 123.231Z"
        fill="#F9F8F6" />
    <path
        d="M80.9375 120.951V118.462H82.3815V115.365H85.2695V118.462H87.1885V120.951H85.2695V128H82.3815V120.951H80.9375Z"
        fill="#F9F8F6" />
    <path
        d="M76.6125 118.462H79.5005V128H76.6125V126.86C76.0425 127.601 74.9595 128.228 73.6485 128.228C71.0455 128.228 68.9365 126.081 68.9365 123.231C68.9365 120.381 71.0455 118.234 73.6485 118.234C74.9595 118.234 76.0425 118.861 76.6125 119.602V118.462ZM71.8055 123.231C71.8055 124.656 72.8505 125.739 74.2565 125.739C75.6435 125.739 76.6885 124.656 76.6885 123.231C76.6885 121.806 75.6435 120.723 74.2565 120.723C72.8505 120.723 71.8055 121.806 71.8055 123.231Z"
        fill="#F9F8F6" />
    <path
        d="M55.8193 113.674H60.3413C64.5783 113.674 67.9033 116.695 67.9033 120.837C67.9033 124.979 64.5783 128 60.3413 128H55.8193V113.674ZM64.8253 120.837C64.8253 118.215 62.9253 116.22 60.1703 116.22H58.8783V125.454H60.1513C62.9253 125.454 64.8253 123.459 64.8253 120.837Z"
        fill="#F9F8F6" />
    <path
        d="M41.3652 128V113.674H49.5542V116.22H44.3672V119.45H49.4212V121.996H44.3672V128H41.3652Z"
        fill="#F9F8F6" />
    <path
        d="M39.7612 123.554C39.7612 126.252 37.4052 128.228 34.4982 128.228C31.8382 128.228 29.7102 126.67 29.1782 124.276L32.0282 123.364C32.3512 124.732 33.3012 125.625 34.5932 125.625C35.8092 125.625 36.7212 124.884 36.7212 123.706C36.7212 120.97 29.9952 122.794 29.9952 117.778C29.9952 115.441 31.8952 113.446 34.7452 113.446C36.9872 113.446 38.7162 114.643 39.3432 116.505L36.5312 117.55C36.2652 116.733 35.6382 116.03 34.6312 116.03C33.7002 116.03 32.9782 116.619 32.9782 117.569C32.9782 120.077 39.7612 118.386 39.7612 123.554Z"
        fill="#F9F8F6" />
    <path
        d="M20.3588 120.837C20.3588 123.402 22.2778 125.34 24.8428 125.34C26.2488 125.34 27.4458 124.789 28.2438 124.01V127.43C27.2178 127.962 26.0208 128.228 24.7858 128.228C20.6438 128.228 17.2998 124.903 17.2998 120.837C17.2998 116.771 20.6438 113.446 24.7858 113.446C26.0208 113.446 27.2178 113.731 28.2438 114.244V117.664C27.4458 116.885 26.2488 116.334 24.8428 116.334C22.2778 116.334 20.3588 118.272 20.3588 120.837Z"
        fill="#F9F8F6" />
    <path
        d="M9.87814 125.492C11.5121 125.492 12.5761 124.428 12.5761 122.319V113.674H15.6351V122.338C15.6351 126.119 13.1271 128.228 9.87814 128.228C6.64814 128.228 4.14014 126.119 4.14014 122.338V113.674H7.19914V122.319C7.19914 124.428 8.26314 125.492 9.87814 125.492Z"
        fill="#F9F8F6" />
    <rect x="4" y="4" width="93" height="93" rx="46.5" stroke="#F9F8F6" stroke-width="7" />
    <path
        d="M34.2088 67.0209H21.2227V60.2871H34.2088C39.515 60.2871 43.8314 55.9708 43.8314 50.6645C43.8314 45.3583 39.515 41.0453 34.2088 41.0453H21.2227V34.3115H34.2088C43.2253 34.3115 50.5652 41.648 50.5652 50.6645C50.5652 59.6811 43.2287 67.0209 34.2088 67.0209Z"
        fill="#F9F8F6" />
    <path d="M62.0093 34.6074H55.2755V58.0949H62.0093V34.6074Z" fill="#F9F8F6" />
    <path
        d="M24.6131 49.6379C26.4856 49.6379 28.0036 48.1199 28.0036 46.2474C28.0036 44.3749 26.4856 42.8569 24.6131 42.8569C22.7406 42.8569 21.2227 44.3749 21.2227 46.2474C21.2227 48.1199 22.7406 49.6379 24.6131 49.6379Z"
        fill="#F9F8F6" />
    <path
        d="M24.6131 58.092C26.4856 58.092 28.0036 56.574 28.0036 54.7015C28.0036 52.829 26.4856 51.311 24.6131 51.311C22.7406 51.311 21.2227 52.829 21.2227 54.7015C21.2227 56.574 22.7406 58.092 24.6131 58.092Z"
        fill="#F9F8F6" />
    <path
        d="M75.6986 67.0451C77.5711 67.0451 79.089 65.5271 79.089 63.6546C79.089 61.7821 77.5711 60.2642 75.6986 60.2642C73.8261 60.2642 72.3081 61.7821 72.3081 63.6546C72.3081 65.5271 73.8261 67.0451 75.6986 67.0451Z"
        fill="#F9F8F6" />
    <path
        d="M67.2489 67.0451C69.1214 67.0451 70.6393 65.5271 70.6393 63.6546C70.6393 61.7821 69.1214 60.2642 67.2489 60.2642C65.3764 60.2642 63.8584 61.7821 63.8584 63.6546C63.8584 65.5271 65.3764 67.0451 67.2489 67.0451Z"
        fill="#F9F8F6" />
    <path
        d="M58.7939 67.0451C60.6664 67.0451 62.1844 65.5271 62.1844 63.6546C62.1844 61.7821 60.6664 60.2642 58.7939 60.2642C56.9214 60.2642 55.4034 61.7821 55.4034 63.6546C55.4034 65.5271 56.9214 67.0451 58.7939 67.0451Z"
        fill="#F9F8F6" />
</svg>