<svg width="180" height="101" viewBox="0 0 180 101" fill="none" xmlns="http://www.w3.org/2000/svg">
<rect x="4" y="4" width="93" height="93" rx="46.5" stroke="#242424" stroke-width="7"/>
<path d="M34.2088 67.0219H21.2227V60.2881H34.2088C39.515 60.2881 43.8314 55.9718 43.8314 50.6655C43.8314 45.3593 39.515 41.0463 34.2088 41.0463H21.2227V34.3125H34.2088C43.2253 34.3125 50.5652 41.649 50.5652 50.6655C50.5652 59.6821 43.2287 67.0219 34.2088 67.0219Z" fill="#242424"/>
<path d="M62.0092 34.6094H55.2754V58.0969H62.0092V34.6094Z" fill="#242424"/>
<path d="M24.6131 49.6403C26.4856 49.6403 28.0036 48.1223 28.0036 46.2498C28.0036 44.3773 26.4856 42.8594 24.6131 42.8594C22.7406 42.8594 21.2227 44.3773 21.2227 46.2498C21.2227 48.1223 22.7406 49.6403 24.6131 49.6403Z" fill="#242424"/>
<path d="M24.6131 58.0934C26.4856 58.0934 28.0036 56.5755 28.0036 54.703C28.0036 52.8305 26.4856 51.3125 24.6131 51.3125C22.7406 51.3125 21.2227 52.8305 21.2227 54.703C21.2227 56.5755 22.7406 58.0934 24.6131 58.0934Z" fill="#242424"/>
<path d="M75.6986 67.0466C77.5711 67.0466 79.089 65.5286 79.089 63.6561C79.089 61.7836 77.5711 60.2656 75.6986 60.2656C73.8261 60.2656 72.3081 61.7836 72.3081 63.6561C72.3081 65.5286 73.8261 67.0466 75.6986 67.0466Z" fill="#242424"/>
<path d="M67.2489 67.0466C69.1214 67.0466 70.6393 65.5286 70.6393 63.6561C70.6393 61.7836 69.1214 60.2656 67.2489 60.2656C65.3764 60.2656 63.8584 61.7836 63.8584 63.6561C63.8584 65.5286 65.3764 67.0466 67.2489 67.0466Z" fill="#242424"/>
<path d="M58.7938 67.0466C60.6663 67.0466 62.1843 65.5286 62.1843 63.6561C62.1843 61.7836 60.6663 60.2656 58.7938 60.2656C56.9213 60.2656 55.4033 61.7836 55.4033 63.6561C55.4033 65.5286 56.9213 67.0466 58.7938 67.0466Z" fill="#242424"/>
<path d="M168.591 82.1586L172.182 75.5086L168.021 67.8516H171.194L173.702 72.6016L176.077 67.8516H179.136L171.612 82.1586H168.591Z" fill="#242424"/>
<path d="M165.873 71.1746C164.904 71.1746 164.087 70.3956 164.087 69.4076C164.087 68.4196 164.904 67.6406 165.873 67.6406C166.842 67.6406 167.659 68.4196 167.659 69.4076C167.659 70.3956 166.842 71.1746 165.873 71.1746ZM160.667 67.8496H163.555V77.3876H160.667V67.8496Z" fill="#242424"/>
<path d="M155.562 67.853H158.45V77.391H155.562V76.251C154.992 76.992 153.909 77.619 152.598 77.619C149.995 77.619 147.886 75.472 147.886 72.622C147.886 69.772 149.995 67.625 152.598 67.625C153.909 67.625 154.992 68.252 155.562 68.993V67.853ZM150.755 72.622C150.755 74.047 151.8 75.13 153.206 75.13C154.593 75.13 155.638 74.047 155.638 72.622C155.638 71.197 154.593 70.114 153.206 70.114C151.8 70.114 150.755 71.197 150.755 72.622Z" fill="#242424"/>
<path d="M145.685 71.1746C144.716 71.1746 143.899 70.3956 143.899 69.4076C143.899 68.4196 144.716 67.6406 145.685 67.6406C146.654 67.6406 147.471 68.4196 147.471 69.4076C147.471 70.3956 146.654 71.1746 145.685 71.1746ZM140.479 67.8496H143.367V77.3876H140.479V67.8496Z" fill="#242424"/>
<path d="M131.214 62.0781V68.9941C131.765 68.2531 132.848 67.6261 134.159 67.6261C136.762 67.6261 138.871 69.7731 138.871 72.6231C138.871 75.4731 136.762 77.6201 134.159 77.6201C132.848 77.6201 131.765 76.9931 131.214 76.2521V77.3921H128.326V62.0781H131.214ZM136.002 72.6231C136.002 71.1981 134.957 70.1151 133.57 70.1151C132.164 70.1151 131.119 71.1981 131.119 72.6231C131.119 74.0481 132.164 75.1311 133.57 75.1311C134.957 75.1311 136.002 74.0481 136.002 72.6231Z" fill="#242424"/>
<path d="M124.667 65.8966C123.717 65.8966 122.938 65.1366 122.938 64.1866C122.938 63.2366 123.717 62.4766 124.667 62.4766C125.598 62.4766 126.377 63.2366 126.377 64.1866C126.377 65.1366 125.598 65.8966 124.667 65.8966ZM123.223 67.8536H126.111V77.3916H123.223V67.8536Z" fill="#242424"/>
<path d="M113.19 77.3885V63.0625H116.249V74.8425H121.569V77.3885H113.19Z" fill="#242424"/>
<path d="M152.872 45.853H155.76V55.391H152.872V54.251C152.302 54.992 151.219 55.619 149.908 55.619C147.305 55.619 145.196 53.472 145.196 50.622C145.196 47.772 147.305 45.625 149.908 45.625C151.219 45.625 152.302 46.252 152.872 46.993V45.853ZM148.065 50.622C148.065 52.047 149.11 53.13 150.516 53.13C151.903 53.13 152.948 52.047 152.948 50.622C152.948 49.197 151.903 48.114 150.516 48.114C149.11 48.114 148.065 49.197 148.065 50.622Z" fill="#242424"/>
<path d="M138.309 48.3438V45.8548H139.753V42.7578H142.641V45.8548H144.56V48.3438H142.641V55.3928H139.753V48.3438H138.309Z" fill="#242424"/>
<path d="M133.983 45.853H136.871V55.391H133.983V54.251C133.413 54.992 132.33 55.619 131.019 55.619C128.416 55.619 126.307 53.472 126.307 50.622C126.307 47.772 128.416 45.625 131.019 45.625C132.33 45.625 133.413 46.252 133.983 46.993V45.853ZM129.176 50.622C129.176 52.047 130.221 53.13 131.627 53.13C133.014 53.13 134.059 52.047 134.059 50.622C134.059 49.197 133.014 48.114 131.627 48.114C130.221 48.114 129.176 49.197 129.176 50.622Z" fill="#242424"/>
<path d="M113.19 41.0625H117.712C121.949 41.0625 125.274 44.0835 125.274 48.2255C125.274 52.3675 121.949 55.3885 117.712 55.3885H113.19V41.0625ZM122.196 48.2255C122.196 45.6035 120.296 43.6085 117.541 43.6085H116.249V52.8425H117.522C120.296 52.8425 122.196 50.8475 122.196 48.2255Z" fill="#242424"/>
<path d="M150.226 33.3885V19.0625H158.415V21.6085H153.228V24.8385H158.282V27.3845H153.228V33.3885H150.226Z" fill="#242424"/>
<path d="M148.621 28.9439C148.621 31.6419 146.265 33.6179 143.358 33.6179C140.698 33.6179 138.57 32.0599 138.038 29.6659L140.888 28.7539C141.211 30.1219 142.161 31.0149 143.453 31.0149C144.669 31.0149 145.581 30.2739 145.581 29.0959C145.581 26.3599 138.855 28.1839 138.855 23.1679C138.855 20.8309 140.755 18.8359 143.605 18.8359C145.847 18.8359 147.576 20.0329 148.203 21.8949L145.391 22.9399C145.125 22.1229 144.498 21.4199 143.491 21.4199C142.56 21.4199 141.838 22.0089 141.838 22.9589C141.838 25.4669 148.621 23.7759 148.621 28.9439Z" fill="#242424"/>
<path d="M129.219 26.2269C129.219 28.7919 131.138 30.7299 133.703 30.7299C135.109 30.7299 136.306 30.1789 137.104 29.3999V32.8199C136.078 33.3519 134.881 33.6179 133.646 33.6179C129.504 33.6179 126.16 30.2929 126.16 26.2269C126.16 22.1609 129.504 18.8359 133.646 18.8359C134.881 18.8359 136.078 19.1209 137.104 19.6339V23.0539C136.306 22.2749 135.109 21.7239 133.703 21.7239C131.138 21.7239 129.219 23.6619 129.219 26.2269Z" fill="#242424"/>
<path d="M118.738 30.8805C120.372 30.8805 121.436 29.8165 121.436 27.7075V19.0625H124.495V27.7265C124.495 31.5075 121.987 33.6165 118.738 33.6165C115.508 33.6165 113 31.5075 113 27.7265V19.0625H116.059V27.7075C116.059 29.8165 117.123 30.8805 118.738 30.8805Z" fill="#242424"/>
</svg>
