<svg width="95" height="41" viewBox="0 0 95 41" fill="none" xmlns="http://www.w3.org/2000/svg">
<g id="UCSF Data Library">
<path id="Vector" d="M55.7302 40.7689L59.3212 34.1189L55.1602 26.4619H58.3332L60.8412 31.2119L63.2162 26.4619H66.2752L58.7512 40.7689H55.7302Z" fill="#F9F8F6"/>
<path id="Vector_2" d="M53.0126 29.7869C52.0436 29.7869 51.2266 29.0079 51.2266 28.0199C51.2266 27.0319 52.0436 26.2529 53.0126 26.2529C53.9816 26.2529 54.7986 27.0319 54.7986 28.0199C54.7986 29.0079 53.9816 29.7869 53.0126 29.7869ZM47.8066 26.4619H50.6946V35.9999H47.8066V26.4619Z" fill="#F9F8F6"/>
<path id="Vector_3" d="M42.7033 26.4619H45.5913V35.9999H42.7033V34.8599C42.1333 35.6009 41.0503 36.2279 39.7393 36.2279C37.1363 36.2279 35.0273 34.0809 35.0273 31.2309C35.0273 28.3809 37.1363 26.2339 39.7393 26.2339C41.0503 26.2339 42.1333 26.8609 42.7033 27.6019V26.4619ZM37.8963 31.2309C37.8963 32.6559 38.9413 33.7389 40.3473 33.7389C41.7343 33.7389 42.7793 32.6559 42.7793 31.2309C42.7793 29.8059 41.7343 28.7229 40.3473 28.7229C38.9413 28.7229 37.8963 29.8059 37.8963 31.2309Z" fill="#F9F8F6"/>
<path id="Vector_4" d="M32.8251 29.7869C31.8561 29.7869 31.0391 29.0079 31.0391 28.0199C31.0391 27.0319 31.8561 26.2529 32.8251 26.2529C33.7941 26.2529 34.6111 27.0319 34.6111 28.0199C34.6111 29.0079 33.7941 29.7869 32.8251 29.7869ZM27.6191 26.4619H30.5071V35.9999H27.6191V26.4619Z" fill="#F9F8F6"/>
<path id="Vector_5" d="M18.3548 20.686V27.602C18.9058 26.861 19.9888 26.234 21.2998 26.234C23.9028 26.234 26.0118 28.381 26.0118 31.231C26.0118 34.081 23.9028 36.228 21.2998 36.228C19.9888 36.228 18.9058 35.601 18.3548 34.86V36H15.4668V20.686H18.3548ZM23.1428 31.231C23.1428 29.806 22.0978 28.723 20.7108 28.723C19.3048 28.723 18.2598 29.806 18.2598 31.231C18.2598 32.656 19.3048 33.739 20.7108 33.739C22.0978 33.739 23.1428 32.656 23.1428 31.231Z" fill="#F9F8F6"/>
<path id="Vector_6" d="M11.8071 24.505C10.8571 24.505 10.0781 23.745 10.0781 22.795C10.0781 21.845 10.8571 21.085 11.8071 21.085C12.7381 21.085 13.5171 21.845 13.5171 22.795C13.5171 23.745 12.7381 24.505 11.8071 24.505ZM10.3631 26.462H13.2511V36H10.3631V26.462Z" fill="#F9F8F6"/>
<path id="Vector_7" d="M0.330078 35.9998V21.6738H3.38908V33.4538H8.70908V35.9998H0.330078Z" fill="#F9F8F6"/>
<path id="Vector_8" d="M91.5022 5.46189H94.3902V14.9999H91.5022V13.8599C90.9322 14.6009 89.8492 15.2279 88.5382 15.2279C85.9352 15.2279 83.8262 13.0809 83.8262 10.2309C83.8262 7.38089 85.9352 5.23389 88.5382 5.23389C89.8492 5.23389 90.9322 5.86089 91.5022 6.60189V5.46189ZM86.6952 10.2309C86.6952 11.6559 87.7402 12.7389 89.1462 12.7389C90.5332 12.7389 91.5782 11.6559 91.5782 10.2309C91.5782 8.80589 90.5332 7.72289 89.1462 7.72289C87.7402 7.72289 86.6952 8.80589 86.6952 10.2309Z" fill="#F9F8F6"/>
<path id="Vector_9" d="M76.9375 7.95123V5.46223H78.3815V2.36523H81.2695V5.46223H83.1885V7.95123H81.2695V15.0002H78.3815V7.95123H76.9375Z" fill="#F9F8F6"/>
<path id="Vector_10" d="M72.6135 5.46189H75.5015V14.9999H72.6135V13.8599C72.0435 14.6009 70.9605 15.2279 69.6495 15.2279C67.0465 15.2279 64.9375 13.0809 64.9375 10.2309C64.9375 7.38089 67.0465 5.23389 69.6495 5.23389C70.9605 5.23389 72.0435 5.86089 72.6135 6.60189V5.46189ZM67.8065 10.2309C67.8065 11.6559 68.8515 12.7389 70.2575 12.7389C71.6445 12.7389 72.6895 11.6559 72.6895 10.2309C72.6895 8.80589 71.6445 7.72289 70.2575 7.72289C68.8515 7.72289 67.8065 8.80589 67.8065 10.2309Z" fill="#F9F8F6"/>
<path id="Vector_11" d="M51.8203 0.673828H56.3423C60.5793 0.673828 63.9043 3.69483 63.9043 7.83683C63.9043 11.9788 60.5793 14.9998 56.3423 14.9998H51.8203V0.673828ZM60.8263 7.83683C60.8263 5.21483 58.9263 3.21983 56.1713 3.21983H54.8793V12.4538H56.1523C58.9263 12.4538 60.8263 10.4588 60.8263 7.83683Z" fill="#F9F8F6"/>
<path id="Vector_12" d="M37.3652 14.9998V0.673828H45.5542V3.21983H40.3672V6.44983H45.4212V8.99583H40.3672V14.9998H37.3652Z" fill="#F9F8F6"/>
<path id="Vector_13" d="M35.7627 10.5538C35.7627 13.2518 33.4067 15.2278 30.4997 15.2278C27.8397 15.2278 25.7117 13.6698 25.1797 11.2758L28.0297 10.3638C28.3527 11.7318 29.3027 12.6248 30.5947 12.6248C31.8107 12.6248 32.7227 11.8838 32.7227 10.7058C32.7227 7.9698 25.9967 9.7938 25.9967 4.7778C25.9967 2.4408 27.8967 0.445801 30.7467 0.445801C32.9887 0.445801 34.7177 1.6428 35.3447 3.5048L32.5327 4.5498C32.2667 3.7328 31.6397 3.0298 30.6327 3.0298C29.7017 3.0298 28.9797 3.6188 28.9797 4.5688C28.9797 7.0768 35.7627 5.3858 35.7627 10.5538Z" fill="#F9F8F6"/>
<path id="Vector_14" d="M16.3598 7.8368C16.3598 10.4018 18.2788 12.3398 20.8438 12.3398C22.2498 12.3398 23.4468 11.7888 24.2448 11.0098V14.4298C23.2188 14.9618 22.0218 15.2278 20.7868 15.2278C16.6448 15.2278 13.3008 11.9028 13.3008 7.8368C13.3008 3.7708 16.6448 0.445801 20.7868 0.445801C22.0218 0.445801 23.2188 0.730801 24.2448 1.2438V4.6638C23.4468 3.8848 22.2498 3.3338 20.8438 3.3338C18.2788 3.3338 16.3598 5.2718 16.3598 7.8368Z" fill="#F9F8F6"/>
<path id="Vector_15" d="M5.87862 12.4918C7.51262 12.4918 8.57662 11.4278 8.57662 9.31883V0.673828H11.6356V9.33783C11.6356 13.1188 9.12763 15.2278 5.87862 15.2278C2.64862 15.2278 0.140625 13.1188 0.140625 9.33783V0.673828H3.19963V9.31883C3.19963 11.4278 4.26362 12.4918 5.87862 12.4918Z" fill="#F9F8F6"/>
</g>
</svg>
