<svg width="48" height="48" viewBox="0 0 48 48" fill="none" xmlns="http://www.w3.org/2000/svg">
<path d="M42 24C42 24.3978 41.842 24.7794 41.5607 25.0607C41.2794 25.342 40.8978 25.5 40.5 25.5H7.5C7.10218 25.5 6.72064 25.342 6.43934 25.0607C6.15804 24.7794 6 24.3978 6 24C6 23.6022 6.15804 23.2206 6.43934 22.9393C6.72064 22.658 7.10218 22.5 7.5 22.5H40.5C40.8978 22.5 41.2794 22.658 41.5607 22.9393C41.842 23.2206 42 23.6022 42 24ZM7.5 13.5H40.5C40.8978 13.5 41.2794 13.342 41.5607 13.0607C41.842 12.7794 42 12.3978 42 12C42 11.6022 41.842 11.2206 41.5607 10.9393C41.2794 10.658 40.8978 10.5 40.5 10.5H7.5C7.10218 10.5 6.72064 10.658 6.43934 10.9393C6.15804 11.2206 6 11.6022 6 12C6 12.3978 6.15804 12.7794 6.43934 13.0607C6.72064 13.342 7.10218 13.5 7.5 13.5ZM40.5 34.5H7.5C7.10218 34.5 6.72064 34.658 6.43934 34.9393C6.15804 35.2206 6 35.6022 6 36C6 36.3978 6.15804 36.7794 6.43934 37.0607C6.72064 37.342 7.10218 37.5 7.5 37.5H40.5C40.8978 37.5 41.2794 37.342 41.5607 37.0607C41.842 36.7794 42 36.3978 42 36C42 35.6022 41.842 35.2206 41.5607 34.9393C41.2794 34.658 40.8978 34.5 40.5 34.5Z" fill="#F9F8F6"/>
</svg>
